<?xml version="1.0" encoding="UTF-8"?>
<!DOCTYPE svg PUBLIC "-//W3C//DTD SVG 1.1//EN" "http://www.w3.org/Graphics/SVG/1.1/DTD/svg11.dtd">
<!-- Creator: CorelDRAW -->
<svg xmlns="http://www.w3.org/2000/svg" xml:space="preserve" width="0.0662362in" height="0.0485157in" style="shape-rendering:geometricPrecision; text-rendering:geometricPrecision; image-rendering:optimizeQuality; fill-rule:evenodd; clip-rule:evenodd"
viewBox="0 0 6.28364e-005 4.60255e-005"
 xmlns:xlink="http://www.w3.org/1999/xlink">
 <defs>
  <style type="text/css">
   <![CDATA[
    .fil0 {fill:#838281;fill-rule:nonzero}
   ]]>
  </style>
 </defs>
 <g id="Layer_x0020_1">
  <metadata id="CorelCorpID_0Corel-Layer"/>
  <g>
   <path class="fil0" d="M3.25424e-005 3.23444e-006l-2.01686e-006 -2.92071e-006 7.46985e-008 -4.8554e-008 7.84334e-008 -4.8554e-008 7.84334e-008 -4.10842e-008 8.21683e-008 -3.36143e-008 8.21683e-008 -3.36143e-008 8.21683e-008 -2.98794e-008 8.21683e-008 -2.24095e-008 8.59032e-008 -1.86746e-008 8.59032e-008 -1.49397e-008 8.59032e-008 -1.12048e-008 8.21683e-008 -7.46985e-009 8.59032e-008 -3.73492e-009 8.59032e-008 0 8.59032e-008 7.46985e-009 8.59032e-008 7.46985e-009 8.21683e-008 1.49397e-008 8.59032e-008 1.86746e-008 8.21683e-008 1.86746e-008 8.21683e-008 2.61445e-008 7.84334e-008 2.98794e-008 7.84334e-008 3.36143e-008 7.84334e-008 3.73492e-008 7.46985e-008 4.10842e-008 7.46985e-008 4.10842e-008 7.09636e-008 4.8554e-008 7.09636e-008 5.22889e-008 6.72286e-008 5.60239e-008 6.72286e-008 5.97588e-008 5.97588e-008 6.34937e-008 5.97588e-008 6.72286e-008 5.97588e-008 6.72286e-008 5.22889e-008 7.46985e-008 4.8554e-008 7.46985e-008 4.8554e-008 7.84334e-008 4.10842e-008 7.84334e-008 3.36143e-008 8.21683e-008 3.36143e-008 8.21683e-008 2.98794e-008 8.21683e-008 2.24095e-008 8.21683e-008 1.86746e-008 8.59032e-008 1.49397e-008 8.59032e-008 1.12048e-008 8.59032e-008 7.46985e-009 8.21683e-008 3.73492e-009 8.59032e-008 0 8.59032e-008 -7.46985e-009 8.59032e-008 -7.46985e-009 8.59032e-008 -1.49397e-008 8.21683e-008 -1.86746e-008 8.59032e-008 -1.86746e-008 8.21683e-008 -2.61445e-008 8.21683e-008 -2.98794e-008 7.84334e-008 -3.36143e-008 7.84334e-008 -3.73492e-008 7.84334e-008 -4.10842e-008 7.46985e-008 -4.10842e-008 7.46985e-008 -4.8554e-008 7.09636e-008 -5.22889e-008 7.09636e-008 -5.60239e-008 6.72286e-008 -5.97588e-008 6.72286e-008 -6.34937e-008 5.97588e-008 -6.72286e-008 5.97588e-008 -6.72286e-008 5.97588e-008 -7.46985e-008 5.22889e-008zm-3.07683e-005 2.07774e-005l-1.00843e-006 -3.23818e-006 2.97599e-005 -2.04599e-005 2.01686e-006 2.92071e-006 -2.97599e-005 2.04599e-005 -1.00843e-006 3.17469e-007zm-1.00843e-006 -3.23818e-006l2.01686e-006 2.92071e-006 -7.46985e-008 4.8554e-008 -7.84334e-008 4.8554e-008 -7.84334e-008 4.10842e-008 -8.21683e-008 3.36143e-008 -8.21683e-008 3.36143e-008 -8.21683e-008 2.98794e-008 -8.21683e-008 2.24095e-008 -8.59032e-008 1.86746e-008 -8.59032e-008 1.49397e-008 -8.59032e-008 1.12048e-008 -8.21683e-008 7.46985e-009 -8.59032e-008 3.73492e-009 -8.59032e-008 0 -8.59032e-008 -7.46985e-009 -8.59032e-008 -7.46985e-009 -8.21683e-008 -1.49397e-008 -8.59032e-008 -1.86746e-008 -8.21683e-008 -1.86746e-008 -8.21683e-008 -2.61445e-008 -7.84334e-008 -2.98794e-008 -7.84334e-008 -3.36143e-008 -7.84334e-008 -3.73492e-008 -7.46985e-008 -4.10842e-008 -7.46985e-008 -4.10842e-008 -7.09636e-008 -4.8554e-008 -7.09636e-008 -5.22889e-008 -6.72286e-008 -5.60239e-008 -6.72286e-008 -5.97588e-008 -5.97588e-008 -6.34937e-008 -5.97588e-008 -6.72286e-008 -5.97588e-008 -6.72286e-008 -5.22889e-008 -7.46985e-008 -4.8554e-008 -7.46985e-008 -4.8554e-008 -7.84334e-008 -4.10842e-008 -7.84334e-008 -3.36143e-008 -8.21683e-008 -3.36143e-008 -8.21683e-008 -2.98794e-008 -8.21683e-008 -2.24095e-008 -8.21683e-008 -1.86746e-008 -8.59032e-008 -1.49397e-008 -8.59032e-008 -1.12048e-008 -8.59032e-008 -7.46985e-009 -8.21683e-008 -3.73492e-009 -8.59032e-008 0 -8.59032e-008 7.46985e-009 -8.59032e-008 7.46985e-009 -8.59032e-008 1.49397e-008 -8.21683e-008 1.86746e-008 -8.59032e-008 1.86746e-008 -8.21683e-008 2.61445e-008 -8.21683e-008 2.98794e-008 -7.84334e-008 3.36143e-008 -7.84334e-008 3.73492e-008 -7.84334e-008 4.10842e-008 -7.46985e-008 4.10842e-008 -7.46985e-008 4.8554e-008 -7.09636e-008 5.22889e-008 -7.09636e-008 5.60239e-008 -6.72286e-008 5.97588e-008 -6.72286e-008 6.34937e-008 -5.97588e-008 6.72286e-008 -5.97588e-008 6.72286e-008 -5.97588e-008 7.46985e-008 -5.22889e-008zm1.42562e-005 1.46036e-006l-1.77782e-006 1.77782e-006 -1.147e-005 0 0 -3.55565e-006 1.147e-005 0 1.77782e-006 1.77782e-006zm-1.77782e-006 1.77782e-006l0 -3.55565e-006 8.96382e-008 3.73492e-009 9.33731e-008 3.73492e-009 8.59032e-008 1.49397e-008 8.96382e-008 1.49397e-008 8.59032e-008 1.86746e-008 8.21683e-008 2.24095e-008 8.21683e-008 2.98794e-008 8.21683e-008 3.36143e-008 7.84334e-008 3.36143e-008 7.46985e-008 4.10842e-008 7.46985e-008 4.10842e-008 7.46985e-008 4.8554e-008 6.72286e-008 4.8554e-008 6.72286e-008 5.22889e-008 6.72286e-008 5.60239e-008 5.97588e-008 5.97588e-008 5.97588e-008 5.97588e-008 5.60239e-008 6.72286e-008 5.22889e-008 6.72286e-008 4.8554e-008 6.72286e-008 4.8554e-008 7.46985e-008 4.10842e-008 7.46985e-008 4.10842e-008 7.46985e-008 3.36143e-008 7.84334e-008 3.36143e-008 8.21683e-008 2.98794e-008 8.21683e-008 2.24095e-008 8.21683e-008 1.86746e-008 8.59032e-008 1.49397e-008 8.96382e-008 1.49397e-008 8.59032e-008 3.73492e-009 9.33731e-008 3.73492e-009 8.96382e-008 -3.73492e-009 8.96382e-008 -3.73492e-009 9.33731e-008 -1.49397e-008 8.59032e-008 -1.49397e-008 8.96382e-008 -1.86746e-008 8.59032e-008 -2.24095e-008 8.21683e-008 -2.98794e-008 8.21683e-008 -3.36143e-008 8.21683e-008 -3.36143e-008 7.84334e-008 -4.10842e-008 7.46985e-008 -4.10842e-008 7.46985e-008 -4.8554e-008 7.46985e-008 -4.8554e-008 6.72286e-008 -5.22889e-008 6.72286e-008 -5.60239e-008 6.72286e-008 -5.97588e-008 5.97588e-008 -5.97588e-008 5.97588e-008 -6.72286e-008 5.60239e-008 -6.72286e-008 5.22889e-008 -6.72286e-008 4.8554e-008 -7.46985e-008 4.8554e-008 -7.46985e-008 4.10842e-008 -7.46985e-008 4.10842e-008 -7.84334e-008 3.36143e-008 -8.21683e-008 3.36143e-008 -8.21683e-008 2.98794e-008 -8.21683e-008 2.24095e-008 -8.59032e-008 1.86746e-008 -8.96382e-008 1.49397e-008 -8.59032e-008 1.49397e-008 -9.33731e-008 3.73492e-009 -8.96382e-008 3.73492e-009zm0 2.20136e-005l-1.77782e-006 -1.77782e-006 0 -2.20136e-005 3.55565e-006 0 0 2.20136e-005 -1.77782e-006 1.77782e-006zm-1.77782e-006 -1.77782e-006l3.55565e-006 0 -3.73492e-009 8.96382e-008 -3.73492e-009 9.33731e-008 -1.49397e-008 8.59032e-008 -1.49397e-008 8.96382e-008 -1.86746e-008 8.59032e-008 -2.24095e-008 8.21683e-008 -2.98794e-008 8.21683e-008 -3.36143e-008 8.21683e-008 -3.36143e-008 7.84334e-008 -4.10842e-008 7.46985e-008 -4.10842e-008 7.46985e-008 -4.8554e-008 7.46985e-008 -4.8554e-008 6.72286e-008 -5.22889e-008 6.72286e-008 -5.60239e-008 6.72286e-008 -5.97588e-008 5.97588e-008 -5.97588e-008 5.97588e-008 -6.72286e-008 5.60239e-008 -6.72286e-008 5.22889e-008 -6.72286e-008 4.8554e-008 -7.46985e-008 4.8554e-008 -7.46985e-008 4.10842e-008 -7.46985e-008 4.10842e-008 -7.84334e-008 3.36143e-008 -8.21683e-008 3.36143e-008 -8.21683e-008 2.98794e-008 -8.21683e-008 2.24095e-008 -8.59032e-008 1.86746e-008 -8.96382e-008 1.49397e-008 -8.59032e-008 1.49397e-008 -9.33731e-008 3.73492e-009 -8.96382e-008 3.73492e-009 -8.96382e-008 -3.73492e-009 -9.33731e-008 -3.73492e-009 -8.59032e-008 -1.49397e-008 -8.96382e-008 -1.49397e-008 -8.59032e-008 -1.86746e-008 -8.21683e-008 -2.24095e-008 -8.21683e-008 -2.98794e-008 -8.21683e-008 -3.36143e-008 -7.84334e-008 -3.36143e-008 -7.46985e-008 -4.10842e-008 -7.46985e-008 -4.10842e-008 -7.46985e-008 -4.8554e-008 -6.72286e-008 -4.8554e-008 -6.72286e-008 -5.22889e-008 -6.72286e-008 -5.60239e-008 -5.97588e-008 -5.97588e-008 -5.97588e-008 -5.97588e-008 -5.60239e-008 -6.72286e-008 -5.22889e-008 -6.72286e-008 -4.8554e-008 -6.72286e-008 -4.8554e-008 -7.46985e-008 -4.10842e-008 -7.46985e-008 -4.10842e-008 -7.46985e-008 -3.36143e-008 -7.84334e-008 -3.36143e-008 -8.21683e-008 -2.98794e-008 -8.21683e-008 -2.24095e-008 -8.21683e-008 -1.86746e-008 -8.59032e-008 -1.49397e-008 -8.96382e-008 -1.49397e-008 -8.59032e-008 -3.73492e-009 -9.33731e-008 -3.73492e-009 -8.96382e-008zm1.78156e-005 0l-1.77782e-006 1.77782e-006 -1.42599e-005 0 0 -3.55565e-006 1.42599e-005 0 1.77782e-006 1.77782e-006zm-1.77782e-006 1.77782e-006l0 -3.55565e-006 8.96382e-008 3.73492e-009 9.33731e-008 3.73492e-009 8.59032e-008 1.49397e-008 8.96382e-008 1.49397e-008 8.59032e-008 1.86746e-008 8.21683e-008 2.24095e-008 8.21683e-008 2.98794e-008 8.21683e-008 3.36143e-008 7.84334e-008 3.36143e-008 7.46985e-008 4.10842e-008 7.46985e-008 4.10842e-008 7.46985e-008 4.8554e-008 6.72286e-008 4.8554e-008 6.72286e-008 5.22889e-008 6.72286e-008 5.60239e-008 5.97588e-008 5.97588e-008 5.97588e-008 5.97588e-008 5.60239e-008 6.72286e-008 5.22889e-008 6.72286e-008 4.8554e-008 6.72286e-008 4.8554e-008 7.46985e-008 4.10842e-008 7.46985e-008 4.10842e-008 7.46985e-008 3.36143e-008 7.84334e-008 3.36143e-008 8.21683e-008 2.98794e-008 8.21683e-008 2.24095e-008 8.21683e-008 1.86746e-008 8.59032e-008 1.49397e-008 8.96382e-008 1.49397e-008 8.59032e-008 3.73492e-009 9.33731e-008 3.73492e-009 8.96382e-008 -3.73492e-009 8.96382e-008 -3.73492e-009 9.33731e-008 -1.49397e-008 8.59032e-008 -1.49397e-008 8.96382e-008 -1.86746e-008 8.59032e-008 -2.24095e-008 8.21683e-008 -2.98794e-008 8.21683e-008 -3.36143e-008 8.21683e-008 -3.36143e-008 7.84334e-008 -4.10842e-008 7.46985e-008 -4.10842e-008 7.46985e-008 -4.8554e-008 7.46985e-008 -4.8554e-008 6.72286e-008 -5.22889e-008 6.72286e-008 -5.60239e-008 6.72286e-008 -5.97588e-008 5.97588e-008 -5.97588e-008 5.97588e-008 -6.72286e-008 5.60239e-008 -6.72286e-008 5.22889e-008 -6.72286e-008 4.8554e-008 -7.46985e-008 4.8554e-008 -7.46985e-008 4.10842e-008 -7.46985e-008 4.10842e-008 -7.84334e-008 3.36143e-008 -8.21683e-008 3.36143e-008 -8.21683e-008 2.98794e-008 -8.21683e-008 2.24095e-008 -8.59032e-008 1.86746e-008 -8.96382e-008 1.49397e-008 -8.59032e-008 1.49397e-008 -9.33731e-008 3.73492e-009 -8.96382e-008 3.73492e-009zm0 -1.68856e-005l1.77782e-006 1.77409e-006 0 1.33337e-005 -3.55565e-006 0 0 -1.33337e-005 1.77782e-006 -1.77409e-006zm1.77782e-006 1.77409e-006l-3.55565e-006 0 3.73492e-009 -8.96382e-008 3.73492e-009 -9.33731e-008 1.49397e-008 -8.59032e-008 1.49397e-008 -8.96382e-008 1.86746e-008 -8.59032e-008 2.24095e-008 -8.21683e-008 2.98794e-008 -8.21683e-008 3.36143e-008 -8.21683e-008 3.36143e-008 -7.84334e-008 4.10842e-008 -7.46985e-008 4.10842e-008 -7.46985e-008 4.8554e-008 -7.46985e-008 4.8554e-008 -6.72286e-008 5.22889e-008 -6.72286e-008 5.60239e-008 -6.72286e-008 5.97588e-008 -5.97588e-008 5.97588e-008 -5.97588e-008 6.72286e-008 -5.60239e-008 6.72286e-008 -5.22889e-008 6.72286e-008 -4.8554e-008 7.46985e-008 -4.8554e-008 7.46985e-008 -4.10842e-008 7.46985e-008 -4.10842e-008 7.84334e-008 -3.36143e-008 8.21683e-008 -3.36143e-008 8.21683e-008 -2.98794e-008 8.21683e-008 -2.24095e-008 8.59032e-008 -1.86746e-008 8.96382e-008 -1.49397e-008 8.59032e-008 -1.49397e-008 9.33731e-008 -3.73492e-009 8.96382e-008 -3.73492e-009 8.96382e-008 3.73492e-009 9.33731e-008 3.73492e-009 8.59032e-008 1.49397e-008 8.96382e-008 1.49397e-008 8.59032e-008 1.86746e-008 8.21683e-008 2.24095e-008 8.21683e-008 2.98794e-008 8.21683e-008 3.36143e-008 7.84334e-008 3.36143e-008 7.46985e-008 4.10842e-008 7.46985e-008 4.10842e-008 7.46985e-008 4.8554e-008 6.72286e-008 4.8554e-008 6.72286e-008 5.22889e-008 6.72286e-008 5.60239e-008 5.97588e-008 5.97588e-008 5.97588e-008 5.97588e-008 5.60239e-008 6.72286e-008 5.22889e-008 6.72286e-008 4.8554e-008 6.72286e-008 4.8554e-008 7.46985e-008 4.10842e-008 7.46985e-008 4.10842e-008 7.46985e-008 3.36143e-008 7.84334e-008 3.36143e-008 8.21683e-008 2.98794e-008 8.21683e-008 2.24095e-008 8.21683e-008 1.86746e-008 8.59032e-008 1.49397e-008 8.96382e-008 1.49397e-008 8.59032e-008 3.73492e-009 9.33731e-008 3.73492e-009 8.96382e-008zm3.49215e-006 1.77409e-006l-5.26998e-006 0 0 -3.54818e-006 5.26998e-006 0 0 3.54818e-006zm0 0l0 -3.54818e-006 8.96382e-008 3.73492e-009 9.33731e-008 3.73492e-009 8.59032e-008 1.12048e-008 8.96382e-008 1.86746e-008 8.59032e-008 1.86746e-008 8.21683e-008 2.24095e-008 8.21683e-008 2.98794e-008 8.21683e-008 2.98794e-008 7.84334e-008 3.73492e-008 7.46985e-008 3.73492e-008 7.46985e-008 4.48191e-008 7.09636e-008 4.48191e-008 7.09636e-008 4.8554e-008 6.72286e-008 5.60239e-008 6.34937e-008 5.60239e-008 6.34937e-008 5.60239e-008 5.60239e-008 6.34937e-008 5.60239e-008 6.34937e-008 5.60239e-008 6.72286e-008 4.8554e-008 7.09636e-008 4.48191e-008 7.09636e-008 4.48191e-008 7.46985e-008 3.73492e-008 7.46985e-008 3.73492e-008 7.84334e-008 2.98794e-008 8.21683e-008 2.98794e-008 8.21683e-008 2.24095e-008 8.21683e-008 1.86746e-008 8.59032e-008 1.86746e-008 8.96382e-008 1.12048e-008 8.59032e-008 3.73492e-009 9.33731e-008 3.73492e-009 8.96382e-008 -3.73492e-009 8.96382e-008 -3.73492e-009 9.33731e-008 -1.12048e-008 8.59032e-008 -1.86746e-008 8.96382e-008 -1.86746e-008 8.59032e-008 -2.24095e-008 8.21683e-008 -2.98794e-008 8.21683e-008 -2.98794e-008 8.21683e-008 -3.73492e-008 7.84334e-008 -3.73492e-008 7.46985e-008 -4.48191e-008 7.46985e-008 -4.48191e-008 7.09636e-008 -4.8554e-008 7.09636e-008 -5.60239e-008 6.72286e-008 -5.60239e-008 6.34937e-008 -5.60239e-008 6.34937e-008 -6.34937e-008 5.60239e-008 -6.34937e-008 5.60239e-008 -6.72286e-008 5.60239e-008 -7.09636e-008 4.8554e-008 -7.09636e-008 4.48191e-008 -7.46985e-008 4.48191e-008 -7.46985e-008 3.73492e-008 -7.84334e-008 3.73492e-008 -8.21683e-008 2.98794e-008 -8.21683e-008 2.98794e-008 -8.21683e-008 2.24095e-008 -8.59032e-008 1.86746e-008 -8.96382e-008 1.86746e-008 -8.59032e-008 1.12048e-008 -9.33731e-008 3.73492e-009 -8.96382e-008 3.73492e-009zm-4.63131e-007 -3.23743e-005l-2.01686e-006 2.92071e-006 -7.46985e-008 -5.22889e-008 -6.72286e-008 -5.97588e-008 -6.72286e-008 -5.97588e-008 -6.34937e-008 -5.97588e-008 -5.97588e-008 -6.72286e-008 -5.60239e-008 -6.72286e-008 -5.22889e-008 -7.09636e-008 -4.8554e-008 -7.09636e-008 -4.10842e-008 -7.46985e-008 -4.10842e-008 -7.46985e-008 -3.73492e-008 -7.84334e-008 -3.36143e-008 -7.84334e-008 -2.98794e-008 -7.84334e-008 -2.61445e-008 -8.21683e-008 -1.86746e-008 -8.21683e-008 -1.86746e-008 -8.59032e-008 -1.49397e-008 -8.21683e-008 -7.46985e-009 -8.59032e-008 -7.46985e-009 -8.59032e-008 0 -8.59032e-008 3.73492e-009 -8.59032e-008 7.46985e-009 -8.21683e-008 1.12048e-008 -8.59032e-008 1.49397e-008 -8.59032e-008 1.86746e-008 -8.59032e-008 2.24095e-008 -8.21683e-008 2.98794e-008 -8.21683e-008 3.36143e-008 -8.21683e-008 3.36143e-008 -8.21683e-008 4.10842e-008 -7.84334e-008 4.8554e-008 -7.84334e-008 4.8554e-008 -7.46985e-008 5.22889e-008 -7.46985e-008 5.97588e-008 -6.72286e-008 5.97588e-008 -6.72286e-008 5.97588e-008 -6.34937e-008 6.72286e-008 -5.97588e-008 6.72286e-008 -5.60239e-008 7.09636e-008 -5.22889e-008 7.09636e-008 -4.8554e-008 7.46985e-008 -4.10842e-008 7.46985e-008 -4.10842e-008 7.84334e-008 -3.73492e-008 7.84334e-008 -3.36143e-008 7.84334e-008 -2.98794e-008 8.21683e-008 -2.61445e-008 8.21683e-008 -1.86746e-008 8.59032e-008 -1.86746e-008 8.21683e-008 -1.49397e-008 8.59032e-008 -7.46985e-009 8.59032e-008 -7.46985e-009 8.59032e-008 0 8.59032e-008 3.73492e-009 8.21683e-008 7.46985e-009 8.59032e-008 1.12048e-008 8.59032e-008 1.49397e-008 8.59032e-008 1.86746e-008 8.21683e-008 2.24095e-008 8.21683e-008 2.98794e-008 8.21683e-008 3.36143e-008 8.21683e-008 3.36143e-008 7.84334e-008 4.10842e-008 7.84334e-008 4.8554e-008 7.46985e-008 4.8554e-008zm2.87514e-005 2.36981e-005l-1.00843e-006 -3.17469e-007 -2.97599e-005 -2.04599e-005 2.01686e-006 -2.92071e-006 2.97599e-005 2.04599e-005 -1.00843e-006 3.23818e-006zm-1.00843e-006 -3.17469e-007l2.01686e-006 -2.92071e-006 7.46985e-008 5.22889e-008 6.72286e-008 5.97588e-008 6.72286e-008 5.97588e-008 6.34937e-008 5.97588e-008 5.97588e-008 6.72286e-008 5.60239e-008 6.72286e-008 5.22889e-008 7.09636e-008 4.8554e-008 7.09636e-008 4.10842e-008 7.46985e-008 4.10842e-008 7.46985e-008 3.73492e-008 7.84334e-008 3.36143e-008 7.84334e-008 2.98794e-008 7.84334e-008 2.61445e-008 8.21683e-008 1.86746e-008 8.21683e-008 1.86746e-008 8.59032e-008 1.49397e-008 8.21683e-008 7.46985e-009 8.59032e-008 7.46985e-009 8.59032e-008 0 8.59032e-008 -3.73492e-009 8.59032e-008 -7.46985e-009 8.21683e-008 -1.12048e-008 8.59032e-008 -1.49397e-008 8.59032e-008 -1.86746e-008 8.59032e-008 -2.24095e-008 8.21683e-008 -2.98794e-008 8.21683e-008 -3.36143e-008 8.21683e-008 -3.36143e-008 8.21683e-008 -4.10842e-008 7.84334e-008 -4.8554e-008 7.84334e-008 -4.8554e-008 7.46985e-008 -5.22889e-008 7.46985e-008 -5.97588e-008 6.72286e-008 -5.97588e-008 6.72286e-008 -5.97588e-008 6.34937e-008 -6.72286e-008 5.97588e-008 -6.72286e-008 5.60239e-008 -7.09636e-008 5.22889e-008 -7.09636e-008 4.8554e-008 -7.46985e-008 4.10842e-008 -7.46985e-008 4.10842e-008 -7.84334e-008 3.73492e-008 -7.84334e-008 3.36143e-008 -7.84334e-008 2.98794e-008 -8.21683e-008 2.61445e-008 -8.21683e-008 1.86746e-008 -8.59032e-008 1.86746e-008 -8.21683e-008 1.49397e-008 -8.59032e-008 7.46985e-009 -8.59032e-008 7.46985e-009 -8.59032e-008 0 -8.59032e-008 -3.73492e-009 -8.21683e-008 -7.46985e-009 -8.59032e-008 -1.12048e-008 -8.59032e-008 -1.49397e-008 -8.59032e-008 -1.86746e-008 -8.21683e-008 -2.24095e-008 -8.21683e-008 -2.98794e-008 -8.21683e-008 -3.36143e-008 -8.21683e-008 -3.36143e-008 -7.84334e-008 -4.10842e-008 -7.84334e-008 -4.8554e-008 -7.46985e-008 -4.8554e-008zm-1.22393e-005 -1.46036e-006l1.77782e-006 -1.77782e-006 1.147e-005 0 0 3.55565e-006 -1.147e-005 0 -1.77782e-006 -1.77782e-006zm1.77782e-006 -1.77782e-006l0 3.55565e-006 -8.96382e-008 -3.73492e-009 -9.33731e-008 -3.73492e-009 -8.59032e-008 -1.49397e-008 -8.96382e-008 -1.49397e-008 -8.59032e-008 -1.86746e-008 -8.21683e-008 -2.24095e-008 -8.21683e-008 -2.98794e-008 -8.21683e-008 -3.36143e-008 -7.84334e-008 -3.36143e-008 -7.46985e-008 -4.10842e-008 -7.46985e-008 -4.10842e-008 -7.46985e-008 -4.8554e-008 -6.72286e-008 -4.8554e-008 -6.72286e-008 -5.22889e-008 -6.72286e-008 -5.60239e-008 -5.97588e-008 -5.97588e-008 -5.97588e-008 -5.97588e-008 -5.60239e-008 -6.72286e-008 -5.22889e-008 -6.72286e-008 -4.8554e-008 -6.72286e-008 -4.8554e-008 -7.46985e-008 -4.10842e-008 -7.46985e-008 -4.10842e-008 -7.46985e-008 -3.36143e-008 -7.84334e-008 -3.36143e-008 -8.21683e-008 -2.98794e-008 -8.21683e-008 -2.24095e-008 -8.21683e-008 -1.86746e-008 -8.59032e-008 -1.49397e-008 -8.96382e-008 -1.49397e-008 -8.59032e-008 -3.73492e-009 -9.33731e-008 -3.73492e-009 -8.96382e-008 3.73492e-009 -8.96382e-008 3.73492e-009 -9.33731e-008 1.49397e-008 -8.59032e-008 1.49397e-008 -8.96382e-008 1.86746e-008 -8.59032e-008 2.24095e-008 -8.21683e-008 2.98794e-008 -8.21683e-008 3.36143e-008 -8.21683e-008 3.36143e-008 -7.84334e-008 4.10842e-008 -7.46985e-008 4.10842e-008 -7.46985e-008 4.8554e-008 -7.46985e-008 4.8554e-008 -6.72286e-008 5.22889e-008 -6.72286e-008 5.60239e-008 -6.72286e-008 5.97588e-008 -5.97588e-008 5.97588e-008 -5.97588e-008 6.72286e-008 -5.60239e-008 6.72286e-008 -5.22889e-008 6.72286e-008 -4.8554e-008 7.46985e-008 -4.8554e-008 7.46985e-008 -4.10842e-008 7.46985e-008 -4.10842e-008 7.84334e-008 -3.36143e-008 8.21683e-008 -3.36143e-008 8.21683e-008 -2.98794e-008 8.21683e-008 -2.24095e-008 8.59032e-008 -1.86746e-008 8.96382e-008 -1.49397e-008 8.59032e-008 -1.49397e-008 9.33731e-008 -3.73492e-009 8.96382e-008 -3.73492e-009zm0 2.55693e-005l-1.77782e-006 -1.77782e-006 0 -2.20136e-005 3.55565e-006 0 0 2.20136e-005 -1.77782e-006 1.77782e-006zm-1.77782e-006 -1.77782e-006l3.55565e-006 0 -3.73492e-009 8.96382e-008 -3.73492e-009 9.33731e-008 -1.49397e-008 8.59032e-008 -1.49397e-008 8.96382e-008 -1.86746e-008 8.59032e-008 -2.24095e-008 8.21683e-008 -2.98794e-008 8.21683e-008 -3.36143e-008 8.21683e-008 -3.36143e-008 7.84334e-008 -4.10842e-008 7.46985e-008 -4.10842e-008 7.46985e-008 -4.8554e-008 7.46985e-008 -4.8554e-008 6.72286e-008 -5.22889e-008 6.72286e-008 -5.60239e-008 6.72286e-008 -5.97588e-008 5.97588e-008 -5.97588e-008 5.97588e-008 -6.72286e-008 5.60239e-008 -6.72286e-008 5.22889e-008 -6.72286e-008 4.8554e-008 -7.46985e-008 4.8554e-008 -7.46985e-008 4.10842e-008 -7.46985e-008 4.10842e-008 -7.84334e-008 3.36143e-008 -8.21683e-008 3.36143e-008 -8.21683e-008 2.98794e-008 -8.21683e-008 2.24095e-008 -8.59032e-008 1.86746e-008 -8.96382e-008 1.49397e-008 -8.59032e-008 1.49397e-008 -9.33731e-008 3.73492e-009 -8.96382e-008 3.73492e-009 -8.96382e-008 -3.73492e-009 -9.33731e-008 -3.73492e-009 -8.59032e-008 -1.49397e-008 -8.96382e-008 -1.49397e-008 -8.59032e-008 -1.86746e-008 -8.21683e-008 -2.24095e-008 -8.21683e-008 -2.98794e-008 -8.21683e-008 -3.36143e-008 -7.84334e-008 -3.36143e-008 -7.46985e-008 -4.10842e-008 -7.46985e-008 -4.10842e-008 -7.46985e-008 -4.8554e-008 -6.72286e-008 -4.8554e-008 -6.72286e-008 -5.22889e-008 -6.72286e-008 -5.60239e-008 -5.97588e-008 -5.97588e-008 -5.97588e-008 -5.97588e-008 -5.60239e-008 -6.72286e-008 -5.22889e-008 -6.72286e-008 -4.8554e-008 -6.72286e-008 -4.8554e-008 -7.46985e-008 -4.10842e-008 -7.46985e-008 -4.10842e-008 -7.46985e-008 -3.36143e-008 -7.84334e-008 -3.36143e-008 -8.21683e-008 -2.98794e-008 -8.21683e-008 -2.24095e-008 -8.21683e-008 -1.86746e-008 -8.59032e-008 -1.49397e-008 -8.96382e-008 -1.49397e-008 -8.59032e-008 -3.73492e-009 -9.33731e-008 -3.73492e-009 -8.96382e-008zm-1.42599e-005 0l1.77782e-006 -1.77782e-006 1.42599e-005 0 0 3.55565e-006 -1.42599e-005 0 -1.77782e-006 -1.77782e-006zm1.77782e-006 -1.77782e-006l0 3.55565e-006 -8.96382e-008 -3.73492e-009 -9.33731e-008 -3.73492e-009 -8.59032e-008 -1.49397e-008 -8.96382e-008 -1.49397e-008 -8.59032e-008 -1.86746e-008 -8.21683e-008 -2.24095e-008 -8.21683e-008 -2.98794e-008 -8.21683e-008 -3.36143e-008 -7.84334e-008 -3.36143e-008 -7.46985e-008 -4.10842e-008 -7.46985e-008 -4.10842e-008 -7.46985e-008 -4.8554e-008 -6.72286e-008 -4.8554e-008 -6.72286e-008 -5.22889e-008 -6.72286e-008 -5.60239e-008 -5.97588e-008 -5.97588e-008 -5.97588e-008 -5.97588e-008 -5.60239e-008 -6.72286e-008 -5.22889e-008 -6.72286e-008 -4.8554e-008 -6.72286e-008 -4.8554e-008 -7.46985e-008 -4.10842e-008 -7.46985e-008 -4.10842e-008 -7.46985e-008 -3.36143e-008 -7.84334e-008 -3.36143e-008 -8.21683e-008 -2.98794e-008 -8.21683e-008 -2.24095e-008 -8.21683e-008 -1.86746e-008 -8.59032e-008 -1.49397e-008 -8.96382e-008 -1.49397e-008 -8.59032e-008 -3.73492e-009 -9.33731e-008 -3.73492e-009 -8.96382e-008 3.73492e-009 -8.96382e-008 3.73492e-009 -9.33731e-008 1.49397e-008 -8.59032e-008 1.49397e-008 -8.96382e-008 1.86746e-008 -8.59032e-008 2.24095e-008 -8.21683e-008 2.98794e-008 -8.21683e-008 3.36143e-008 -8.21683e-008 3.36143e-008 -7.84334e-008 4.10842e-008 -7.46985e-008 4.10842e-008 -7.46985e-008 4.8554e-008 -7.46985e-008 4.8554e-008 -6.72286e-008 5.22889e-008 -6.72286e-008 5.60239e-008 -6.72286e-008 5.97588e-008 -5.97588e-008 5.97588e-008 -5.97588e-008 6.72286e-008 -5.60239e-008 6.72286e-008 -5.22889e-008 6.72286e-008 -4.8554e-008 7.46985e-008 -4.8554e-008 7.46985e-008 -4.10842e-008 7.46985e-008 -4.10842e-008 7.84334e-008 -3.36143e-008 8.21683e-008 -3.36143e-008 8.21683e-008 -2.98794e-008 8.21683e-008 -2.24095e-008 8.59032e-008 -1.86746e-008 8.96382e-008 -1.49397e-008 8.59032e-008 -1.49397e-008 9.33731e-008 -3.73492e-009 8.96382e-008 -3.73492e-009zm0 -1.33299e-005l1.77782e-006 1.77409e-006 0 1.33337e-005 -3.55565e-006 0 0 -1.33337e-005 1.77782e-006 -1.77409e-006zm1.77782e-006 1.77409e-006l-3.55565e-006 0 3.73492e-009 -8.96382e-008 3.73492e-009 -9.33731e-008 1.49397e-008 -8.59032e-008 1.49397e-008 -8.96382e-008 1.86746e-008 -8.59032e-008 2.24095e-008 -8.21683e-008 2.98794e-008 -8.21683e-008 3.36143e-008 -8.21683e-008 3.36143e-008 -7.84334e-008 4.10842e-008 -7.46985e-008 4.10842e-008 -7.46985e-008 4.8554e-008 -7.46985e-008 4.8554e-008 -6.72286e-008 5.22889e-008 -6.72286e-008 5.60239e-008 -6.72286e-008 5.97588e-008 -5.97588e-008 5.97588e-008 -5.97588e-008 6.72286e-008 -5.60239e-008 6.72286e-008 -5.22889e-008 6.72286e-008 -4.8554e-008 7.46985e-008 -4.8554e-008 7.46985e-008 -4.10842e-008 7.46985e-008 -4.10842e-008 7.84334e-008 -3.36143e-008 8.21683e-008 -3.36143e-008 8.21683e-008 -2.98794e-008 8.21683e-008 -2.24095e-008 8.59032e-008 -1.86746e-008 8.96382e-008 -1.49397e-008 8.59032e-008 -1.49397e-008 9.33731e-008 -3.73492e-009 8.96382e-008 -3.73492e-009 8.96382e-008 3.73492e-009 9.33731e-008 3.73492e-009 8.59032e-008 1.49397e-008 8.96382e-008 1.49397e-008 8.59032e-008 1.86746e-008 8.21683e-008 2.24095e-008 8.21683e-008 2.98794e-008 8.21683e-008 3.36143e-008 7.84334e-008 3.36143e-008 7.46985e-008 4.10842e-008 7.46985e-008 4.10842e-008 7.46985e-008 4.8554e-008 6.72286e-008 4.8554e-008 6.72286e-008 5.22889e-008 6.72286e-008 5.60239e-008 5.97588e-008 5.97588e-008 5.97588e-008 5.97588e-008 5.60239e-008 6.72286e-008 5.22889e-008 6.72286e-008 4.8554e-008 6.72286e-008 4.8554e-008 7.46985e-008 4.10842e-008 7.46985e-008 4.10842e-008 7.46985e-008 3.36143e-008 7.84334e-008 3.36143e-008 8.21683e-008 2.98794e-008 8.21683e-008 2.24095e-008 8.21683e-008 1.86746e-008 8.59032e-008 1.49397e-008 8.96382e-008 1.49397e-008 8.59032e-008 3.73492e-009 9.33731e-008 3.73492e-009 8.96382e-008zm-7.0478e-006 -1.77409e-006l5.26998e-006 0 0 3.54818e-006 -5.26998e-006 0 0 -3.54818e-006zm0 0l0 3.54818e-006 -8.96382e-008 -3.73492e-009 -9.33731e-008 -3.73492e-009 -8.59032e-008 -1.12048e-008 -8.96382e-008 -1.86746e-008 -8.59032e-008 -1.86746e-008 -8.21683e-008 -2.24095e-008 -8.21683e-008 -2.98794e-008 -8.21683e-008 -2.98794e-008 -7.84334e-008 -3.73492e-008 -7.46985e-008 -3.73492e-008 -7.46985e-008 -4.48191e-008 -7.09636e-008 -4.48191e-008 -7.09636e-008 -4.8554e-008 -6.72286e-008 -5.60239e-008 -6.34937e-008 -5.60239e-008 -6.34937e-008 -5.60239e-008 -5.60239e-008 -6.34937e-008 -5.60239e-008 -6.34937e-008 -5.60239e-008 -6.72286e-008 -4.8554e-008 -7.09636e-008 -4.48191e-008 -7.09636e-008 -4.48191e-008 -7.46985e-008 -3.73492e-008 -7.46985e-008 -3.73492e-008 -7.84334e-008 -2.98794e-008 -8.21683e-008 -2.98794e-008 -8.21683e-008 -2.24095e-008 -8.21683e-008 -1.86746e-008 -8.59032e-008 -1.86746e-008 -8.96382e-008 -1.12048e-008 -8.59032e-008 -3.73492e-009 -9.33731e-008 -3.73492e-009 -8.96382e-008 3.73492e-009 -8.96382e-008 3.73492e-009 -9.33731e-008 1.12048e-008 -8.59032e-008 1.86746e-008 -8.96382e-008 1.86746e-008 -8.59032e-008 2.24095e-008 -8.21683e-008 2.98794e-008 -8.21683e-008 2.98794e-008 -8.21683e-008 3.73492e-008 -7.84334e-008 3.73492e-008 -7.46985e-008 4.48191e-008 -7.46985e-008 4.48191e-008 -7.09636e-008 4.8554e-008 -7.09636e-008 5.60239e-008 -6.72286e-008 5.60239e-008 -6.34937e-008 5.60239e-008 -6.34937e-008 6.34937e-008 -5.60239e-008 6.34937e-008 -5.60239e-008 6.72286e-008 -5.60239e-008 7.09636e-008 -4.8554e-008 7.09636e-008 -4.48191e-008 7.46985e-008 -4.48191e-008 7.46985e-008 -3.73492e-008 7.84334e-008 -3.73492e-008 8.21683e-008 -2.98794e-008 8.21683e-008 -2.98794e-008 8.21683e-008 -2.24095e-008 8.59032e-008 -1.86746e-008 8.96382e-008 -1.86746e-008 8.59032e-008 -1.12048e-008 9.33731e-008 -3.73492e-009 8.96382e-008 -3.73492e-009z"/>
  </g>
 </g>
</svg>
