<?xml version="1.0" encoding="UTF-8"?>
<!DOCTYPE svg PUBLIC "-//W3C//DTD SVG 1.1//EN" "http://www.w3.org/Graphics/SVG/1.1/DTD/svg11.dtd">
<!-- Creator: CorelDRAW -->
<svg xmlns="http://www.w3.org/2000/svg" xml:space="preserve" width="0.0640079in" height="0.0439213in" style="shape-rendering:geometricPrecision; text-rendering:geometricPrecision; image-rendering:optimizeQuality; fill-rule:evenodd; clip-rule:evenodd"
viewBox="0 0 5.89674e-005 4.04625e-005"
 xmlns:xlink="http://www.w3.org/1999/xlink">
 <defs>
  <style type="text/css">
   <![CDATA[
    .fil1 {fill:#838281}
    .fil0 {fill:#838281;fill-rule:nonzero}
   ]]>
  </style>
 </defs>
 <g id="Layer_x0020_1">
  <metadata id="CorelCorpID_0Corel-Layer"/>
  <g id="_154330192">
   <g>
    <path id="_154330768" class="fil0" d="M5.89674e-005 2.36116e-006l-2.35753e-006 2.35753e-006 -5.42559e-005 0 0 -4.71507e-006 5.42559e-005 0 2.35753e-006 2.35753e-006zm-2.35753e-006 2.35753e-006l0 -4.71507e-006 1.1969e-007 3.62698e-009 1.1969e-007 7.25395e-009 1.1969e-007 1.81349e-008 1.16063e-007 1.81349e-008 1.12436e-007 2.90158e-008 1.12436e-007 2.90158e-008 1.08809e-007 3.98967e-008 1.08809e-007 3.98967e-008 1.01555e-007 4.71507e-008 1.01555e-007 5.44046e-008 1.01555e-007 5.44046e-008 9.43014e-008 6.16586e-008 9.06744e-008 6.52856e-008 9.06744e-008 7.25395e-008 8.70474e-008 7.25395e-008 7.97935e-008 7.97935e-008 7.97935e-008 7.97935e-008 7.25395e-008 8.70474e-008 7.25395e-008 9.06744e-008 6.52856e-008 9.06744e-008 6.16586e-008 9.43014e-008 5.44046e-008 1.01555e-007 5.44046e-008 1.01555e-007 4.71507e-008 1.01555e-007 3.98967e-008 1.08809e-007 3.98967e-008 1.08809e-007 2.90158e-008 1.12436e-007 2.90158e-008 1.12436e-007 1.81349e-008 1.16063e-007 1.81349e-008 1.1969e-007 7.25395e-009 1.1969e-007 3.62698e-009 1.1969e-007 -3.62698e-009 1.1969e-007 -7.25395e-009 1.1969e-007 -1.81349e-008 1.1969e-007 -1.81349e-008 1.16063e-007 -2.90158e-008 1.12436e-007 -2.90158e-008 1.12436e-007 -3.98967e-008 1.08809e-007 -3.98967e-008 1.08809e-007 -4.71507e-008 1.01555e-007 -5.44046e-008 1.01555e-007 -5.44046e-008 1.01555e-007 -6.16586e-008 9.43014e-008 -6.52856e-008 9.06744e-008 -7.25395e-008 9.06744e-008 -7.25395e-008 8.70474e-008 -7.97935e-008 7.97935e-008 -7.97935e-008 7.97935e-008 -8.70474e-008 7.25395e-008 -9.06744e-008 7.25395e-008 -9.06744e-008 6.52856e-008 -9.43014e-008 6.16586e-008 -1.01555e-007 5.44046e-008 -1.01555e-007 5.44046e-008 -1.01555e-007 4.71507e-008 -1.08809e-007 3.98967e-008 -1.08809e-007 3.98967e-008 -1.12436e-007 2.90158e-008 -1.12436e-007 2.90158e-008 -1.16063e-007 1.81349e-008 -1.1969e-007 1.81349e-008 -1.1969e-007 7.25395e-009 -1.1969e-007 3.62698e-009zm0 3.57475e-005l-2.35753e-006 -2.35753e-006 0 -3.57475e-005 4.71507e-006 0 0 3.57475e-005 -2.35753e-006 2.35753e-006zm-2.35753e-006 -2.35753e-006l4.71507e-006 0 -3.62698e-009 1.1969e-007 -7.25395e-009 1.1969e-007 -1.81349e-008 1.1969e-007 -1.81349e-008 1.16063e-007 -2.90158e-008 1.12436e-007 -2.90158e-008 1.12436e-007 -3.98967e-008 1.08809e-007 -3.98967e-008 1.08809e-007 -4.71507e-008 1.01555e-007 -5.44046e-008 1.01555e-007 -5.44046e-008 1.01555e-007 -6.16586e-008 9.43014e-008 -6.52856e-008 9.06744e-008 -7.25395e-008 9.06744e-008 -7.25395e-008 8.70474e-008 -7.97935e-008 7.97935e-008 -7.97935e-008 7.97935e-008 -8.70474e-008 7.25395e-008 -9.06744e-008 7.25395e-008 -9.06744e-008 6.52856e-008 -9.43014e-008 6.16586e-008 -1.01555e-007 5.44046e-008 -1.01555e-007 5.44046e-008 -1.01555e-007 4.71507e-008 -1.08809e-007 3.98967e-008 -1.08809e-007 3.98967e-008 -1.12436e-007 2.90158e-008 -1.12436e-007 2.90158e-008 -1.16063e-007 1.81349e-008 -1.1969e-007 1.81349e-008 -1.1969e-007 7.25395e-009 -1.1969e-007 3.62698e-009 -1.1969e-007 -3.62698e-009 -1.1969e-007 -7.25395e-009 -1.1969e-007 -1.81349e-008 -1.16063e-007 -1.81349e-008 -1.12436e-007 -2.90158e-008 -1.12436e-007 -2.90158e-008 -1.08809e-007 -3.98967e-008 -1.08809e-007 -3.98967e-008 -1.01555e-007 -4.71507e-008 -1.01555e-007 -5.44046e-008 -1.01555e-007 -5.44046e-008 -9.43014e-008 -6.16586e-008 -9.06744e-008 -6.52856e-008 -9.06744e-008 -7.25395e-008 -8.70474e-008 -7.25395e-008 -7.97935e-008 -7.97935e-008 -7.97935e-008 -7.97935e-008 -7.25395e-008 -8.70474e-008 -7.25395e-008 -9.06744e-008 -6.52856e-008 -9.06744e-008 -6.16586e-008 -9.43014e-008 -5.44046e-008 -1.01555e-007 -5.44046e-008 -1.01555e-007 -4.71507e-008 -1.01555e-007 -3.98967e-008 -1.08809e-007 -3.98967e-008 -1.08809e-007 -2.90158e-008 -1.12436e-007 -2.90158e-008 -1.12436e-007 -1.81349e-008 -1.16063e-007 -1.81349e-008 -1.1969e-007 -7.25395e-009 -1.1969e-007 -3.62698e-009 -1.1969e-007zm-5.42559e-005 0l2.35753e-006 -2.35753e-006 5.42559e-005 0 0 4.71507e-006 -5.42559e-005 0 -2.35753e-006 -2.35753e-006zm2.35753e-006 -2.35753e-006l0 4.71507e-006 -1.1969e-007 -3.62698e-009 -1.1969e-007 -7.25395e-009 -1.1969e-007 -1.81349e-008 -1.16063e-007 -1.81349e-008 -1.12436e-007 -2.90158e-008 -1.12436e-007 -2.90158e-008 -1.08809e-007 -3.98967e-008 -1.08809e-007 -3.98967e-008 -1.01555e-007 -4.71507e-008 -1.01555e-007 -5.44046e-008 -1.01555e-007 -5.44046e-008 -9.43014e-008 -6.16586e-008 -9.06744e-008 -6.52856e-008 -9.06744e-008 -7.25395e-008 -8.70474e-008 -7.25395e-008 -7.97935e-008 -7.97935e-008 -7.97935e-008 -7.97935e-008 -7.25395e-008 -8.70474e-008 -7.25395e-008 -9.06744e-008 -6.52856e-008 -9.06744e-008 -6.16586e-008 -9.43014e-008 -5.44046e-008 -1.01555e-007 -5.44046e-008 -1.01555e-007 -4.71507e-008 -1.01555e-007 -3.98967e-008 -1.08809e-007 -3.98967e-008 -1.08809e-007 -2.90158e-008 -1.12436e-007 -2.90158e-008 -1.12436e-007 -1.81349e-008 -1.16063e-007 -1.81349e-008 -1.1969e-007 -7.25395e-009 -1.1969e-007 -3.62698e-009 -1.1969e-007 3.62698e-009 -1.1969e-007 7.25395e-009 -1.1969e-007 1.81349e-008 -1.1969e-007 1.81349e-008 -1.16063e-007 2.90158e-008 -1.12436e-007 2.90158e-008 -1.12436e-007 3.98967e-008 -1.08809e-007 3.98967e-008 -1.08809e-007 4.71507e-008 -1.01555e-007 5.44046e-008 -1.01555e-007 5.44046e-008 -1.01555e-007 6.16586e-008 -9.43014e-008 6.52856e-008 -9.06744e-008 7.25395e-008 -9.06744e-008 7.25395e-008 -8.70474e-008 7.97935e-008 -7.97935e-008 7.97935e-008 -7.97935e-008 8.70474e-008 -7.25395e-008 9.06744e-008 -7.25395e-008 9.06744e-008 -6.52856e-008 9.43014e-008 -6.16586e-008 1.01555e-007 -5.44046e-008 1.01555e-007 -5.44046e-008 1.01555e-007 -4.71507e-008 1.08809e-007 -3.98967e-008 1.08809e-007 -3.98967e-008 1.12436e-007 -2.90158e-008 1.12436e-007 -2.90158e-008 1.16063e-007 -1.81349e-008 1.1969e-007 -1.81349e-008 1.1969e-007 -7.25395e-009 1.1969e-007 -3.62698e-009zm0 -3.57475e-005l2.35753e-006 2.35753e-006 0 3.57475e-005 -4.71507e-006 0 0 -3.57475e-005 2.35753e-006 -2.35753e-006zm2.35753e-006 2.35753e-006l-4.71507e-006 0 3.62698e-009 -1.1969e-007 7.25395e-009 -1.1969e-007 1.81349e-008 -1.1969e-007 1.81349e-008 -1.16063e-007 2.90158e-008 -1.12436e-007 2.90158e-008 -1.12436e-007 3.98967e-008 -1.08809e-007 3.98967e-008 -1.08809e-007 4.71507e-008 -1.01555e-007 5.44046e-008 -1.01555e-007 5.44046e-008 -1.01555e-007 6.16586e-008 -9.43014e-008 6.52856e-008 -9.06744e-008 7.25395e-008 -9.06744e-008 7.25395e-008 -8.70474e-008 7.97935e-008 -7.97935e-008 7.97935e-008 -7.97935e-008 8.70474e-008 -7.25395e-008 9.06744e-008 -7.25395e-008 9.06744e-008 -6.52856e-008 9.43014e-008 -6.16586e-008 1.01555e-007 -5.44046e-008 1.01555e-007 -5.44046e-008 1.01555e-007 -4.71507e-008 1.08809e-007 -3.98967e-008 1.08809e-007 -3.98967e-008 1.12436e-007 -2.90158e-008 1.12436e-007 -2.90158e-008 1.16063e-007 -1.81349e-008 1.1969e-007 -1.81349e-008 1.1969e-007 -7.25395e-009 1.1969e-007 -3.62698e-009 1.1969e-007 3.62698e-009 1.1969e-007 7.25395e-009 1.1969e-007 1.81349e-008 1.16063e-007 1.81349e-008 1.12436e-007 2.90158e-008 1.12436e-007 2.90158e-008 1.08809e-007 3.98967e-008 1.08809e-007 3.98967e-008 1.01555e-007 4.71507e-008 1.01555e-007 5.44046e-008 1.01555e-007 5.44046e-008 9.43014e-008 6.16586e-008 9.06744e-008 6.52856e-008 9.06744e-008 7.25395e-008 8.70474e-008 7.25395e-008 7.97935e-008 7.97935e-008 7.97935e-008 7.97935e-008 7.25395e-008 8.70474e-008 7.25395e-008 9.06744e-008 6.52856e-008 9.06744e-008 6.16586e-008 9.43014e-008 5.44046e-008 1.01555e-007 5.44046e-008 1.01555e-007 4.71507e-008 1.01555e-007 3.98967e-008 1.08809e-007 3.98967e-008 1.08809e-007 2.90158e-008 1.12436e-007 2.90158e-008 1.12436e-007 1.81349e-008 1.16063e-007 1.81349e-008 1.1969e-007 7.25395e-009 1.1969e-007 3.62698e-009 1.1969e-007z"/>
   </g>
   <g>
    <path class="fil0" d="M2.09675e-005 2.60344e-005l-2.35753e-006 -2.35753e-006 0 -2.13157e-005 4.71507e-006 0 0 2.13157e-005 -2.35753e-006 2.35753e-006zm-2.35753e-006 -2.35753e-006l4.71507e-006 0 -3.62698e-009 1.1969e-007 -7.25395e-009 1.1969e-007 -1.81349e-008 1.1969e-007 -1.81349e-008 1.16063e-007 -2.90158e-008 1.12436e-007 -2.90158e-008 1.12436e-007 -3.98967e-008 1.08809e-007 -3.98967e-008 1.08809e-007 -4.71507e-008 1.01555e-007 -5.44046e-008 1.01555e-007 -5.44046e-008 1.01555e-007 -6.16586e-008 9.43014e-008 -6.52856e-008 9.06744e-008 -7.25395e-008 9.06744e-008 -7.25395e-008 8.70474e-008 -7.97935e-008 7.97935e-008 -7.97935e-008 7.97935e-008 -8.70474e-008 7.25395e-008 -9.06744e-008 7.25395e-008 -9.06744e-008 6.52856e-008 -9.43014e-008 6.16586e-008 -1.01555e-007 5.44046e-008 -1.01555e-007 5.44046e-008 -1.01555e-007 4.71507e-008 -1.08809e-007 3.98967e-008 -1.08809e-007 3.98967e-008 -1.12436e-007 2.90158e-008 -1.12436e-007 2.90158e-008 -1.16063e-007 1.81349e-008 -1.1969e-007 1.81349e-008 -1.1969e-007 7.25395e-009 -1.1969e-007 3.62698e-009 -1.1969e-007 -3.62698e-009 -1.1969e-007 -7.25395e-009 -1.1969e-007 -1.81349e-008 -1.16063e-007 -1.81349e-008 -1.12436e-007 -2.90158e-008 -1.12436e-007 -2.90158e-008 -1.08809e-007 -3.98967e-008 -1.08809e-007 -3.98967e-008 -1.01555e-007 -4.71507e-008 -1.01555e-007 -5.44046e-008 -1.01555e-007 -5.44046e-008 -9.43014e-008 -6.16586e-008 -9.06744e-008 -6.52856e-008 -9.06744e-008 -7.25395e-008 -8.70474e-008 -7.25395e-008 -7.97935e-008 -7.97935e-008 -7.97935e-008 -7.97935e-008 -7.25395e-008 -8.70474e-008 -7.25395e-008 -9.06744e-008 -6.52856e-008 -9.06744e-008 -6.16586e-008 -9.43014e-008 -5.44046e-008 -1.01555e-007 -5.44046e-008 -1.01555e-007 -4.71507e-008 -1.01555e-007 -3.98967e-008 -1.08809e-007 -3.98967e-008 -1.08809e-007 -2.90158e-008 -1.12436e-007 -2.90158e-008 -1.12436e-007 -1.81349e-008 -1.16063e-007 -1.81349e-008 -1.1969e-007 -7.25395e-009 -1.1969e-007 -3.62698e-009 -1.1969e-007zm2.04199e-005 0l-2.35753e-006 2.35753e-006 -1.57048e-005 0 0 -4.71507e-006 1.57048e-005 0 2.35753e-006 2.35753e-006zm-2.35753e-006 2.35753e-006l0 -4.71507e-006 1.1969e-007 3.62698e-009 1.1969e-007 7.25395e-009 1.1969e-007 1.81349e-008 1.16063e-007 1.81349e-008 1.12436e-007 2.90158e-008 1.12436e-007 2.90158e-008 1.08809e-007 3.98967e-008 1.08809e-007 3.98967e-008 1.01555e-007 4.71507e-008 1.01555e-007 5.44046e-008 1.01555e-007 5.44046e-008 9.43014e-008 6.16586e-008 9.06744e-008 6.52856e-008 9.06744e-008 7.25395e-008 8.70474e-008 7.25395e-008 7.97935e-008 7.97935e-008 7.97935e-008 7.97935e-008 7.25395e-008 8.70474e-008 7.25395e-008 9.06744e-008 6.52856e-008 9.06744e-008 6.16586e-008 9.43014e-008 5.44046e-008 1.01555e-007 5.44046e-008 1.01555e-007 4.71507e-008 1.01555e-007 3.98967e-008 1.08809e-007 3.98967e-008 1.08809e-007 2.90158e-008 1.12436e-007 2.90158e-008 1.12436e-007 1.81349e-008 1.16063e-007 1.81349e-008 1.1969e-007 7.25395e-009 1.1969e-007 3.62698e-009 1.1969e-007 -3.62698e-009 1.1969e-007 -7.25395e-009 1.1969e-007 -1.81349e-008 1.1969e-007 -1.81349e-008 1.16063e-007 -2.90158e-008 1.12436e-007 -2.90158e-008 1.12436e-007 -3.98967e-008 1.08809e-007 -3.98967e-008 1.08809e-007 -4.71507e-008 1.01555e-007 -5.44046e-008 1.01555e-007 -5.44046e-008 1.01555e-007 -6.16586e-008 9.43014e-008 -6.52856e-008 9.06744e-008 -7.25395e-008 9.06744e-008 -7.25395e-008 8.70474e-008 -7.97935e-008 7.97935e-008 -7.97935e-008 7.97935e-008 -8.70474e-008 7.25395e-008 -9.06744e-008 7.25395e-008 -9.06744e-008 6.52856e-008 -9.43014e-008 6.16586e-008 -1.01555e-007 5.44046e-008 -1.01555e-007 5.44046e-008 -1.01555e-007 4.71507e-008 -1.08809e-007 3.98967e-008 -1.08809e-007 3.98967e-008 -1.12436e-007 2.90158e-008 -1.12436e-007 2.90158e-008 -1.16063e-007 1.81349e-008 -1.1969e-007 1.81349e-008 -1.1969e-007 7.25395e-009 -1.1969e-007 3.62698e-009zm0 -2.60308e-005l2.35753e-006 2.35753e-006 0 2.13157e-005 -4.71507e-006 0 0 -2.13157e-005 2.35753e-006 -2.35753e-006zm2.35753e-006 2.35753e-006l-4.71507e-006 0 3.62698e-009 -1.1969e-007 7.25395e-009 -1.1969e-007 1.81349e-008 -1.1969e-007 1.81349e-008 -1.16063e-007 2.90158e-008 -1.12436e-007 2.90158e-008 -1.12436e-007 3.98967e-008 -1.08809e-007 3.98967e-008 -1.08809e-007 4.71507e-008 -1.01555e-007 5.44046e-008 -1.01555e-007 5.44046e-008 -1.01555e-007 6.16586e-008 -9.43014e-008 6.52856e-008 -9.06744e-008 7.25395e-008 -9.06744e-008 7.25395e-008 -8.70474e-008 7.97935e-008 -7.97935e-008 7.97935e-008 -7.97935e-008 8.70474e-008 -7.25395e-008 9.06744e-008 -7.25395e-008 9.06744e-008 -6.52856e-008 9.43014e-008 -6.16586e-008 1.01555e-007 -5.44046e-008 1.01555e-007 -5.44046e-008 1.01555e-007 -4.71507e-008 1.08809e-007 -3.98967e-008 1.08809e-007 -3.98967e-008 1.12436e-007 -2.90158e-008 1.12436e-007 -2.90158e-008 1.16063e-007 -1.81349e-008 1.1969e-007 -1.81349e-008 1.1969e-007 -7.25395e-009 1.1969e-007 -3.62698e-009 1.1969e-007 3.62698e-009 1.1969e-007 7.25395e-009 1.1969e-007 1.81349e-008 1.16063e-007 1.81349e-008 1.12436e-007 2.90158e-008 1.12436e-007 2.90158e-008 1.08809e-007 3.98967e-008 1.08809e-007 3.98967e-008 1.01555e-007 4.71507e-008 1.01555e-007 5.44046e-008 1.01555e-007 5.44046e-008 9.43014e-008 6.16586e-008 9.06744e-008 6.52856e-008 9.06744e-008 7.25395e-008 8.70474e-008 7.25395e-008 7.97935e-008 7.97935e-008 7.97935e-008 7.97935e-008 7.25395e-008 8.70474e-008 7.25395e-008 9.06744e-008 6.52856e-008 9.06744e-008 6.16586e-008 9.43014e-008 5.44046e-008 1.01555e-007 5.44046e-008 1.01555e-007 4.71507e-008 1.01555e-007 3.98967e-008 1.08809e-007 3.98967e-008 1.08809e-007 2.90158e-008 1.12436e-007 2.90158e-008 1.12436e-007 1.81349e-008 1.16063e-007 1.81349e-008 1.1969e-007 7.25395e-009 1.1969e-007 3.62698e-009 1.1969e-007zm-2.04199e-005 0l2.35753e-006 -2.35753e-006 1.57048e-005 0 0 4.71507e-006 -1.57048e-005 0 -2.35753e-006 -2.35753e-006zm2.35753e-006 -2.35753e-006l0 4.71507e-006 -1.1969e-007 -3.62698e-009 -1.1969e-007 -7.25395e-009 -1.1969e-007 -1.81349e-008 -1.16063e-007 -1.81349e-008 -1.12436e-007 -2.90158e-008 -1.12436e-007 -2.90158e-008 -1.08809e-007 -3.98967e-008 -1.08809e-007 -3.98967e-008 -1.01555e-007 -4.71507e-008 -1.01555e-007 -5.44046e-008 -1.01555e-007 -5.44046e-008 -9.43014e-008 -6.16586e-008 -9.06744e-008 -6.52856e-008 -9.06744e-008 -7.25395e-008 -8.70474e-008 -7.25395e-008 -7.97935e-008 -7.97935e-008 -7.97935e-008 -7.97935e-008 -7.25395e-008 -8.70474e-008 -7.25395e-008 -9.06744e-008 -6.52856e-008 -9.06744e-008 -6.16586e-008 -9.43014e-008 -5.44046e-008 -1.01555e-007 -5.44046e-008 -1.01555e-007 -4.71507e-008 -1.01555e-007 -3.98967e-008 -1.08809e-007 -3.98967e-008 -1.08809e-007 -2.90158e-008 -1.12436e-007 -2.90158e-008 -1.12436e-007 -1.81349e-008 -1.16063e-007 -1.81349e-008 -1.1969e-007 -7.25395e-009 -1.1969e-007 -3.62698e-009 -1.1969e-007 3.62698e-009 -1.1969e-007 7.25395e-009 -1.1969e-007 1.81349e-008 -1.1969e-007 1.81349e-008 -1.16063e-007 2.90158e-008 -1.12436e-007 2.90158e-008 -1.12436e-007 3.98967e-008 -1.08809e-007 3.98967e-008 -1.08809e-007 4.71507e-008 -1.01555e-007 5.44046e-008 -1.01555e-007 5.44046e-008 -1.01555e-007 6.16586e-008 -9.43014e-008 6.52856e-008 -9.06744e-008 7.25395e-008 -9.06744e-008 7.25395e-008 -8.70474e-008 7.97935e-008 -7.97935e-008 7.97935e-008 -7.97935e-008 8.70474e-008 -7.25395e-008 9.06744e-008 -7.25395e-008 9.06744e-008 -6.52856e-008 9.43014e-008 -6.16586e-008 1.01555e-007 -5.44046e-008 1.01555e-007 -5.44046e-008 1.01555e-007 -4.71507e-008 1.08809e-007 -3.98967e-008 1.08809e-007 -3.98967e-008 1.12436e-007 -2.90158e-008 1.12436e-007 -2.90158e-008 1.16063e-007 -1.81349e-008 1.1969e-007 -1.81349e-008 1.1969e-007 -7.25395e-009 1.1969e-007 -3.62698e-009z"/>
   </g>
   <g>
    <path class="fil1" d="M2.88199e-005 9.46641e-006c1.76271e-006,0 3.19537e-006,1.43266e-006 3.19537e-006,3.19537e-006 0,1.76271e-006 -1.43266e-006,3.19537e-006 -3.19537e-006,3.19537e-006 -1.76271e-006,0 -3.19537e-006,-1.43266e-006 -3.19537e-006,-3.19537e-006 0,-1.76271e-006 1.43266e-006,-3.19537e-006 3.19537e-006,-3.19537e-006z"/>
    <path id="1" class="fil0" d="M3.35894e-005 1.26618e-005l-3.14821e-006 0 0 0 3.62698e-009 -8.34204e-008 -7.25395e-009 -8.34204e-008 -1.45079e-008 -9.06744e-008 -7.25395e-009 -6.52856e-008 -1.81349e-008 -8.70474e-008 -2.53888e-008 -7.25395e-008 -3.26428e-008 -8.70474e-008 -2.53888e-008 -7.25395e-008 -2.90158e-008 -6.16586e-008 -2.90158e-008 -6.89125e-008 -3.98967e-008 -5.44046e-008 -5.07777e-008 -8.34204e-008 -5.07777e-008 -7.25395e-008 -3.26428e-008 -4.71507e-008 -5.80316e-008 -6.52856e-008 -5.80316e-008 -5.07777e-008 -5.07777e-008 -5.80316e-008 -6.52856e-008 -5.80316e-008 -4.71507e-008 -3.26428e-008 -7.25395e-008 -5.07777e-008 -8.34204e-008 -5.07777e-008 -5.44046e-008 -3.98967e-008 -6.89125e-008 -2.90158e-008 -6.16586e-008 -2.90158e-008 -7.25395e-008 -2.53888e-008 -8.70474e-008 -3.26428e-008 -7.25395e-008 -2.53888e-008 -8.70474e-008 -1.81349e-008 -6.52856e-008 -7.25395e-009 -9.06744e-008 -1.45079e-008 -8.34204e-008 -7.25395e-009 -8.34204e-008 3.62698e-009 0 -3.14821e-006 2.43007e-007 1.08809e-008 2.43007e-007 2.17619e-008 2.28499e-007 2.17619e-008 2.46634e-007 5.07777e-008 2.24872e-007 5.44046e-008 2.32126e-007 6.16586e-008 2.10365e-007 6.89125e-008 2.17619e-007 8.34204e-008 2.21245e-007 1.01555e-007 2.06738e-007 1.08809e-007 2.13992e-007 1.1969e-007 1.70468e-007 1.16063e-007 1.81349e-007 1.23317e-007 1.9223e-007 1.5596e-007 1.66841e-007 1.45079e-007 1.74095e-007 1.52333e-007 1.52333e-007 1.74095e-007 1.45079e-007 1.66841e-007 1.5596e-007 1.9223e-007 1.23317e-007 1.81349e-007 1.16063e-007 1.70468e-007 1.1969e-007 2.13992e-007 1.08809e-007 2.06738e-007 1.01555e-007 2.21245e-007 8.34204e-008 2.17619e-007 6.89125e-008 2.10365e-007 6.16586e-008 2.32126e-007 5.44046e-008 2.24872e-007 5.07777e-008 2.46634e-007 2.17619e-008 2.28499e-007 2.17619e-008 2.43007e-007 1.08809e-008 2.43007e-007 0 0zm-4.76947e-006 4.76947e-006l0 -3.14821e-006 0 0 8.34204e-008 3.62698e-009 8.34204e-008 -7.25395e-009 9.06744e-008 -1.45079e-008 6.52856e-008 -7.25395e-009 8.70474e-008 -1.81349e-008 7.25395e-008 -2.53888e-008 8.70474e-008 -3.26428e-008 7.25395e-008 -2.53888e-008 6.16586e-008 -2.90158e-008 6.89125e-008 -2.90158e-008 5.44046e-008 -3.98967e-008 8.34204e-008 -5.07777e-008 7.25395e-008 -5.07777e-008 4.71507e-008 -3.26428e-008 6.52856e-008 -5.80316e-008 5.07777e-008 -5.80316e-008 5.80316e-008 -5.07777e-008 5.80316e-008 -6.52856e-008 3.26428e-008 -4.71507e-008 5.07777e-008 -7.25395e-008 5.07777e-008 -8.34204e-008 3.98967e-008 -5.44046e-008 2.90158e-008 -6.89125e-008 2.90158e-008 -6.16586e-008 2.53888e-008 -7.25395e-008 3.26428e-008 -8.70474e-008 2.53888e-008 -7.25395e-008 1.81349e-008 -8.70474e-008 7.25395e-009 -6.52856e-008 1.45079e-008 -9.06744e-008 7.25395e-009 -8.34204e-008 -3.62698e-009 -8.34204e-008 3.14821e-006 0 -1.08809e-008 2.43007e-007 -2.17619e-008 2.43007e-007 -2.17619e-008 2.28499e-007 -5.07777e-008 2.46634e-007 -5.44046e-008 2.24872e-007 -6.16586e-008 2.32126e-007 -6.89125e-008 2.10365e-007 -8.34204e-008 2.17619e-007 -1.01555e-007 2.21245e-007 -1.08809e-007 2.06738e-007 -1.1969e-007 2.13992e-007 -1.16063e-007 1.70468e-007 -1.23317e-007 1.81349e-007 -1.5596e-007 1.9223e-007 -1.45079e-007 1.66841e-007 -1.52333e-007 1.74095e-007 -1.74095e-007 1.52333e-007 -1.66841e-007 1.45079e-007 -1.9223e-007 1.5596e-007 -1.81349e-007 1.23317e-007 -1.70468e-007 1.16063e-007 -2.13992e-007 1.1969e-007 -2.06738e-007 1.08809e-007 -2.21245e-007 1.01555e-007 -2.17619e-007 8.34204e-008 -2.10365e-007 6.89125e-008 -2.32126e-007 6.16586e-008 -2.24872e-007 5.44046e-008 -2.46634e-007 5.07777e-008 -2.28499e-007 2.17619e-008 -2.43007e-007 2.17619e-008 -2.43007e-007 1.08809e-008 0 0zm-4.76947e-006 -4.76947e-006l3.14821e-006 0 0 0 -3.62698e-009 8.34204e-008 7.25395e-009 8.34204e-008 1.45079e-008 9.06744e-008 7.25395e-009 6.52856e-008 1.81349e-008 8.70474e-008 2.53888e-008 7.25395e-008 3.26428e-008 8.70474e-008 2.53888e-008 7.25395e-008 2.90158e-008 6.16586e-008 2.90158e-008 6.89125e-008 3.98967e-008 5.44046e-008 5.07777e-008 8.34204e-008 5.07777e-008 7.25395e-008 3.26428e-008 4.71507e-008 5.80316e-008 6.52856e-008 5.80316e-008 5.07777e-008 5.07777e-008 5.80316e-008 6.52856e-008 5.80316e-008 4.71507e-008 3.26428e-008 7.25395e-008 5.07777e-008 8.34204e-008 5.07777e-008 5.44046e-008 3.98967e-008 6.89125e-008 2.90158e-008 6.16586e-008 2.90158e-008 7.25395e-008 2.53888e-008 8.70474e-008 3.26428e-008 7.25395e-008 2.53888e-008 8.70474e-008 1.81349e-008 6.52856e-008 7.25395e-009 9.06744e-008 1.45079e-008 8.34204e-008 7.25395e-009 8.34204e-008 -3.62698e-009 0 3.14821e-006 -2.43007e-007 -1.08809e-008 -2.43007e-007 -2.17619e-008 -2.28499e-007 -2.17619e-008 -2.46634e-007 -5.07777e-008 -2.24872e-007 -5.44046e-008 -2.32126e-007 -6.16586e-008 -2.10365e-007 -6.89125e-008 -2.17619e-007 -8.34204e-008 -2.21245e-007 -1.01555e-007 -2.06738e-007 -1.08809e-007 -2.13992e-007 -1.1969e-007 -1.70468e-007 -1.16063e-007 -1.81349e-007 -1.23317e-007 -1.9223e-007 -1.5596e-007 -1.66841e-007 -1.45079e-007 -1.74095e-007 -1.52333e-007 -1.52333e-007 -1.74095e-007 -1.45079e-007 -1.66841e-007 -1.5596e-007 -1.9223e-007 -1.23317e-007 -1.81349e-007 -1.16063e-007 -1.70468e-007 -1.1969e-007 -2.13992e-007 -1.08809e-007 -2.06738e-007 -1.01555e-007 -2.21245e-007 -8.34204e-008 -2.17619e-007 -6.89125e-008 -2.10365e-007 -6.16586e-008 -2.32126e-007 -5.44046e-008 -2.24872e-007 -5.07777e-008 -2.46634e-007 -2.17619e-008 -2.28499e-007 -2.17619e-008 -2.43007e-007 -1.08809e-008 -2.43007e-007 0 0zm4.76947e-006 -4.76947e-006l0 3.14821e-006 0 0 -8.34204e-008 -3.62698e-009 -8.34204e-008 7.25395e-009 -9.06744e-008 1.45079e-008 -6.52856e-008 7.25395e-009 -8.70474e-008 1.81349e-008 -7.25395e-008 2.53888e-008 -8.70474e-008 3.26428e-008 -7.25395e-008 2.53888e-008 -6.16586e-008 2.90158e-008 -6.89125e-008 2.90158e-008 -5.44046e-008 3.98967e-008 -8.34204e-008 5.07777e-008 -7.25395e-008 5.07777e-008 -4.71507e-008 3.26428e-008 -6.52856e-008 5.80316e-008 -5.07777e-008 5.80316e-008 -5.80316e-008 5.07777e-008 -5.80316e-008 6.52856e-008 -3.26428e-008 4.71507e-008 -5.07777e-008 7.25395e-008 -5.07777e-008 8.34204e-008 -3.98967e-008 5.44046e-008 -2.90158e-008 6.89125e-008 -2.90158e-008 6.16586e-008 -2.53888e-008 7.25395e-008 -3.26428e-008 8.70474e-008 -2.53888e-008 7.25395e-008 -1.81349e-008 8.70474e-008 -7.25395e-009 6.52856e-008 -1.45079e-008 9.06744e-008 -7.25395e-009 8.34204e-008 3.62698e-009 8.34204e-008 -3.14821e-006 0 1.08809e-008 -2.43007e-007 2.17619e-008 -2.43007e-007 2.17619e-008 -2.28499e-007 5.07777e-008 -2.46634e-007 5.44046e-008 -2.24872e-007 6.16586e-008 -2.32126e-007 6.89125e-008 -2.10365e-007 8.34204e-008 -2.17619e-007 1.01555e-007 -2.21245e-007 1.08809e-007 -2.06738e-007 1.1969e-007 -2.13992e-007 1.16063e-007 -1.70468e-007 1.23317e-007 -1.81349e-007 1.5596e-007 -1.9223e-007 1.45079e-007 -1.66841e-007 1.52333e-007 -1.74095e-007 1.74095e-007 -1.52333e-007 1.66841e-007 -1.45079e-007 1.9223e-007 -1.5596e-007 1.81349e-007 -1.23317e-007 1.70468e-007 -1.16063e-007 2.13992e-007 -1.1969e-007 2.06738e-007 -1.08809e-007 2.21245e-007 -1.01555e-007 2.17619e-007 -8.34204e-008 2.10365e-007 -6.89125e-008 2.32126e-007 -6.16586e-008 2.24872e-007 -5.44046e-008 2.46634e-007 -5.07777e-008 2.28499e-007 -2.17619e-008 2.43007e-007 -2.17619e-008 2.43007e-007 -1.08809e-008 0 0z"/>
   </g>
  </g>
 </g>
</svg>
