<?xml version="1.0" encoding="UTF-8"?>
<!DOCTYPE svg PUBLIC "-//W3C//DTD SVG 1.1//EN" "http://www.w3.org/Graphics/SVG/1.1/DTD/svg11.dtd">
<!-- Creator: CorelDRAW -->
<svg xmlns="http://www.w3.org/2000/svg" xml:space="preserve" width="0.0832283in" height="0.0456181in" style="shape-rendering:geometricPrecision; text-rendering:geometricPrecision; image-rendering:optimizeQuality; fill-rule:evenodd; clip-rule:evenodd"
viewBox="0 0 0.000100287 5.49681e-005"
 xmlns:xlink="http://www.w3.org/1999/xlink">
 <defs>
  <style type="text/css">
   <![CDATA[
    .fil1 {fill:#838281}
    .fil0 {fill:#838281;fill-rule:nonzero}
   ]]>
  </style>
 </defs>
 <g id="Layer_x0020_1">
  <metadata id="CorelCorpID_0Corel-Layer"/>
  <g id="_154329880">
   <g>
    <path id="_154330696" class="fil0" d="M3.15472e-006 0l0 6.30945e-006 -1.61294e-007 -4.74394e-009 -1.61294e-007 -9.48789e-009 -1.5655e-007 -2.37197e-008 -1.5655e-007 -2.84637e-008 -1.51806e-007 -3.32076e-008 -1.51806e-007 -4.26955e-008 -1.47062e-007 -4.74394e-008 -1.42318e-007 -5.69273e-008 -1.37574e-007 -6.64152e-008 -1.37574e-007 -6.64152e-008 -1.3283e-007 -7.59031e-008 -1.28087e-007 -8.5391e-008 -1.23343e-007 -8.5391e-008 -1.18599e-007 -9.48789e-008 -1.13855e-007 -9.96228e-008 -1.09111e-007 -1.04367e-007 -1.04367e-007 -1.09111e-007 -9.96228e-008 -1.13855e-007 -9.48789e-008 -1.18599e-007 -8.5391e-008 -1.23343e-007 -8.5391e-008 -1.28087e-007 -7.59031e-008 -1.3283e-007 -6.64152e-008 -1.37574e-007 -6.64152e-008 -1.37574e-007 -5.69273e-008 -1.42318e-007 -4.74394e-008 -1.47062e-007 -4.26955e-008 -1.51806e-007 -3.32076e-008 -1.51806e-007 -2.84637e-008 -1.5655e-007 -2.37197e-008 -1.5655e-007 -9.48789e-009 -1.61294e-007 -4.74394e-009 -1.61294e-007 4.74394e-009 -1.61294e-007 9.48789e-009 -1.61294e-007 2.37197e-008 -1.5655e-007 2.84637e-008 -1.5655e-007 3.32076e-008 -1.51806e-007 4.26955e-008 -1.51806e-007 4.74394e-008 -1.47062e-007 5.69273e-008 -1.42318e-007 6.64152e-008 -1.37574e-007 6.64152e-008 -1.37574e-007 7.59031e-008 -1.3283e-007 8.5391e-008 -1.28087e-007 8.5391e-008 -1.23343e-007 9.48789e-008 -1.18599e-007 9.96228e-008 -1.13855e-007 1.04367e-007 -1.09111e-007 1.09111e-007 -1.04367e-007 1.13855e-007 -9.96228e-008 1.18599e-007 -9.48789e-008 1.23343e-007 -8.5391e-008 1.28087e-007 -8.5391e-008 1.3283e-007 -7.59031e-008 1.37574e-007 -6.64152e-008 1.37574e-007 -6.64152e-008 1.42318e-007 -5.69273e-008 1.47062e-007 -4.74394e-008 1.51806e-007 -4.26955e-008 1.51806e-007 -3.32076e-008 1.5655e-007 -2.84637e-008 1.5655e-007 -2.37197e-008 1.61294e-007 -9.48789e-009 1.61294e-007 -4.74394e-009zm9.69473e-005 4.17467e-006l-2.96971e-006 2.13478e-006 -9.39775e-005 0 0 -6.30945e-006 9.39775e-005 0 2.96971e-006 4.17467e-006zm-2.96971e-006 2.13478e-006l0 -6.30945e-006 1.61294e-007 4.74394e-009 1.61294e-007 9.48789e-009 1.5655e-007 2.37197e-008 1.5655e-007 2.84637e-008 1.51806e-007 3.32076e-008 1.51806e-007 4.26955e-008 1.47062e-007 4.74394e-008 1.42318e-007 5.69273e-008 1.37574e-007 6.64152e-008 1.37574e-007 6.64152e-008 1.3283e-007 7.59031e-008 1.28087e-007 8.5391e-008 1.23343e-007 8.5391e-008 1.18599e-007 9.48789e-008 1.13855e-007 9.96228e-008 1.09111e-007 1.04367e-007 1.04367e-007 1.09111e-007 9.96228e-008 1.13855e-007 9.48789e-008 1.18599e-007 8.5391e-008 1.23343e-007 8.5391e-008 1.28087e-007 7.59031e-008 1.3283e-007 6.64152e-008 1.37574e-007 6.64152e-008 1.37574e-007 5.69273e-008 1.42318e-007 4.74394e-008 1.47062e-007 4.26955e-008 1.51806e-007 3.32076e-008 1.51806e-007 2.84637e-008 1.5655e-007 2.37197e-008 1.5655e-007 9.48789e-009 1.61294e-007 4.74394e-009 1.61294e-007 -4.74394e-009 1.61294e-007 -9.48789e-009 1.61294e-007 -2.37197e-008 1.5655e-007 -2.84637e-008 1.5655e-007 -3.32076e-008 1.51806e-007 -4.26955e-008 1.51806e-007 -4.74394e-008 1.47062e-007 -5.69273e-008 1.42318e-007 -6.64152e-008 1.37574e-007 -6.64152e-008 1.37574e-007 -7.59031e-008 1.3283e-007 -8.5391e-008 1.28087e-007 -8.5391e-008 1.23343e-007 -9.48789e-008 1.18599e-007 -9.96228e-008 1.13855e-007 -1.04367e-007 1.09111e-007 -1.09111e-007 1.04367e-007 -1.13855e-007 9.96228e-008 -1.18599e-007 9.48789e-008 -1.23343e-007 8.5391e-008 -1.28087e-007 8.5391e-008 -1.3283e-007 7.59031e-008 -1.37574e-007 6.64152e-008 -1.37574e-007 6.64152e-008 -1.42318e-007 5.69273e-008 -1.47062e-007 4.74394e-008 -1.51806e-007 4.26955e-008 -1.51806e-007 3.32076e-008 -1.5655e-007 2.84637e-008 -1.5655e-007 2.37197e-008 -1.61294e-007 9.48789e-009 -1.61294e-007 4.74394e-009zm-1.44501e-005 4.16518e-005l-2.96971e-006 -4.17467e-006 1.44501e-005 -4.16518e-005 5.93942e-006 2.0399e-006 -1.44501e-005 4.16518e-005 -2.96971e-006 2.13478e-006zm-2.96971e-006 -4.17467e-006l5.93942e-006 2.0399e-006 -5.69273e-008 1.51806e-007 -6.16713e-008 1.47062e-007 -7.11592e-008 1.42318e-007 -7.59031e-008 1.37574e-007 -8.06471e-008 1.28087e-007 -9.0135e-008 1.28087e-007 -9.48789e-008 1.23343e-007 -9.96228e-008 1.13855e-007 -1.04367e-007 1.13855e-007 -1.09111e-007 1.04367e-007 -1.13855e-007 9.96228e-008 -1.18599e-007 9.48789e-008 -1.23343e-007 8.5391e-008 -1.28087e-007 8.5391e-008 -1.28087e-007 7.59031e-008 -1.3283e-007 6.64152e-008 -1.37574e-007 6.16713e-008 -1.42318e-007 5.69273e-008 -1.42318e-007 5.21834e-008 -1.42318e-007 4.26955e-008 -1.47062e-007 3.32076e-008 -1.51806e-007 2.84637e-008 -1.51806e-007 2.37197e-008 -1.51806e-007 1.42318e-008 -1.51806e-007 9.48789e-009 -1.51806e-007 -4.74394e-009 -1.5655e-007 -4.74394e-009 -1.5655e-007 -1.89758e-008 -1.51806e-007 -2.37197e-008 -1.5655e-007 -2.84637e-008 -1.5655e-007 -4.26955e-008 -1.51806e-007 -4.74394e-008 -1.51806e-007 -5.69273e-008 -1.47062e-007 -6.16713e-008 -1.42318e-007 -7.11592e-008 -1.37574e-007 -7.59031e-008 -1.28087e-007 -8.06471e-008 -1.28087e-007 -9.0135e-008 -1.23343e-007 -9.48789e-008 -1.13855e-007 -9.96228e-008 -1.13855e-007 -1.04367e-007 -1.04367e-007 -1.09111e-007 -9.96228e-008 -1.13855e-007 -9.48789e-008 -1.18599e-007 -8.5391e-008 -1.23343e-007 -8.5391e-008 -1.28087e-007 -7.59031e-008 -1.28087e-007 -6.64152e-008 -1.3283e-007 -6.16713e-008 -1.37574e-007 -5.69273e-008 -1.42318e-007 -5.21834e-008 -1.42318e-007 -4.26955e-008 -1.42318e-007 -3.32076e-008 -1.47062e-007 -2.84637e-008 -1.51806e-007 -2.37197e-008 -1.51806e-007 -1.42318e-008 -1.51806e-007 -9.48789e-009 -1.51806e-007 4.74394e-009 -1.51806e-007 4.74394e-009 -1.5655e-007 1.89758e-008 -1.5655e-007 2.37197e-008 -1.51806e-007 2.84637e-008 -1.5655e-007 4.26955e-008 -1.5655e-007 4.74394e-008 -1.51806e-007zm-3.08594e-005 2.22491e-006l2.90804e-006 -4.35969e-006 3.0921e-005 0 0 6.30945e-006 -3.0921e-005 0 -2.90804e-006 -1.94976e-006zm2.90804e-006 -4.35969e-006l0 6.30945e-006 -1.61294e-007 -4.74394e-009 -1.61294e-007 -9.48789e-009 -1.5655e-007 -2.37197e-008 -1.5655e-007 -2.84637e-008 -1.51806e-007 -3.32076e-008 -1.51806e-007 -4.26955e-008 -1.47062e-007 -4.74394e-008 -1.42318e-007 -5.69273e-008 -1.37574e-007 -6.64152e-008 -1.37574e-007 -6.64152e-008 -1.3283e-007 -7.59031e-008 -1.28087e-007 -8.5391e-008 -1.23343e-007 -8.5391e-008 -1.18599e-007 -9.48789e-008 -1.13855e-007 -9.96228e-008 -1.09111e-007 -1.04367e-007 -1.04367e-007 -1.09111e-007 -9.96228e-008 -1.13855e-007 -9.48789e-008 -1.18599e-007 -8.5391e-008 -1.23343e-007 -8.5391e-008 -1.28087e-007 -7.59031e-008 -1.3283e-007 -6.64152e-008 -1.37574e-007 -6.64152e-008 -1.37574e-007 -5.69273e-008 -1.42318e-007 -4.74394e-008 -1.47062e-007 -4.26955e-008 -1.51806e-007 -3.32076e-008 -1.51806e-007 -2.84637e-008 -1.5655e-007 -2.37197e-008 -1.5655e-007 -9.48789e-009 -1.61294e-007 -4.74394e-009 -1.61294e-007 4.74394e-009 -1.61294e-007 9.48789e-009 -1.61294e-007 2.37197e-008 -1.5655e-007 2.84637e-008 -1.5655e-007 3.32076e-008 -1.51806e-007 4.26955e-008 -1.51806e-007 4.74394e-008 -1.47062e-007 5.69273e-008 -1.42318e-007 6.64152e-008 -1.37574e-007 6.64152e-008 -1.37574e-007 7.59031e-008 -1.3283e-007 8.5391e-008 -1.28087e-007 8.5391e-008 -1.23343e-007 9.48789e-008 -1.18599e-007 9.96228e-008 -1.13855e-007 1.04367e-007 -1.09111e-007 1.09111e-007 -1.04367e-007 1.13855e-007 -9.96228e-008 1.18599e-007 -9.48789e-008 1.23343e-007 -8.5391e-008 1.28087e-007 -8.5391e-008 1.3283e-007 -7.59031e-008 1.37574e-007 -6.64152e-008 1.37574e-007 -6.64152e-008 1.42318e-007 -5.69273e-008 1.47062e-007 -4.74394e-008 1.51806e-007 -4.26955e-008 1.51806e-007 -3.32076e-008 1.5655e-007 -2.84637e-008 1.5655e-007 -2.37197e-008 1.61294e-007 -9.48789e-009 1.61294e-007 -4.74394e-009zm-1.3876e-005 -3.8203e-005l1.67841e-005 4.01527e-005 -5.81608e-006 2.40992e-006 -1.67841e-005 -4.01527e-005 5.81608e-006 -2.40992e-006zm0 0l-5.81608e-006 2.40992e-006 -5.69273e-008 -1.51806e-007 -5.21834e-008 -1.51806e-007 -4.26955e-008 -1.51806e-007 -3.32076e-008 -1.5655e-007 -2.37197e-008 -1.51806e-007 -1.89758e-008 -1.5655e-007 -9.48789e-009 -1.51806e-007 -4.74394e-009 -1.51806e-007 9.48789e-009 -1.5655e-007 9.48789e-009 -1.51806e-007 1.89758e-008 -1.47062e-007 2.84637e-008 -1.51806e-007 3.32076e-008 -1.47062e-007 4.26955e-008 -1.47062e-007 4.74394e-008 -1.42318e-007 5.21834e-008 -1.42318e-007 6.16713e-008 -1.37574e-007 6.64152e-008 -1.3283e-007 7.59031e-008 -1.3283e-007 8.06471e-008 -1.28087e-007 8.5391e-008 -1.28087e-007 9.48789e-008 -1.18599e-007 9.96228e-008 -1.13855e-007 1.04367e-007 -1.13855e-007 1.09111e-007 -1.09111e-007 1.13855e-007 -9.96228e-008 1.23343e-007 -9.48789e-008 1.28087e-007 -9.0135e-008 1.3283e-007 -8.5391e-008 1.37574e-007 -8.06471e-008 1.42318e-007 -7.11592e-008 1.47062e-007 -6.64152e-008 1.51806e-007 -5.69273e-008 1.51806e-007 -5.21834e-008 1.51806e-007 -4.26955e-008 1.5655e-007 -3.32076e-008 1.51806e-007 -2.37197e-008 1.5655e-007 -1.89758e-008 1.51806e-007 -9.48789e-009 1.51806e-007 0 1.5655e-007 4.74394e-009 1.51806e-007 9.48789e-009 1.47062e-007 1.89758e-008 1.51806e-007 2.84637e-008 1.47062e-007 3.32076e-008 1.47062e-007 4.26955e-008 1.42318e-007 4.74394e-008 1.42318e-007 5.21834e-008 1.37574e-007 6.16713e-008 1.3283e-007 6.64152e-008 1.3283e-007 7.59031e-008 1.28087e-007 8.06471e-008 1.28087e-007 8.5391e-008 1.18599e-007 9.48789e-008 1.13855e-007 9.96228e-008 1.13855e-007 1.04367e-007 1.09111e-007 1.09111e-007 9.96228e-008 1.13855e-007 9.48789e-008 1.23343e-007 9.0135e-008 1.28087e-007 8.5391e-008 1.3283e-007 8.06471e-008 1.37574e-007 7.11592e-008 1.42318e-007 6.64152e-008 1.47062e-007z"/>
   </g>
   <g>
    <path class="fil1" d="M4.80277e-005 2.92796e-005c6.51344e-006,0 1.17934e-005,5.28001e-006 1.17934e-005,1.17934e-005 0,6.51344e-006 -5.28001e-006,1.17982e-005 -1.17934e-005,1.17982e-005 -6.51344e-006,0 -1.17934e-005,-5.28475e-006 -1.17934e-005,-1.17982e-005 0,-6.51344e-006 5.28001e-006,-1.17934e-005 1.17934e-005,-1.17934e-005z"/>
    <path id="1" class="fil0" d="M6.19227e-005 4.10731e-005l-4.20314e-006 0 0 0 -4.74394e-009 -5.02858e-007 -4.26955e-008 -4.88626e-007 -6.64152e-008 -4.9337e-007 -8.06471e-008 -4.79138e-007 -1.09111e-007 -4.64907e-007 -1.28087e-007 -4.50675e-007 -1.51806e-007 -4.60163e-007 -1.70782e-007 -4.41187e-007 -1.94502e-007 -4.22211e-007 -2.13478e-007 -4.17467e-007 -2.32453e-007 -4.03235e-007 -2.60917e-007 -3.98491e-007 -2.60917e-007 -3.74772e-007 -2.94125e-007 -3.74772e-007 -3.03612e-007 -3.55796e-007 -3.22588e-007 -3.27332e-007 -3.27332e-007 -3.22588e-007 -3.55796e-007 -3.03612e-007 -3.74772e-007 -2.94125e-007 -3.74772e-007 -2.60917e-007 -3.98491e-007 -2.60917e-007 -4.03235e-007 -2.32453e-007 -4.17467e-007 -2.13478e-007 -4.22211e-007 -1.94502e-007 -4.41187e-007 -1.70782e-007 -4.60163e-007 -1.51806e-007 -4.50675e-007 -1.28087e-007 -4.64907e-007 -1.09111e-007 -4.79138e-007 -8.06471e-008 -4.9337e-007 -6.64152e-008 -4.88626e-007 -4.26955e-008 -5.02858e-007 -4.74394e-009 0 -4.20314e-006 7.11592e-007 2.37197e-008 7.06848e-007 5.21834e-008 6.92616e-007 8.5391e-008 6.78384e-007 1.28087e-007 6.7364e-007 1.47062e-007 6.68896e-007 1.94502e-007 6.40433e-007 2.18221e-007 6.30945e-007 2.46685e-007 6.21457e-007 2.79893e-007 5.97737e-007 3.08356e-007 5.83505e-007 3.3682e-007 5.59785e-007 3.55796e-007 5.45554e-007 3.93747e-007 5.1709e-007 4.07979e-007 5.07602e-007 4.36443e-007 4.88626e-007 4.55419e-007 4.55419e-007 4.88626e-007 4.36443e-007 5.07602e-007 4.07979e-007 5.1709e-007 3.93747e-007 5.45554e-007 3.55796e-007 5.59785e-007 3.3682e-007 5.83505e-007 3.08356e-007 5.97737e-007 2.79893e-007 6.21457e-007 2.46685e-007 6.30945e-007 2.18221e-007 6.40433e-007 1.94502e-007 6.68896e-007 1.47062e-007 6.7364e-007 1.28087e-007 6.78384e-007 8.5391e-008 6.92616e-007 5.21834e-008 7.06848e-007 2.37197e-008 7.11592e-007 0 0zm-1.3895e-005 1.38998e-005l0 -4.20314e-006 0 0 5.02858e-007 -4.74394e-009 4.88626e-007 -4.26955e-008 4.9337e-007 -6.64152e-008 4.79138e-007 -8.06471e-008 4.64907e-007 -1.09111e-007 4.50675e-007 -1.28087e-007 4.55419e-007 -1.51806e-007 4.45931e-007 -1.75526e-007 4.31699e-007 -1.89758e-007 4.07979e-007 -2.13478e-007 4.03235e-007 -2.32453e-007 3.98491e-007 -2.60917e-007 3.74772e-007 -2.60917e-007 3.74772e-007 -2.94125e-007 3.46308e-007 -3.03612e-007 3.3682e-007 -3.17844e-007 3.22588e-007 -3.46308e-007 3.03612e-007 -3.41564e-007 2.84637e-007 -3.65284e-007 2.70405e-007 -3.8426e-007 2.60917e-007 -4.03235e-007 2.32453e-007 -4.03235e-007 2.13478e-007 -4.17467e-007 1.94502e-007 -4.22211e-007 1.70782e-007 -4.41187e-007 1.51806e-007 -4.60163e-007 1.28087e-007 -4.50675e-007 1.09111e-007 -4.64907e-007 8.06471e-008 -4.79138e-007 6.64152e-008 -4.9337e-007 4.26955e-008 -4.88626e-007 4.74394e-009 -5.02858e-007 4.20314e-006 0 -2.37197e-008 7.11592e-007 -5.21834e-008 7.06848e-007 -8.5391e-008 6.92616e-007 -1.28087e-007 6.78384e-007 -1.47062e-007 6.7364e-007 -1.94502e-007 6.68896e-007 -2.18221e-007 6.40433e-007 -2.46685e-007 6.30945e-007 -2.79893e-007 6.21457e-007 -3.08356e-007 5.97737e-007 -3.3682e-007 5.83505e-007 -3.55796e-007 5.55042e-007 -3.8426e-007 5.45554e-007 -4.17467e-007 5.26578e-007 -4.36443e-007 5.12346e-007 -4.55419e-007 4.69651e-007 -4.79138e-007 4.69651e-007 -5.1709e-007 4.36443e-007 -5.1709e-007 4.07979e-007 -5.45554e-007 3.93747e-007 -5.59785e-007 3.55796e-007 -5.83505e-007 3.3682e-007 -6.07225e-007 3.08356e-007 -6.11969e-007 2.75149e-007 -6.26201e-007 2.51429e-007 -6.45176e-007 2.18221e-007 -6.68896e-007 1.94502e-007 -6.7364e-007 1.47062e-007 -6.78384e-007 1.28087e-007 -6.92616e-007 8.5391e-008 -7.06848e-007 5.21834e-008 -7.11592e-007 2.37197e-008 0 0zm-1.3895e-005 -1.38998e-005l4.20314e-006 0 0 0 4.74394e-009 5.02858e-007 4.26955e-008 4.88626e-007 6.64152e-008 4.9337e-007 8.06471e-008 4.79138e-007 1.09111e-007 4.64907e-007 1.28087e-007 4.50675e-007 1.51806e-007 4.60163e-007 1.70782e-007 4.41187e-007 1.94502e-007 4.22211e-007 2.13478e-007 4.17467e-007 2.32453e-007 4.03235e-007 2.60917e-007 4.03235e-007 2.70405e-007 3.8426e-007 2.84637e-007 3.65284e-007 3.03612e-007 3.41564e-007 3.22588e-007 3.46308e-007 3.3682e-007 3.17844e-007 3.46308e-007 3.03612e-007 3.74772e-007 2.94125e-007 3.74772e-007 2.60917e-007 3.98491e-007 2.60917e-007 4.03235e-007 2.32453e-007 4.07979e-007 2.13478e-007 4.31699e-007 1.89758e-007 4.45931e-007 1.75526e-007 4.55419e-007 1.51806e-007 4.50675e-007 1.28087e-007 4.64907e-007 1.09111e-007 4.79138e-007 8.06471e-008 4.9337e-007 6.64152e-008 4.88626e-007 4.26955e-008 5.02858e-007 4.74394e-009 0 4.20314e-006 -7.11592e-007 -2.37197e-008 -7.06848e-007 -5.21834e-008 -6.92616e-007 -8.5391e-008 -6.78384e-007 -1.28087e-007 -6.7364e-007 -1.47062e-007 -6.68896e-007 -1.94502e-007 -6.45176e-007 -2.18221e-007 -6.26201e-007 -2.51429e-007 -6.11969e-007 -2.75149e-007 -6.07225e-007 -3.08356e-007 -5.83505e-007 -3.3682e-007 -5.59785e-007 -3.55796e-007 -5.45554e-007 -3.93747e-007 -5.1709e-007 -4.07979e-007 -5.1709e-007 -4.36443e-007 -4.79138e-007 -4.69651e-007 -4.55419e-007 -4.69651e-007 -4.36443e-007 -5.12346e-007 -4.17467e-007 -5.26578e-007 -3.8426e-007 -5.45554e-007 -3.55796e-007 -5.55042e-007 -3.3682e-007 -5.83505e-007 -3.08356e-007 -5.97737e-007 -2.79893e-007 -6.21457e-007 -2.46685e-007 -6.30945e-007 -2.18221e-007 -6.40433e-007 -1.94502e-007 -6.68896e-007 -1.47062e-007 -6.7364e-007 -1.28087e-007 -6.78384e-007 -8.5391e-008 -6.92616e-007 -5.21834e-008 -7.06848e-007 -2.37197e-008 -7.11592e-007 0 0zm1.3895e-005 -1.3895e-005l0 4.20314e-006 0 0 -5.02858e-007 4.74394e-009 -4.88626e-007 4.26955e-008 -4.9337e-007 6.64152e-008 -4.79138e-007 8.06471e-008 -4.64907e-007 1.09111e-007 -4.50675e-007 1.28087e-007 -4.60163e-007 1.51806e-007 -4.41187e-007 1.70782e-007 -4.22211e-007 1.94502e-007 -4.17467e-007 2.13478e-007 -4.03235e-007 2.32453e-007 -3.98491e-007 2.60917e-007 -3.74772e-007 2.60917e-007 -3.74772e-007 2.94125e-007 -3.55796e-007 3.03612e-007 -3.27332e-007 3.22588e-007 -3.22588e-007 3.27332e-007 -3.03612e-007 3.55796e-007 -2.94125e-007 3.74772e-007 -2.60917e-007 3.74772e-007 -2.60917e-007 3.98491e-007 -2.32453e-007 4.03235e-007 -2.13478e-007 4.17467e-007 -1.94502e-007 4.22211e-007 -1.70782e-007 4.41187e-007 -1.51806e-007 4.60163e-007 -1.28087e-007 4.50675e-007 -1.09111e-007 4.64907e-007 -8.06471e-008 4.79138e-007 -6.64152e-008 4.9337e-007 -4.26955e-008 4.88626e-007 -4.74394e-009 5.02858e-007 -4.20314e-006 0 2.37197e-008 -7.11592e-007 5.21834e-008 -7.06848e-007 8.5391e-008 -6.92616e-007 1.28087e-007 -6.78384e-007 1.47062e-007 -6.7364e-007 1.94502e-007 -6.68896e-007 2.18221e-007 -6.40433e-007 2.46685e-007 -6.30945e-007 2.79893e-007 -6.21457e-007 3.08356e-007 -5.97737e-007 3.3682e-007 -5.83505e-007 3.55796e-007 -5.59785e-007 3.93747e-007 -5.45554e-007 4.07979e-007 -5.1709e-007 4.36443e-007 -5.07602e-007 4.55419e-007 -4.88626e-007 4.88626e-007 -4.55419e-007 5.07602e-007 -4.36443e-007 5.1709e-007 -4.07979e-007 5.45554e-007 -3.93747e-007 5.59785e-007 -3.55796e-007 5.83505e-007 -3.3682e-007 5.97737e-007 -3.08356e-007 6.21457e-007 -2.79893e-007 6.30945e-007 -2.46685e-007 6.40433e-007 -2.18221e-007 6.68896e-007 -1.94502e-007 6.7364e-007 -1.47062e-007 6.78384e-007 -1.28087e-007 6.92616e-007 -8.5391e-008 7.06848e-007 -5.21834e-008 7.11592e-007 -2.37197e-008 0 0z"/>
   </g>
   <g>
    <path class="fil1" d="M7.92239e-005 3.92087e-005c3.66707e-006,0 6.63678e-006,2.96971e-006 6.63678e-006,6.63678e-006 0,3.66233e-006 -2.96971e-006,6.63678e-006 -6.63678e-006,6.63678e-006 -3.66233e-006,0 -6.63678e-006,-2.97445e-006 -6.63678e-006,-6.63678e-006 0,-3.66707e-006 2.97445e-006,-6.63678e-006 6.63678e-006,-6.63678e-006z"/>
    <path id="1" class="fil0" d="M8.79622e-005 4.58455e-005l-4.20314e-006 0 9.48789e-009 0 -9.48789e-009 -2.41941e-007 -1.42318e-008 -2.32453e-007 -3.79516e-008 -2.22965e-007 -3.32076e-008 -2.22965e-007 -4.74394e-008 -2.13478e-007 -6.64152e-008 -2.18221e-007 -7.11592e-008 -2.13478e-007 -8.06471e-008 -2.08734e-007 -9.0135e-008 -1.94502e-007 -1.04367e-007 -2.0399e-007 -9.96228e-008 -1.8027e-007 -1.18599e-007 -1.75526e-007 -1.37574e-007 -1.94502e-007 -1.37574e-007 -1.70782e-007 -1.23343e-007 -1.51806e-007 -1.66038e-007 -1.61294e-007 -1.61294e-007 -1.66038e-007 -1.51806e-007 -1.23343e-007 -1.70782e-007 -1.37574e-007 -1.94502e-007 -1.37574e-007 -1.75526e-007 -1.18599e-007 -1.8027e-007 -9.96228e-008 -2.0399e-007 -1.04367e-007 -1.94502e-007 -9.0135e-008 -2.08734e-007 -8.06471e-008 -2.13478e-007 -7.11592e-008 -2.18221e-007 -6.64152e-008 -2.13478e-007 -4.74394e-008 -2.22965e-007 -3.32076e-008 -2.22965e-007 -3.79516e-008 -2.32453e-007 -1.42318e-008 -2.41941e-007 -9.48789e-009 0 -4.18416e-006 4.41187e-007 9.48789e-009 4.41187e-007 3.32076e-008 4.41187e-007 4.74394e-008 4.31699e-007 8.06471e-008 4.31699e-007 1.04367e-007 4.07979e-007 1.13855e-007 4.03235e-007 1.37574e-007 3.98491e-007 1.5655e-007 3.93747e-007 1.75526e-007 3.65284e-007 1.89758e-007 3.79516e-007 2.13478e-007 3.55796e-007 2.32453e-007 3.27332e-007 2.32453e-007 3.32076e-007 2.51429e-007 3.32076e-007 2.94125e-007 2.94125e-007 2.79893e-007 2.79893e-007 2.94125e-007 2.94125e-007 3.32076e-007 2.51429e-007 3.32076e-007 2.32453e-007 3.27332e-007 2.32453e-007 3.55796e-007 2.13478e-007 3.79516e-007 1.89758e-007 3.65284e-007 1.75526e-007 3.93747e-007 1.5655e-007 3.98491e-007 1.37574e-007 4.03235e-007 1.13855e-007 4.07979e-007 1.04367e-007 4.31699e-007 8.06471e-008 4.31699e-007 4.74394e-008 4.41187e-007 3.32076e-008 4.41187e-007 9.48789e-009 4.41187e-007 9.48789e-009 0zm-8.73835e-006 8.73835e-006l0 -4.20314e-006 0 9.48789e-009 2.41941e-007 -9.48789e-009 2.32453e-007 -1.42318e-008 2.22965e-007 -3.79516e-008 2.22965e-007 -3.32076e-008 2.13478e-007 -4.74394e-008 2.18221e-007 -6.64152e-008 2.13478e-007 -7.11592e-008 2.08734e-007 -8.06471e-008 1.94502e-007 -9.0135e-008 1.94502e-007 -9.96228e-008 1.89758e-007 -1.09111e-007 1.85014e-007 -1.23343e-007 1.75526e-007 -1.18599e-007 1.70782e-007 -1.42318e-007 1.66038e-007 -1.42318e-007 1.5655e-007 -1.51806e-007 1.66038e-007 -1.66038e-007 1.3283e-007 -1.47062e-007 1.28087e-007 -1.70782e-007 1.37574e-007 -1.85014e-007 1.18599e-007 -1.89758e-007 9.96228e-008 -1.75526e-007 1.04367e-007 -1.99246e-007 9.0135e-008 -2.0399e-007 8.06471e-008 -2.08734e-007 7.11592e-008 -2.0399e-007 6.64152e-008 -2.27709e-007 4.74394e-008 -2.08734e-007 3.32076e-008 -2.22965e-007 3.79516e-008 -2.22965e-007 1.42318e-008 -2.32453e-007 0 -2.41941e-007 4.20314e-006 0 -1.89758e-008 4.41187e-007 -3.32076e-008 4.41187e-007 -4.74394e-008 4.41187e-007 -8.06471e-008 4.31699e-007 -1.04367e-007 4.26955e-007 -1.13855e-007 4.07979e-007 -1.37574e-007 4.12723e-007 -1.5655e-007 3.89003e-007 -1.75526e-007 3.8426e-007 -1.89758e-007 3.79516e-007 -2.13478e-007 3.74772e-007 -2.32453e-007 3.51052e-007 -2.32453e-007 3.3682e-007 -2.60917e-007 3.32076e-007 -2.84637e-007 3.27332e-007 -2.79893e-007 2.98869e-007 -2.98869e-007 2.84637e-007 -3.17844e-007 2.75149e-007 -3.32076e-007 2.56173e-007 -3.46308e-007 2.51429e-007 -3.46308e-007 2.18221e-007 -3.70028e-007 2.13478e-007 -3.74772e-007 1.94502e-007 -3.93747e-007 1.75526e-007 -3.98491e-007 1.5655e-007 -4.03235e-007 1.37574e-007 -4.07979e-007 1.13855e-007 -4.31699e-007 1.04367e-007 -4.31699e-007 8.06471e-008 -4.41187e-007 4.74394e-008 -4.41187e-007 3.32076e-008 -4.41187e-007 9.48789e-009 0 9.48789e-009zm-8.72886e-006 -8.73835e-006l4.18416e-006 0 9.48789e-009 0 0 2.41941e-007 1.42318e-008 2.32453e-007 3.79516e-008 2.22965e-007 3.32076e-008 2.22965e-007 4.74394e-008 2.08734e-007 6.64152e-008 2.27709e-007 7.11592e-008 2.0399e-007 8.06471e-008 2.08734e-007 9.0135e-008 2.0399e-007 9.96228e-008 1.89758e-007 1.09111e-007 1.85014e-007 1.23343e-007 1.94502e-007 1.18599e-007 1.70782e-007 1.3283e-007 1.61294e-007 1.51806e-007 1.70782e-007 1.51806e-007 1.61294e-007 1.61294e-007 1.51806e-007 1.70782e-007 1.51806e-007 1.61294e-007 1.3283e-007 1.70782e-007 1.18599e-007 1.94502e-007 1.23343e-007 1.85014e-007 1.09111e-007 1.89758e-007 9.96228e-008 2.0399e-007 9.0135e-008 2.08734e-007 8.06471e-008 2.0399e-007 7.11592e-008 2.27709e-007 6.64152e-008 2.08734e-007 4.74394e-008 2.22965e-007 3.32076e-008 2.22965e-007 3.79516e-008 2.32453e-007 1.42318e-008 2.41941e-007 0 0 4.20314e-006 -4.41187e-007 -1.89758e-008 -4.41187e-007 -3.32076e-008 -4.41187e-007 -4.74394e-008 -4.31699e-007 -8.06471e-008 -4.26955e-007 -1.04367e-007 -4.07979e-007 -1.13855e-007 -4.12723e-007 -1.37574e-007 -3.89003e-007 -1.5655e-007 -3.8426e-007 -1.75526e-007 -3.89003e-007 -1.94502e-007 -3.65284e-007 -2.13478e-007 -3.46308e-007 -2.18221e-007 -3.51052e-007 -2.51429e-007 -3.41564e-007 -2.65661e-007 -3.03612e-007 -2.65661e-007 -3.03612e-007 -2.84637e-007 -2.84637e-007 -3.03612e-007 -2.65661e-007 -3.03612e-007 -2.65661e-007 -3.41564e-007 -2.51429e-007 -3.51052e-007 -2.18221e-007 -3.46308e-007 -2.13478e-007 -3.65284e-007 -1.94502e-007 -3.89003e-007 -1.75526e-007 -3.8426e-007 -1.5655e-007 -3.89003e-007 -1.37574e-007 -4.12723e-007 -1.13855e-007 -4.07979e-007 -1.04367e-007 -4.26955e-007 -8.06471e-008 -4.31699e-007 -4.74394e-008 -4.41187e-007 -3.32076e-008 -4.41187e-007 -1.89758e-008 -4.41187e-007 9.48789e-009 0zm8.72886e-006 -8.72886e-006l0 4.18416e-006 0 9.48789e-009 -2.41941e-007 0 -2.32453e-007 1.42318e-008 -2.22965e-007 3.79516e-008 -2.22965e-007 3.32076e-008 -2.08734e-007 4.74394e-008 -2.27709e-007 6.64152e-008 -2.0399e-007 7.11592e-008 -2.08734e-007 8.06471e-008 -2.0399e-007 9.0135e-008 -1.99246e-007 1.04367e-007 -1.75526e-007 9.96228e-008 -1.89758e-007 1.18599e-007 -1.85014e-007 1.37574e-007 -1.70782e-007 1.28087e-007 -1.47062e-007 1.3283e-007 -1.66038e-007 1.66038e-007 -1.51806e-007 1.5655e-007 -1.42318e-007 1.66038e-007 -1.42318e-007 1.70782e-007 -1.18599e-007 1.75526e-007 -1.23343e-007 1.85014e-007 -1.09111e-007 1.89758e-007 -9.96228e-008 1.94502e-007 -9.0135e-008 1.94502e-007 -8.06471e-008 2.08734e-007 -7.11592e-008 2.13478e-007 -6.64152e-008 2.18221e-007 -4.74394e-008 2.13478e-007 -3.32076e-008 2.22965e-007 -3.79516e-008 2.22965e-007 -1.42318e-008 2.32453e-007 -9.48789e-009 2.41941e-007 -4.18416e-006 0 9.48789e-009 -4.41187e-007 3.32076e-008 -4.41187e-007 4.74394e-008 -4.41187e-007 8.06471e-008 -4.31699e-007 1.04367e-007 -4.31699e-007 1.13855e-007 -4.07979e-007 1.37574e-007 -4.03235e-007 1.5655e-007 -3.98491e-007 1.75526e-007 -3.93747e-007 1.94502e-007 -3.74772e-007 2.13478e-007 -3.70028e-007 2.18221e-007 -3.46308e-007 2.51429e-007 -3.46308e-007 2.56173e-007 -3.32076e-007 2.75149e-007 -3.17844e-007 2.84637e-007 -2.98869e-007 2.98869e-007 -2.79893e-007 3.27332e-007 -2.84637e-007 3.32076e-007 -2.60917e-007 3.3682e-007 -2.32453e-007 3.51052e-007 -2.32453e-007 3.74772e-007 -2.13478e-007 3.79516e-007 -1.89758e-007 3.8426e-007 -1.75526e-007 3.89003e-007 -1.5655e-007 4.12723e-007 -1.37574e-007 4.07979e-007 -1.13855e-007 4.26955e-007 -1.04367e-007 4.31699e-007 -8.06471e-008 4.41187e-007 -4.74394e-008 4.41187e-007 -3.32076e-008 4.41187e-007 -1.89758e-008 0 9.48789e-009z"/>
   </g>
   <g>
    <path class="fil0" d="M4.05607e-005 1.48485e-005l0 6.30945e-006 -1.61294e-007 -4.74394e-009 -1.61294e-007 -9.48789e-009 -1.5655e-007 -2.37197e-008 -1.5655e-007 -2.84637e-008 -1.51806e-007 -3.32076e-008 -1.51806e-007 -4.26955e-008 -1.47062e-007 -4.74394e-008 -1.42318e-007 -5.69273e-008 -1.37574e-007 -6.64152e-008 -1.37574e-007 -6.64152e-008 -1.3283e-007 -7.59031e-008 -1.28087e-007 -8.5391e-008 -1.23343e-007 -8.5391e-008 -1.18599e-007 -9.48789e-008 -1.13855e-007 -9.96228e-008 -1.09111e-007 -1.04367e-007 -1.04367e-007 -1.09111e-007 -9.96228e-008 -1.13855e-007 -9.48789e-008 -1.18599e-007 -8.5391e-008 -1.23343e-007 -8.5391e-008 -1.28087e-007 -7.59031e-008 -1.3283e-007 -6.64152e-008 -1.37574e-007 -6.64152e-008 -1.37574e-007 -5.69273e-008 -1.42318e-007 -4.74394e-008 -1.47062e-007 -4.26955e-008 -1.51806e-007 -3.32076e-008 -1.51806e-007 -2.84637e-008 -1.5655e-007 -2.37197e-008 -1.5655e-007 -9.48789e-009 -1.61294e-007 -4.74394e-009 -1.61294e-007 4.74394e-009 -1.61294e-007 9.48789e-009 -1.61294e-007 2.37197e-008 -1.5655e-007 2.84637e-008 -1.5655e-007 3.32076e-008 -1.51806e-007 4.26955e-008 -1.51806e-007 4.74394e-008 -1.47062e-007 5.69273e-008 -1.42318e-007 6.64152e-008 -1.37574e-007 6.64152e-008 -1.37574e-007 7.59031e-008 -1.3283e-007 8.5391e-008 -1.28087e-007 8.5391e-008 -1.23343e-007 9.48789e-008 -1.18599e-007 9.96228e-008 -1.13855e-007 1.04367e-007 -1.09111e-007 1.09111e-007 -1.04367e-007 1.13855e-007 -9.96228e-008 1.18599e-007 -9.48789e-008 1.23343e-007 -8.5391e-008 1.28087e-007 -8.5391e-008 1.3283e-007 -7.59031e-008 1.37574e-007 -6.64152e-008 1.37574e-007 -6.64152e-008 1.42318e-007 -5.69273e-008 1.47062e-007 -4.74394e-008 1.51806e-007 -4.26955e-008 1.51806e-007 -3.32076e-008 1.5655e-007 -2.84637e-008 1.5655e-007 -2.37197e-008 1.61294e-007 -9.48789e-009 1.61294e-007 -4.74394e-009zm5.07839e-005 6.30945e-006l-5.07839e-005 0 0 -6.30945e-006 5.07839e-005 0 0 6.30945e-006zm0 0l0 -6.30945e-006 1.61294e-007 4.74394e-009 1.61294e-007 9.48789e-009 1.5655e-007 2.37197e-008 1.5655e-007 2.84637e-008 1.51806e-007 3.32076e-008 1.51806e-007 4.26955e-008 1.47062e-007 4.74394e-008 1.42318e-007 5.69273e-008 1.37574e-007 6.64152e-008 1.37574e-007 6.64152e-008 1.3283e-007 7.59031e-008 1.28087e-007 8.5391e-008 1.23343e-007 8.5391e-008 1.18599e-007 9.48789e-008 1.13855e-007 9.96228e-008 1.09111e-007 1.04367e-007 1.04367e-007 1.09111e-007 9.96228e-008 1.13855e-007 9.48789e-008 1.18599e-007 8.5391e-008 1.23343e-007 8.5391e-008 1.28087e-007 7.59031e-008 1.3283e-007 6.64152e-008 1.37574e-007 6.64152e-008 1.37574e-007 5.69273e-008 1.42318e-007 4.74394e-008 1.47062e-007 4.26955e-008 1.51806e-007 3.32076e-008 1.51806e-007 2.84637e-008 1.5655e-007 2.37197e-008 1.5655e-007 9.48789e-009 1.61294e-007 4.74394e-009 1.61294e-007 -4.74394e-009 1.61294e-007 -9.48789e-009 1.61294e-007 -2.37197e-008 1.5655e-007 -2.84637e-008 1.5655e-007 -3.32076e-008 1.51806e-007 -4.26955e-008 1.51806e-007 -4.74394e-008 1.47062e-007 -5.69273e-008 1.42318e-007 -6.64152e-008 1.37574e-007 -6.64152e-008 1.37574e-007 -7.59031e-008 1.3283e-007 -8.5391e-008 1.28087e-007 -8.5391e-008 1.23343e-007 -9.48789e-008 1.18599e-007 -9.96228e-008 1.13855e-007 -1.04367e-007 1.09111e-007 -1.09111e-007 1.04367e-007 -1.13855e-007 9.96228e-008 -1.18599e-007 9.48789e-008 -1.23343e-007 8.5391e-008 -1.28087e-007 8.5391e-008 -1.3283e-007 7.59031e-008 -1.37574e-007 6.64152e-008 -1.37574e-007 6.64152e-008 -1.42318e-007 5.69273e-008 -1.47062e-007 4.74394e-008 -1.51806e-007 4.26955e-008 -1.51806e-007 3.32076e-008 -1.5655e-007 2.84637e-008 -1.5655e-007 2.37197e-008 -1.61294e-007 9.48789e-009 -1.61294e-007 4.74394e-009z"/>
   </g>
  </g>
 </g>
</svg>
