<?xml version="1.0" encoding="UTF-8"?>
<!DOCTYPE svg PUBLIC "-//W3C//DTD SVG 1.1//EN" "http://www.w3.org/Graphics/SVG/1.1/DTD/svg11.dtd">
<!-- Creator: CorelDRAW -->
<svg xmlns="http://www.w3.org/2000/svg" xml:space="preserve" width="0.0453898in" height="0.0569409in" style="shape-rendering:geometricPrecision; text-rendering:geometricPrecision; image-rendering:optimizeQuality; fill-rule:evenodd; clip-rule:evenodd"
viewBox="0 0 3.00469e-005 3.76934e-005"
 xmlns:xlink="http://www.w3.org/1999/xlink">
 <defs>
  <style type="text/css">
   <![CDATA[
    .str0 {stroke:#838281}
    .fil2 {fill:none;fill-rule:nonzero}
    .fil1 {fill:#838281}
    .fil0 {fill:#838281;fill-rule:nonzero}
   ]]>
  </style>
 </defs>
 <g id="Layer_x0020_1">
  <metadata id="CorelCorpID_0Corel-Layer"/>
  <g id="_154329424">
   <g>
    <path id="_154330000" class="fil0" d="M1.632e-005 1.06515e-005l0 0 -2.59317e-006 0 0 -4.09694e-006 2.59317e-006 0 0 4.09694e-006zm1.37268e-005 1.27469e-005l-4.09694e-006 0 0 0 -7.81859e-009 -6.77611e-007 -4.43054e-008 -6.69793e-007 -6.77611e-008 -6.59368e-007 -8.60045e-008 -6.38518e-007 -1.14673e-007 -6.33306e-007 -1.40735e-007 -6.22881e-007 -1.61584e-007 -6.04638e-007 -1.87646e-007 -5.91607e-007 -2.11102e-007 -5.7597e-007 -2.24133e-007 -5.57726e-007 -2.42376e-007 -5.44695e-007 -2.65832e-007 -5.23846e-007 -2.84076e-007 -4.97784e-007 -2.99713e-007 -4.87359e-007 -3.12744e-007 -4.58691e-007 -3.38806e-007 -4.43054e-007 -3.41412e-007 -4.16992e-007 -3.62261e-007 -3.96142e-007 -3.67474e-007 -3.67474e-007 -3.80505e-007 -3.41412e-007 -3.93536e-007 -3.20562e-007 -3.98748e-007 -2.91894e-007 -4.09173e-007 -2.65832e-007 -4.19598e-007 -2.3977e-007 -4.27416e-007 -2.18921e-007 -4.30023e-007 -1.87646e-007 -4.30023e-007 -1.51159e-007 -4.4566e-007 -1.32916e-007 -4.53478e-007 -9.90355e-008 -4.53478e-007 -7.81859e-008 -4.56085e-007 -4.16992e-008 -4.71722e-007 -1.04248e-008 0 -4.09694e-006 7.27129e-007 2.6062e-008 7.27129e-007 7.29735e-008 7.08886e-007 1.14673e-007 6.93249e-007 1.61584e-007 6.8543e-007 1.95465e-007 6.75005e-007 2.50195e-007 6.54156e-007 2.81469e-007 6.307e-007 3.12744e-007 6.12456e-007 3.54443e-007 6.02032e-007 3.9093e-007 5.7597e-007 4.22204e-007 5.5512e-007 4.50872e-007 5.36877e-007 4.82147e-007 5.13421e-007 5.13421e-007 4.87359e-007 5.36877e-007 4.71722e-007 5.62939e-007 4.32629e-007 5.89001e-007 4.27416e-007 6.15063e-007 3.93536e-007 6.33306e-007 3.67474e-007 6.59368e-007 3.44018e-007 6.80218e-007 3.20562e-007 6.90642e-007 2.91894e-007 7.1931e-007 2.58014e-007 7.32341e-007 2.34558e-007 7.53191e-007 2.08496e-007 7.66222e-007 1.72009e-007 7.79253e-007 1.51159e-007 7.9489e-007 1.17279e-007 8.1574e-007 8.33983e-008 8.20952e-007 4.43054e-008 8.26165e-007 2.34558e-008 8.39196e-007 0 0zm-2.04847e-006 6.73181e-006l-2.04847e-006 -2.04847e-006 0 -4.68334e-006 4.09694e-006 0 0 4.68334e-006 -2.04847e-006 2.04847e-006zm-2.04847e-006 -2.04847e-006l4.09694e-006 0 -2.6062e-009 1.04248e-007 -7.81859e-009 1.04248e-007 -1.3031e-008 1.04248e-007 -1.82434e-008 9.90355e-008 -2.34558e-008 9.90355e-008 -2.6062e-008 9.90355e-008 -3.38806e-008 9.38231e-008 -3.64868e-008 9.38231e-008 -4.16992e-008 9.12169e-008 -4.43054e-008 8.86107e-008 -4.95178e-008 8.60045e-008 -5.21239e-008 8.07921e-008 -5.73363e-008 8.07921e-008 -6.25487e-008 7.81859e-008 -6.25487e-008 7.29735e-008 -6.77611e-008 7.29735e-008 -7.29735e-008 6.77611e-008 -7.29735e-008 6.25487e-008 -7.81859e-008 6.25487e-008 -8.07921e-008 5.73363e-008 -8.07921e-008 5.21239e-008 -8.60045e-008 4.95178e-008 -8.86107e-008 4.43054e-008 -9.12169e-008 4.16992e-008 -9.38231e-008 3.64868e-008 -9.38231e-008 3.38806e-008 -9.90355e-008 2.6062e-008 -9.90355e-008 2.34558e-008 -9.90355e-008 1.82434e-008 -1.04248e-007 1.3031e-008 -1.04248e-007 7.81859e-009 -1.04248e-007 2.6062e-009 -1.04248e-007 -2.6062e-009 -1.04248e-007 -7.81859e-009 -1.04248e-007 -1.3031e-008 -9.90355e-008 -1.82434e-008 -9.90355e-008 -2.34558e-008 -9.90355e-008 -2.6062e-008 -9.38231e-008 -3.38806e-008 -9.38231e-008 -3.64868e-008 -9.12169e-008 -4.16992e-008 -8.86107e-008 -4.43054e-008 -8.60045e-008 -4.95178e-008 -8.07921e-008 -5.21239e-008 -8.07921e-008 -5.73363e-008 -7.81859e-008 -6.25487e-008 -7.29735e-008 -6.25487e-008 -7.29735e-008 -6.77611e-008 -6.77611e-008 -7.29735e-008 -6.25487e-008 -7.29735e-008 -6.25487e-008 -7.81859e-008 -5.73363e-008 -8.07921e-008 -5.21239e-008 -8.07921e-008 -4.95178e-008 -8.60045e-008 -4.43054e-008 -8.86107e-008 -4.16992e-008 -9.12169e-008 -3.64868e-008 -9.38231e-008 -3.38806e-008 -9.38231e-008 -2.6062e-008 -9.90355e-008 -2.34558e-008 -9.90355e-008 -1.82434e-008 -9.90355e-008 -1.3031e-008 -1.04248e-007 -7.81859e-009 -1.04248e-007 -2.6062e-009 -1.04248e-007zm-2.59499e-005 0l2.04847e-006 -2.04847e-006 2.59499e-005 0 0 4.09694e-006 -2.59499e-005 0 -2.04847e-006 -2.04847e-006zm2.04847e-006 -2.04847e-006l0 4.09694e-006 -1.04248e-007 -2.6062e-009 -1.04248e-007 -7.81859e-009 -1.04248e-007 -1.3031e-008 -9.90355e-008 -1.82434e-008 -9.90355e-008 -2.34558e-008 -9.90355e-008 -2.6062e-008 -9.38231e-008 -3.38806e-008 -9.38231e-008 -3.64868e-008 -9.12169e-008 -4.16992e-008 -8.86107e-008 -4.43054e-008 -8.60045e-008 -4.95178e-008 -8.07921e-008 -5.21239e-008 -8.07921e-008 -5.73363e-008 -7.81859e-008 -6.25487e-008 -7.29735e-008 -6.25487e-008 -7.29735e-008 -6.77611e-008 -6.77611e-008 -7.29735e-008 -6.25487e-008 -7.29735e-008 -6.25487e-008 -7.81859e-008 -5.73363e-008 -8.07921e-008 -5.21239e-008 -8.07921e-008 -4.95178e-008 -8.60045e-008 -4.43054e-008 -8.86107e-008 -4.16992e-008 -9.12169e-008 -3.64868e-008 -9.38231e-008 -3.38806e-008 -9.38231e-008 -2.6062e-008 -9.90355e-008 -2.34558e-008 -9.90355e-008 -1.82434e-008 -9.90355e-008 -1.3031e-008 -1.04248e-007 -7.81859e-009 -1.04248e-007 -2.6062e-009 -1.04248e-007 2.6062e-009 -1.04248e-007 7.81859e-009 -1.04248e-007 1.3031e-008 -1.04248e-007 1.82434e-008 -9.90355e-008 2.34558e-008 -9.90355e-008 2.6062e-008 -9.90355e-008 3.38806e-008 -9.38231e-008 3.64868e-008 -9.38231e-008 4.16992e-008 -9.12169e-008 4.43054e-008 -8.86107e-008 4.95178e-008 -8.60045e-008 5.21239e-008 -8.07921e-008 5.73363e-008 -8.07921e-008 6.25487e-008 -7.81859e-008 6.25487e-008 -7.29735e-008 6.77611e-008 -7.29735e-008 7.29735e-008 -6.77611e-008 7.29735e-008 -6.25487e-008 7.81859e-008 -6.25487e-008 8.07921e-008 -5.73363e-008 8.07921e-008 -5.21239e-008 8.60045e-008 -4.95178e-008 8.86107e-008 -4.43054e-008 9.12169e-008 -4.16992e-008 9.38231e-008 -3.64868e-008 9.38231e-008 -3.38806e-008 9.90355e-008 -2.6062e-008 9.90355e-008 -2.34558e-008 9.90355e-008 -1.82434e-008 1.04248e-007 -1.3031e-008 1.04248e-007 -7.81859e-009 1.04248e-007 -2.6062e-009zm2.04847e-006 -2.63487e-006l0 0 0 4.68334e-006 -4.09694e-006 0 0 -4.68334e-006 4.09694e-006 0zm9.6299e-006 -1.68439e-005l0 4.09694e-006 0 0 -4.71722e-007 1.04248e-008 -4.56085e-007 4.16992e-008 -4.53478e-007 7.81859e-008 -4.53478e-007 9.90355e-008 -4.4566e-007 1.32916e-007 -4.30023e-007 1.51159e-007 -4.30023e-007 1.87646e-007 -4.27416e-007 2.18921e-007 -4.19598e-007 2.3977e-007 -4.09173e-007 2.65832e-007 -3.98748e-007 2.91894e-007 -3.93536e-007 3.20562e-007 -3.80505e-007 3.41412e-007 -3.67474e-007 3.67474e-007 -3.62261e-007 3.96142e-007 -3.41412e-007 4.16992e-007 -3.38806e-007 4.43054e-007 -3.12744e-007 4.58691e-007 -2.99713e-007 4.87359e-007 -2.84076e-007 4.97784e-007 -2.65832e-007 5.23846e-007 -2.42376e-007 5.44695e-007 -2.24133e-007 5.57726e-007 -2.11102e-007 5.7597e-007 -1.87646e-007 5.91607e-007 -1.61584e-007 6.04638e-007 -1.40735e-007 6.22881e-007 -1.14673e-007 6.33306e-007 -8.60045e-008 6.38518e-007 -6.77611e-008 6.59368e-007 -4.43054e-008 6.69793e-007 -7.81859e-009 6.77611e-007 -4.09694e-006 0 2.34558e-008 -8.39196e-007 4.43054e-008 -8.26165e-007 8.33983e-008 -8.20952e-007 1.17279e-007 -8.1574e-007 1.51159e-007 -7.9489e-007 1.72009e-007 -7.79253e-007 2.08496e-007 -7.66222e-007 2.34558e-007 -7.53191e-007 2.58014e-007 -7.32341e-007 2.91894e-007 -7.1931e-007 3.20562e-007 -6.90642e-007 3.44018e-007 -6.80218e-007 3.67474e-007 -6.59368e-007 3.93536e-007 -6.33306e-007 4.27416e-007 -6.15063e-007 4.32629e-007 -5.89001e-007 4.71722e-007 -5.62939e-007 4.87359e-007 -5.36877e-007 5.13421e-007 -5.13421e-007 5.36877e-007 -4.82147e-007 5.5512e-007 -4.50872e-007 5.7597e-007 -4.22204e-007 6.02032e-007 -3.9093e-007 6.12456e-007 -3.54443e-007 6.307e-007 -3.12744e-007 6.54156e-007 -2.81469e-007 6.75005e-007 -2.50195e-007 6.8543e-007 -1.95465e-007 6.93249e-007 -1.61584e-007 7.08886e-007 -1.14673e-007 7.27129e-007 -7.29735e-008 7.27129e-007 -2.6062e-008 0 0z"/>
   </g>
   <g>
    <path class="fil1" d="M1.50221e-005 2.82772e-005c2.52019e-006,0 4.56345e-006,2.04326e-006 4.56345e-006,4.56085e-006 0,2.52019e-006 -2.04326e-006,4.56345e-006 -4.56345e-006,4.56345e-006 -2.51759e-006,0 -4.56085e-006,-2.04326e-006 -4.56085e-006,-4.56345e-006 0,-2.51759e-006 2.04326e-006,-4.56085e-006 4.56085e-006,-4.56085e-006z"/>
    <path id="1" class="fil2 str0" d="M1.50221e-005 2.82772e-005c2.52019e-006,0 4.56345e-006,2.04326e-006 4.56345e-006,4.56085e-006 0,2.52019e-006 -2.04326e-006,4.56345e-006 -4.56345e-006,4.56345e-006 -2.51759e-006,0 -4.56085e-006,-2.04326e-006 -4.56085e-006,-4.56345e-006 0,-2.51759e-006 2.04326e-006,-4.56085e-006 4.56085e-006,-4.56085e-006z"/>
   </g>
   <g>
    <path class="fil0" d="M2.02736e-005 5.25149e-006l-4.09694e-006 0 0 0 2.6062e-009 -6.77611e-008 -2.6062e-009 -6.77611e-008 -5.21239e-009 -3.9093e-008 -1.04248e-008 -5.21239e-008 -2.08496e-008 -7.03673e-008 -1.04248e-008 -4.69116e-008 -1.3031e-008 -4.43054e-008 -3.12744e-008 -7.29735e-008 -2.34558e-008 -4.43054e-008 -2.34558e-008 -5.21239e-008 -2.08496e-008 -4.69116e-008 -3.64868e-008 -4.16992e-008 -3.12744e-008 -5.21239e-008 -3.12744e-008 -4.16992e-008 -3.64868e-008 -3.64868e-008 -4.43054e-008 -3.9093e-008 -3.64868e-008 -4.16992e-008 -5.21239e-008 -4.43054e-008 -3.38806e-008 -2.6062e-008 -4.69116e-008 -3.12744e-008 -4.69116e-008 -3.64868e-008 -3.9093e-008 -2.08496e-008 -5.21239e-008 -2.34558e-008 -4.43054e-008 -2.34558e-008 -7.29735e-008 -3.12744e-008 -4.43054e-008 -1.3031e-008 -4.69116e-008 -1.04248e-008 -7.03673e-008 -2.08496e-008 -5.21239e-008 -1.04248e-008 -3.9093e-008 -5.21239e-009 -6.77611e-008 -2.6062e-009 -6.77611e-008 2.6062e-009 0 -4.09694e-006 2.6062e-007 1.3031e-008 2.6062e-007 1.82434e-008 2.78863e-007 3.64868e-008 2.6062e-007 4.69116e-008 2.42376e-007 5.21239e-008 2.55407e-007 7.29735e-008 2.52801e-007 9.12169e-008 2.18921e-007 8.33983e-008 2.37164e-007 1.01642e-007 2.24133e-007 1.17279e-007 2.31952e-007 1.35522e-007 2.08496e-007 1.3031e-007 2.08496e-007 1.45947e-007 2.0589e-007 1.66797e-007 1.82434e-007 1.58978e-007 1.82434e-007 1.66797e-007 1.69403e-007 1.8504e-007 1.66797e-007 1.98071e-007 1.56372e-007 1.98071e-007 1.45947e-007 1.98071e-007 1.3031e-007 2.18921e-007 1.35522e-007 2.24133e-007 1.17279e-007 2.24133e-007 1.01642e-007 2.37164e-007 8.33983e-008 2.18921e-007 9.12169e-008 2.52801e-007 7.29735e-008 2.55407e-007 5.21239e-008 2.42376e-007 4.69116e-008 2.6062e-007 3.64868e-008 2.78863e-007 1.82434e-008 2.6062e-007 1.3031e-008 2.6062e-007 0 0zm-5.24888e-006 5.24106e-006l0 -4.08131e-006 0 -7.81859e-009 6.77611e-008 2.6062e-009 6.77611e-008 -2.6062e-009 3.9093e-008 -5.21239e-009 5.21239e-008 -1.04248e-008 7.03673e-008 -2.08496e-008 4.69116e-008 -1.04248e-008 4.43054e-008 -1.3031e-008 7.29735e-008 -3.12744e-008 4.43054e-008 -2.34558e-008 5.21239e-008 -2.34558e-008 3.9093e-008 -2.08496e-008 4.69116e-008 -3.64868e-008 6.51549e-008 -3.9093e-008 3.12744e-008 -2.34558e-008 2.86682e-008 -2.86682e-008 4.43054e-008 -5.21239e-008 5.21239e-008 -4.43054e-008 2.86682e-008 -2.86682e-008 2.34558e-008 -3.12744e-008 3.9093e-008 -6.51549e-008 3.64868e-008 -4.69116e-008 2.08496e-008 -3.9093e-008 2.34558e-008 -5.21239e-008 2.34558e-008 -4.43054e-008 3.12744e-008 -7.29735e-008 1.3031e-008 -4.43054e-008 1.04248e-008 -4.69116e-008 2.08496e-008 -7.03673e-008 1.04248e-008 -5.21239e-008 5.21239e-009 -3.9093e-008 2.6062e-009 -6.77611e-008 -2.6062e-009 -6.77611e-008 4.09694e-006 0 -1.3031e-008 2.6062e-007 -1.82434e-008 2.6062e-007 -3.64868e-008 2.78863e-007 -4.69116e-008 2.6062e-007 -5.21239e-008 2.42376e-007 -7.29735e-008 2.55407e-007 -9.12169e-008 2.52801e-007 -8.33983e-008 2.18921e-007 -1.01642e-007 2.37164e-007 -1.17279e-007 2.24133e-007 -1.35522e-007 2.31952e-007 -1.3031e-007 2.08496e-007 -1.38128e-007 1.90252e-007 -1.6419e-007 2.08496e-007 -1.74615e-007 2.0589e-007 -1.61584e-007 1.74615e-007 -1.74615e-007 1.61584e-007 -2.0589e-007 1.74615e-007 -2.08496e-007 1.6419e-007 -1.90252e-007 1.38128e-007 -2.08496e-007 1.3031e-007 -2.31952e-007 1.35522e-007 -2.24133e-007 1.17279e-007 -2.37164e-007 1.01642e-007 -2.18921e-007 8.33983e-008 -2.52801e-007 9.12169e-008 -2.55407e-007 7.29735e-008 -2.42376e-007 5.21239e-008 -2.6062e-007 4.69116e-008 -2.78863e-007 3.64868e-008 -2.6062e-007 1.82434e-008 -2.6062e-007 1.3031e-008 0 -7.81859e-009zm-5.25149e-006 -5.24106e-006l4.09694e-006 0 0 0 -2.6062e-009 6.77611e-008 2.6062e-009 6.77611e-008 5.21239e-009 3.9093e-008 1.04248e-008 5.21239e-008 2.08496e-008 7.03673e-008 1.04248e-008 4.69116e-008 1.3031e-008 4.43054e-008 3.12744e-008 7.29735e-008 2.34558e-008 4.43054e-008 2.34558e-008 5.21239e-008 2.08496e-008 3.9093e-008 3.64868e-008 4.69116e-008 3.12744e-008 4.69116e-008 3.38806e-008 4.95178e-008 3.38806e-008 3.64868e-008 2.6062e-008 2.86682e-008 6.51549e-008 5.99425e-008 2.6062e-008 2.86682e-008 3.38806e-008 2.34558e-008 6.25487e-008 3.9093e-008 4.95178e-008 3.64868e-008 4.43054e-008 2.86682e-008 3.64868e-008 1.56372e-008 5.47301e-008 2.34558e-008 7.81859e-008 3.12744e-008 2.86682e-008 1.3031e-008 5.73363e-008 1.04248e-008 6.77611e-008 2.08496e-008 5.47301e-008 1.04248e-008 3.9093e-008 5.21239e-009 6.77611e-008 2.6062e-009 6.77611e-008 5.21239e-009 0 4.08131e-006 -2.6062e-007 -5.21239e-009 -2.6062e-007 -1.82434e-008 -2.78863e-007 -3.64868e-008 -2.63226e-007 -4.69116e-008 -2.3977e-007 -5.21239e-008 -2.50195e-007 -7.29735e-008 -2.68438e-007 -9.12169e-008 -2.08496e-007 -8.33983e-008 -2.31952e-007 -1.01642e-007 -2.3977e-007 -1.25097e-007 -2.21527e-007 -1.27704e-007 -2.11102e-007 -1.3031e-007 -1.87646e-007 -1.38128e-007 -2.11102e-007 -1.6419e-007 -2.03283e-007 -1.74615e-007 -1.58978e-007 -1.53766e-007 -1.87646e-007 -1.90252e-007 -1.6419e-007 -1.98071e-007 -1.58978e-007 -1.90252e-007 -1.45947e-007 -2.08496e-007 -1.3031e-007 -2.08496e-007 -1.35522e-007 -2.31952e-007 -1.17279e-007 -2.24133e-007 -1.01642e-007 -2.37164e-007 -8.33983e-008 -2.18921e-007 -9.12169e-008 -2.52801e-007 -7.29735e-008 -2.55407e-007 -5.21239e-008 -2.42376e-007 -4.69116e-008 -2.6062e-007 -3.64868e-008 -2.78863e-007 -1.82434e-008 -2.6062e-007 -1.3031e-008 -2.6062e-007 0 0zm5.25149e-006 -5.25149e-006l0 4.09694e-006 0 -7.81859e-009 -6.77611e-008 5.21239e-009 -6.77611e-008 2.6062e-009 -3.9093e-008 5.21239e-009 -5.47301e-008 1.04248e-008 -6.77611e-008 2.08496e-008 -5.73363e-008 1.04248e-008 -2.86682e-008 1.3031e-008 -7.81859e-008 3.12744e-008 -5.47301e-008 2.34558e-008 -3.64868e-008 1.56372e-008 -4.43054e-008 2.86682e-008 -4.95178e-008 3.64868e-008 -4.43054e-008 3.12744e-008 -3.64868e-008 2.6062e-008 -4.95178e-008 4.43054e-008 -5.73363e-008 4.95178e-008 -1.82434e-008 2.34558e-008 -4.16992e-008 4.43054e-008 -4.16992e-008 5.73363e-008 -2.34558e-008 3.64868e-008 -3.64868e-008 4.16992e-008 -2.08496e-008 4.69116e-008 -2.34558e-008 5.21239e-008 -2.34558e-008 4.43054e-008 -3.12744e-008 7.29735e-008 -1.3031e-008 4.43054e-008 -1.04248e-008 4.69116e-008 -2.08496e-008 7.03673e-008 -1.04248e-008 5.21239e-008 -5.21239e-009 3.9093e-008 -2.6062e-009 6.77611e-008 2.6062e-009 6.77611e-008 -4.09694e-006 0 1.3031e-008 -2.6062e-007 1.82434e-008 -2.6062e-007 3.64868e-008 -2.78863e-007 4.69116e-008 -2.6062e-007 5.21239e-008 -2.42376e-007 7.29735e-008 -2.55407e-007 9.12169e-008 -2.52801e-007 8.33983e-008 -2.18921e-007 1.01642e-007 -2.37164e-007 1.17279e-007 -2.24133e-007 1.35522e-007 -2.24133e-007 1.3031e-007 -2.18921e-007 1.53766e-007 -2.13708e-007 1.51159e-007 -1.82434e-007 1.56372e-007 -1.90252e-007 1.95465e-007 -2.00677e-007 1.66797e-007 -1.58978e-007 1.79828e-007 -1.58978e-007 2.08496e-007 -1.66797e-007 2.0589e-007 -1.45947e-007 2.11102e-007 -1.3031e-007 2.21527e-007 -1.27704e-007 2.3977e-007 -1.25097e-007 2.31952e-007 -1.01642e-007 2.08496e-007 -8.33983e-008 2.68438e-007 -9.12169e-008 2.50195e-007 -7.29735e-008 2.3977e-007 -5.21239e-008 2.63226e-007 -4.69116e-008 2.78863e-007 -3.64868e-008 2.6062e-007 -1.82434e-008 2.6062e-007 -5.21239e-009 0 -7.81859e-009z"/>
   </g>
  </g>
 </g>
</svg>
