<?xml version="1.0" encoding="UTF-8"?>
<!DOCTYPE svg PUBLIC "-//W3C//DTD SVG 1.1//EN" "http://www.w3.org/Graphics/SVG/1.1/DTD/svg11.dtd">
<!-- Creator: CorelDRAW -->
<svg xmlns="http://www.w3.org/2000/svg" xml:space="preserve" width="0.0558583in" height="0.0553661in" style="shape-rendering:geometricPrecision; text-rendering:geometricPrecision; image-rendering:optimizeQuality; fill-rule:evenodd; clip-rule:evenodd"
viewBox="0 0 4.38835e-005 4.34969e-005"
 xmlns:xlink="http://www.w3.org/1999/xlink">
 <defs>
  <style type="text/css">
   <![CDATA[
    .str0 {stroke:#838281}
    .fil2 {fill:none}
    .fil1 {fill:white}
    .fil0 {fill:#838281;fill-rule:nonzero}
   ]]>
  </style>
 </defs>
 <g id="Layer_x0020_1">
  <metadata id="CorelCorpID_0Corel-Layer"/>
  <g id="_154782968">
   <g>
    <path id="_154783616" class="fil0" d="M3.72119e-005 7.89643e-006l-1.22483e-006 1.2372e-006 -2.81432e-005 0 0 -2.4744e-006 2.81432e-005 0 1.22483e-006 1.2372e-006zm-1.22483e-006 -1.2372e-006l1.22483e-006 0 0 1.2372e-006 -1.22483e-006 -1.2372e-006zm0 3.06145e-005l-1.22483e-006 -1.2372e-006 0 -2.81401e-005 2.44966e-006 0 0 2.81401e-005 -1.22483e-006 1.2372e-006zm1.22483e-006 -1.2372e-006l0 1.2372e-006 -1.22483e-006 0 1.22483e-006 -1.2372e-006zm-3.05929e-005 0l1.22483e-006 -1.2372e-006 2.81432e-005 0 0 2.4744e-006 -2.81432e-005 0 -1.22483e-006 -1.2372e-006zm1.22483e-006 1.2372e-006l-1.22483e-006 0 0 -1.2372e-006 1.22483e-006 1.2372e-006zm0 -3.06145e-005l1.22483e-006 1.2372e-006 0 2.81401e-005 -2.44966e-006 0 0 -2.81401e-005 1.22483e-006 -1.2372e-006zm-1.22483e-006 1.2372e-006l0 -1.2372e-006 1.22483e-006 0 -1.22483e-006 1.2372e-006z"/>
   </g>
   <g>
    <polygon class="fil1" points="8.26759e-006,8.67587e-006 1.7129e-005,8.67587e-006 1.7129e-005,1.75342e-005 8.26759e-006,1.75342e-005 "/>
    <path id="1" class="fil0" d="M1.82951e-005 8.67587e-006l-1.16606e-006 1.17843e-006 -8.86145e-006 0 0 -2.35687e-006 8.86145e-006 0 1.16606e-006 1.17843e-006zm-1.16606e-006 -1.17843e-006l1.16606e-006 0 0 1.17843e-006 -1.16606e-006 -1.17843e-006zm0 1.12152e-005l-1.16606e-006 -1.17843e-006 0 -8.85835e-006 2.33212e-006 0 0 8.85835e-006 -1.16606e-006 1.17843e-006zm1.16606e-006 -1.17843e-006l0 1.17843e-006 -1.16606e-006 0 1.16606e-006 -1.17843e-006zm-1.11936e-005 0l1.16606e-006 -1.17843e-006 8.86145e-006 0 0 2.35687e-006 -8.86145e-006 0 -1.16606e-006 -1.17843e-006zm1.16606e-006 1.17843e-006l-1.16606e-006 0 0 -1.17843e-006 1.16606e-006 1.17843e-006zm0 -1.12152e-005l1.16606e-006 1.17843e-006 0 8.85835e-006 -2.33212e-006 0 0 -8.85835e-006 1.16606e-006 -1.17843e-006zm-1.16606e-006 1.17843e-006l0 -1.17843e-006 1.16606e-006 0 -1.16606e-006 1.17843e-006z"/>
   </g>
   <g>
    <polygon class="fil1" points="3.07475e-005,7.89643e-006 3.57767e-005,7.89643e-006 3.57767e-005,1.29287e-005 3.07475e-005,1.29287e-005 "/>
    <path id="1" class="fil0" d="M3.70016e-005 7.89643e-006l-1.22483e-006 1.24029e-006 -5.02922e-006 0 0 -2.48059e-006 5.02922e-006 0 1.22483e-006 1.24029e-006zm-1.22483e-006 -1.24029e-006l1.22174e-006 0 3.093e-009 1.24029e-006 -1.22483e-006 -1.24029e-006zm0 7.5129e-006l-1.22483e-006 -1.24029e-006 0 -5.03231e-006 2.44966e-006 0 0 5.03231e-006 -1.22483e-006 1.24029e-006zm1.22483e-006 -1.24029e-006l0 1.24029e-006 -1.22483e-006 0 1.22483e-006 -1.24029e-006zm-7.47888e-006 0l1.22483e-006 -1.24029e-006 5.02922e-006 0 0 2.48059e-006 -5.02922e-006 0 -1.22483e-006 -1.24029e-006zm1.22483e-006 1.24029e-006l-1.22174e-006 0 -3.093e-009 -1.24029e-006 1.22483e-006 1.24029e-006zm0 -7.5129e-006l1.22483e-006 1.24029e-006 0 5.03231e-006 -2.44966e-006 0 0 -5.03231e-006 1.22483e-006 -1.24029e-006zm-1.22483e-006 1.24029e-006l0 -1.24029e-006 1.22483e-006 0 -1.22483e-006 1.24029e-006z"/>
   </g>
   <g>
    <polygon class="fil1" points="2.86443e-005,2.83597e-005 3.57767e-005,2.83597e-005 3.57767e-005,3.54953e-005 2.86443e-005,3.54953e-005 "/>
    <path id="1" class="fil0" d="M3.70016e-005 2.83597e-005l-1.22483e-006 1.24029e-006 -7.13246e-006 0 0 -2.48059e-006 7.13246e-006 0 1.22483e-006 1.24029e-006zm-1.22483e-006 -1.24029e-006l1.22483e-006 0 0 1.24029e-006 -1.22483e-006 -1.24029e-006zm0 9.61614e-006l-1.22483e-006 -1.24029e-006 0 -7.13555e-006 2.44966e-006 0 0 7.13555e-006 -1.22483e-006 1.24029e-006zm1.22483e-006 -1.24029e-006l0 1.24029e-006 -1.22483e-006 0 1.22483e-006 -1.24029e-006zm-9.58212e-006 0l1.22483e-006 -1.24029e-006 7.13246e-006 0 0 2.48059e-006 -7.13246e-006 0 -1.22483e-006 -1.24029e-006zm1.22483e-006 1.24029e-006l-1.22483e-006 0 0 -1.24029e-006 1.22483e-006 1.24029e-006zm0 -9.61614e-006l1.22483e-006 1.24029e-006 0 7.13555e-006 -2.44966e-006 0 0 -7.13555e-006 1.22483e-006 -1.24029e-006zm-1.22483e-006 1.24029e-006l0 -1.24029e-006 1.22483e-006 0 -1.22483e-006 1.24029e-006z"/>
   </g>
   <g>
    <path class="fil0" d="M1.76054e-005 2.72462e-005l-1.22483e-006 1.24029e-006 -8.24903e-006 0 0 -2.48059e-006 8.24903e-006 0 1.22483e-006 1.24029e-006zm-1.22483e-006 -1.24029e-006l1.22483e-006 0 0 1.24029e-006 -1.22483e-006 -1.24029e-006zm0 1.07296e-005l-1.22483e-006 -1.24029e-006 0 -8.24903e-006 2.44966e-006 0 0 8.24903e-006 -1.22483e-006 1.24029e-006zm1.22483e-006 -1.24029e-006l0 1.24029e-006 -1.22483e-006 0 1.22483e-006 -1.24029e-006zm-1.06987e-005 0l1.22483e-006 -1.24029e-006 8.24903e-006 0 0 2.48059e-006 -8.24903e-006 0 -1.22483e-006 -1.24029e-006zm1.22483e-006 1.24029e-006l-1.22483e-006 0 0 -1.24029e-006 1.22483e-006 1.24029e-006zm0 -1.07296e-005l1.22483e-006 1.24029e-006 0 8.24903e-006 -2.44966e-006 0 0 -8.24903e-006 1.22483e-006 -1.24029e-006zm-1.22483e-006 1.24029e-006l0 -1.24029e-006 1.22483e-006 0 -1.22483e-006 1.24029e-006z"/>
   </g>
   <g>
    <path class="fil0" d="M1.41845e-005 3.06671e-005l-1.22483e-006 1.24029e-006 -1.40732e-006 0 0 -2.48059e-006 1.40732e-006 0 1.22483e-006 1.24029e-006zm-1.22483e-006 -1.24029e-006l1.22174e-006 0 3.093e-009 1.24029e-006 -1.22483e-006 -1.24029e-006zm0 3.8879e-006l-1.22483e-006 -1.24029e-006 0 -1.40732e-006 2.44966e-006 0 0 1.40732e-006 -1.22483e-006 1.24029e-006zm1.22483e-006 -1.24029e-006l0 1.24029e-006 -1.22483e-006 0 1.22483e-006 -1.24029e-006zm-3.85697e-006 0l1.22483e-006 -1.24029e-006 1.40732e-006 0 0 2.48059e-006 -1.40732e-006 0 -1.22483e-006 -1.24029e-006zm1.22483e-006 1.24029e-006l-1.22174e-006 0 -3.093e-009 -1.24029e-006 1.22483e-006 1.24029e-006zm0 -3.8879e-006l1.22483e-006 1.24029e-006 0 1.40732e-006 -2.44966e-006 0 0 -1.40732e-006 1.22483e-006 -1.24029e-006zm-1.22483e-006 1.24029e-006l0 -1.24029e-006 1.22483e-006 0 -1.22483e-006 1.24029e-006z"/>
   </g>
   <rect class="fil2 str0" width="3.91337e-005" height="3.91337e-005"/>
   <polygon class="fil0 str0" points="4.27051e-005,1.21122e-005 4.02616e-005,1.21122e-005 4.02616e-005,3.6219e-006 3.16569e-005,3.6219e-006 3.16569e-005,1.17843e-006 4.14833e-005,1.17843e-006 4.27051e-005,1.17843e-006 4.27051e-005,2.40017e-006 "/>
   <polygon class="fil0 str0" points="1.17843e-006,1.21122e-005 3.6219e-006,1.21122e-005 3.6219e-006,3.6219e-006 1.22266e-005,3.6219e-006 1.22266e-005,1.17843e-006 2.40017e-006,1.17843e-006 1.17843e-006,1.17843e-006 1.17843e-006,2.40017e-006 "/>
   <polygon class="fil0 str0" points="4.27051e-005,3.13847e-005 4.02616e-005,3.13847e-005 4.02616e-005,3.9875e-005 3.16569e-005,3.9875e-005 3.16569e-005,4.23184e-005 4.14833e-005,4.23184e-005 4.27051e-005,4.23184e-005 4.27051e-005,4.10967e-005 "/>
   <polygon class="fil0 str0" points="1.17843e-006,3.13847e-005 3.6219e-006,3.13847e-005 3.6219e-006,3.9875e-005 1.22266e-005,3.9875e-005 1.22266e-005,4.23184e-005 2.40017e-006,4.23184e-005 1.17843e-006,4.23184e-005 1.17843e-006,4.10967e-005 "/>
   <g>
    <polygon class="fil1" points="1.71538e-005,1.52701e-005 2.65813e-005,1.52701e-005 2.65813e-005,2.72462e-005 1.71538e-005,2.72462e-005 "/>
    <path id="1" class="fil0" d="M2.74287e-005 1.52701e-005l-8.47482e-007 1.09183e-006 -9.42747e-006 0 0 -2.18366e-006 9.42747e-006 0 8.47482e-007 1.09183e-006zm-8.47482e-007 -1.09183e-006l8.47482e-007 0 0 1.09183e-006 -8.47482e-007 -1.09183e-006zm0 1.41598e-005l-8.47482e-007 -1.09183e-006 0 -1.19761e-005 1.69496e-006 0 0 1.19761e-005 -8.47482e-007 1.09183e-006zm8.47482e-007 -1.09183e-006l0 1.09183e-006 -8.47482e-007 0 8.47482e-007 -1.09183e-006zm-1.11224e-005 0l8.47482e-007 -1.09183e-006 9.42747e-006 0 0 2.18366e-006 -9.42747e-006 0 -8.47482e-007 -1.09183e-006zm8.47482e-007 1.09183e-006l-8.47482e-007 0 0 -1.09183e-006 8.47482e-007 1.09183e-006zm0 -1.41598e-005l8.47482e-007 1.09183e-006 0 1.19761e-005 -1.69496e-006 0 0 -1.19761e-005 8.47482e-007 -1.09183e-006zm-8.47482e-007 1.09183e-006l0 -1.09183e-006 8.47482e-007 0 -8.47482e-007 1.09183e-006z"/>
   </g>
   <g>
    <polygon class="fil1" points="2.70916e-005,1.86972e-005 3.21239e-005,1.86972e-005 3.21239e-005,2.37295e-005 2.70916e-005,2.37295e-005 "/>
    <path id="1" class="fil0" d="M3.33487e-005 1.86972e-005l-1.22483e-006 1.24029e-006 -5.03231e-006 0 0 -2.48059e-006 5.03231e-006 0 1.22483e-006 1.24029e-006zm-1.22483e-006 -1.24029e-006l1.22174e-006 0 3.093e-009 1.24029e-006 -1.22483e-006 -1.24029e-006zm0 7.5129e-006l-1.22483e-006 -1.24029e-006 0 -5.03231e-006 2.44966e-006 0 0 5.03231e-006 -1.22483e-006 1.24029e-006zm1.22483e-006 -1.24029e-006l0 1.24029e-006 -1.22483e-006 0 1.22483e-006 -1.24029e-006zm-7.48197e-006 0l1.22483e-006 -1.24029e-006 5.03231e-006 0 0 2.48059e-006 -5.03231e-006 0 -1.22483e-006 -1.24029e-006zm1.22483e-006 1.24029e-006l-1.22174e-006 0 -3.093e-009 -1.24029e-006 1.22483e-006 1.24029e-006zm0 -7.5129e-006l1.22483e-006 1.24029e-006 0 5.03231e-006 -2.44966e-006 0 0 -5.03231e-006 1.22483e-006 -1.24029e-006zm-1.22483e-006 1.24029e-006l0 -1.24029e-006 1.22483e-006 0 -1.22483e-006 1.24029e-006z"/>
   </g>
  </g>
 </g>
</svg>
