<?xml version="1.0" encoding="UTF-8"?>
<!DOCTYPE svg PUBLIC "-//W3C//DTD SVG 1.1//EN" "http://www.w3.org/Graphics/SVG/1.1/DTD/svg11.dtd">
<!-- Creator: CorelDRAW -->
<svg xmlns="http://www.w3.org/2000/svg" xml:space="preserve" width="3.82369in" height="2.63481in" style="shape-rendering:geometricPrecision; text-rendering:geometricPrecision; image-rendering:optimizeQuality; fill-rule:evenodd; clip-rule:evenodd"
viewBox="0 0 0.106456 0.0733561"
 xmlns:xlink="http://www.w3.org/1999/xlink">
 <defs>
  <style type="text/css">
   <![CDATA[
    .str0 {stroke:#1F1A17;stroke-width:8.35235e-005}
    .str1 {stroke:#1C3130;stroke-width:0.00309344}
    .fil3 {fill:white}
    .fil2 {fill:#83EBDF}
    .fil1 {fill:#1C3130}
    .fil0 {fill:#314F59}
   ]]>
  </style>
 </defs>
 <g id="Layer_x0020_1">
  <metadata id="CorelCorpID_0Corel-Layer"/>
  <g id="_118841848">
   <ellipse id="_118842904" class="fil0" cx="0.0532279" cy="0.0589212" rx="0.0532279" ry="0.0144349"/>
   <g>
    <path id="_118842760" class="fil1 str0" d="M0.0274244 0.0520248c0,0.00280648 -0.0009295,0.00520937 -0.0028239,0.00719157 -0.00187665,0.00198198 -0.00415699,0.00298174 -0.00682295,0.00298174 -0.0026836,0 -0.00496395,-0.000999761 -0.0068406,-0.00298174 -0.00187698,-0.0019822 -0.00282412,-0.00438509 -0.00282412,-0.00719157 0,-0.00280626 0.000947148,-0.00520937 0.00282412,-0.00719135 0.00187665,-0.00199963 0.00415699,-0.00298174 0.0068406,-0.00298174 0.00266596,0 0.0049463,0.000982113 0.00682295,0.00298174 0.0018944,0.00198198 0.0028239,0.00438509 0.0028239,0.00719135z"/>
    <path id="_118842808" class="fil1" d="M0.0274244 0.0452895c-0.00219244,-0.00410438 -0.00540228,-0.00615662 -0.00964685,-0.00615662 -0.00322749,0 -0.00598136,0.0011929 -0.00826137,0.00361343 -0.0022627,0.00242054 -0.00340287,0.00531459 -0.00340287,0.00871735l0 0.00442006 -0.00513922 0 0 -0.0271344c0,-0.00280648 0.00178907,-0.00420961 0.00538485,-0.00420961l0.00201695 0 0.0051744 -0.0125939c0.000719047,-0.00171881 0.00201717,-0.00257838 0.00385885,-0.00257838l0.0100153 0 0 0.035922z"/>
    <path id="_118843048" class="fil1 str0" d="M0.0826756 0.0520248c0,0.00280648 -0.000947148,0.00520937 -0.00285887,0.00719157 -0.0018944,0.00198198 -0.00417464,0.00298174 -0.00680563,0.00298174 -0.00266607,0 -0.0049463,-0.000999761 -0.0068406,-0.00298174 -0.00580653,-0.00613273 -0.00203197,-0.0173647 0.0068406,-0.0173647 0.00263099,0 0.00491122,0.000982113 0.00680563,0.00298174 0.00191172,0.00198198 0.00285887,0.00438509 0.00285887,0.00719135z"/>
    <polygon id="_118842880" class="fil2 str0" points="0.0238569,0.0212012 0.0238569,0.0134153 0.0172572,0.0134153 0.0143032,0.0212012 "/>
    <path id="_118842448" class="fil2 str1" d="M0.0408703 0.00154672l0.0543775 0c0.00461199,0 0.00838534,0.00366769 0.00838534,0.00815056l0 0.0380359c0,0.00448287 -0.00377335,0.00815056 -0.00838534,0.00815056l-0.00840398 0c0.000313706,-0.00123257 0.000471546,-0.00252226 0.000471546,-0.00385885 0,-0.00397186 -0.00138877,-0.00753279 -0.00414472,-0.0103974 -0.00272449,-0.00286852 -0.00619904,-0.00441545 -0.0101595,-0.00441545 -0.010172,0 -0.015989,0.00998818 -0.0138002,0.0186717l-0.0183406 0c-0.00461199,0 -0.00838534,-0.00366769 -0.00838534,-0.00815056l0 -0.0380359c0,-0.00448287 0.00377335,-0.00815056 0.00838534,-0.00815056z"/>
    <path id="_118842016" class="fil3" d="M0.0803611 0.0177031c0,0.00181625 -0.00037476,0.0035287 -0.00111858,0.00513746 -0.000784156,0.00167781 -0.00189123,0.00303282 -0.00330959,0.00407073l0.00187391 0.00147032 -0.00603123 0.00162016 0.000559344 -0.00599648 0.00168943 0.00133188c0.00174709,-0.00153948 0.00261773,-0.00368435 0.00261773,-0.00643471 0,-0.003523 -0.00167792,-0.00627906 -0.00503366,-0.00825677l0.00212766 -0.00413989c0.0020757,0.00100327 0.00370748,0.00254856 0.00490103,0.00464158 0.0011473,0.00200643 0.00172396,0.00419174 0.00172396,0.00655572zm-0.0129097 0.00815878l-0.00212766 0.00413989c-0.00205838,-0.00100327 -0.00368446,-0.00254856 -0.0048779,-0.00464728 -0.00116473,-0.00200073 -0.00174139,-0.00418604 -0.00174139,-0.00655002 0,-0.00181625 0.000374869,-0.0035287 0.00113009,-0.00513746 0.000789966,-0.00167781 0.00188553,-0.00303282 0.00329238,-0.00407073l-0.00187391 -0.00148764 0.00603112 -0.00160284 -0.000559235 0.00599648 -0.00168954 -0.00133758c-0.00174128,0.00154518 -0.00261762,0.00369005 -0.00261762,0.00644041 0,0.003523 0.00167781,0.00627325 0.00503366,0.00825677z"/>
   </g>
  </g>
 </g>
</svg>
