<?xml version="1.0" encoding="UTF-8"?>
<!DOCTYPE svg PUBLIC "-//W3C//DTD SVG 1.1//EN" "http://www.w3.org/Graphics/SVG/1.1/DTD/svg11.dtd">
<!-- Creator: CorelDRAW -->
<svg xmlns="http://www.w3.org/2000/svg" xml:space="preserve" width="3.22995in" height="3.39897in" style="shape-rendering:geometricPrecision; text-rendering:geometricPrecision; image-rendering:optimizeQuality; fill-rule:evenodd; clip-rule:evenodd"
viewBox="0 0 0.0833745 0.0877375"
 xmlns:xlink="http://www.w3.org/1999/xlink">
 <defs>
  <style type="text/css">
   <![CDATA[
    .str0 {stroke:#1F1A17;stroke-width:7.74389e-005}
    .str2 {stroke:#1F1A17;stroke-width:0.00143404}
    .str1 {stroke:#1F1A17;stroke-width:0.00215111}
    .str5 {stroke:#1F1A17;stroke-width:0.00286808;stroke-linecap:round;stroke-linejoin:round}
    .str4 {stroke:#1F1A17;stroke-width:0.00071697;stroke-linecap:round}
    .str3 {stroke:#1F1A17;stroke-width:0.00143404;stroke-linecap:round}
    .str6 {stroke:#1F1A17;stroke-width:0.00215111;stroke-linecap:round;stroke-linejoin:round}
    .fil5 {fill:none}
    .fil1 {fill:#1F1A17}
    .fil2 {fill:#BB825B}
    .fil3 {fill:#EA9D73}
    .fil4 {fill:#F5C491}
    .fil6 {fill:white}
    .fil0 {fill:#3CC8E8}
    .fil7 {fill:#1C3130}
    .fil8 {fill:#314F59}
   ]]>
  </style>
       <clipPath id="id0">
        <path d="M0.0252477 0.0109825l0.00277967 0c0.00687996,0 0.012509,0.00562905 0.012509,0.012509l0 0.00539592c0,0.00687996 -0.00562905,0.012509 -0.012509,0.012509l-0.00277967 0c-0.00687996,0 -0.012509,-0.00562905 -0.012509,-0.012509l0 -0.00539592c0,-0.00687996 0.00562905,-0.012509 0.012509,-0.012509z"/>
       </clipPath>
       <clipPath id="id1">
        <path d="M0.0179619 0.0434575l0.0161847 0c0.00909033,0 0.0165278,0.00808179 0.0165278,0.0179596l0 0.00399105c0,0.000764632 -4.49186e-005,0.00151809 -0.000131402,0.00225823l-0.0489775 0c-8.64836e-005,-0.000740141 -0.000131402,-0.00149359 -0.000131402,-0.00225823l0 -0.00399105c0,-0.00987782 0.00743748,-0.0179596 0.0165278,-0.0179596z"/>
       </clipPath>
 </defs>
 <g id="Layer_x0020_1">
  <metadata id="CorelCorpID_0Corel-Layer"/>
  <g id="_118720632">
   <g>
    <path id="_118755048" class="fil0" d="M0.0566919 0.0126895l0.00691218 0c0.00285091,-4.06503e-007 0.00518353,0.00292662 0.00518353,0.00650364l0 0.00808321 0.00808321 0c0.00357702,-2.03252e-007 0.00650405,0.00233262 0.00650364,0.00518353l0 0.00691198c0,0.00285091 -0.00292662,0.00518403 -0.00650364,0.00518403l-0.00808342 0 0 0.00808271c2.03252e-007,0.00357702 -0.00233241,0.00650425 -0.00518332,0.00650385l-0.00691218 0c-0.00285091,0 -0.00518403,-0.00292682 -0.00518403,-0.00650385l0 -0.0080825 -0.0080825 0c-0.00357702,-2.03252e-007 -0.00650385,-0.00233333 -0.00650385,-0.00518403l0 -0.00691218c-4.06503e-007,-0.00285091 0.00292682,-0.00518373 0.00650385,-0.00518373l0.0080825 0 0 -0.00808301c0,-0.00357702 0.00233312,-0.00650364 0.00518403,-0.00650364z"/>
    <g>
     <path id="_118754976" class="fil1 str0" d="M0.0407706 0.0151445c0,0.00445599 -0.00198201,0.00844947 -0.00511168,0.0111483 0.0014941,-0.00339125 0.00107571,-0.00731492 -0.00105589,-0.0103059 -0.00418688,0.00587428 -0.0129109,0.00587438 -0.0170978,0 -0.0021316,0.00299075 -0.00254999,0.00691462 -0.00105599,0.0103058 -0.00312957,-0.00269888 -0.00511147,-0.00669226 -0.00511147,-0.0111482 0,-0.020141 0.0294329,-0.020141 0.0294329,0z"/>
     <g>
      <ellipse id="_118755120" class="fil2 str1" cx="0.0428256" cy="0.0260003" rx="0.00320345" ry="0.00449389"/>
      <ellipse id="_118754736" class="fil2 str1" cx="0.0108259" cy="0.0260003" rx="0.00320345" ry="0.00449389"/>
      <path id="_118754592" class="fil3" d="M0.0252477 0.0109825l0.00277967 0c0.00687996,0 0.012509,0.00562905 0.012509,0.012509l0 0.00539592c0,0.00687996 -0.00562905,0.012509 -0.012509,0.012509l-0.00277967 0c-0.00687996,0 -0.012509,-0.00562905 -0.012509,-0.012509l0 -0.00539592c0,-0.00687996 0.00562905,-0.012509 0.012509,-0.012509z"/>
      <g style="clip-path:url(#id0)">
       <g>
        <rect id="_118683880" class="fil2" x="0.0621205" y="0.00346076" width="0.0212571" height="0.0444763"/>
        <ellipse id="_118684048" class="fil4" cx="0.0222226" cy="0.0247178" rx="0.0181503" ry="0.0148799"/>
       </g>
      </g>
      <path class="fil5 str1" d="M0.0252477 0.0109825l0.00277967 0c0.00687996,0 0.012509,0.00562905 0.012509,0.012509l0 0.00539592c0,0.00687996 -0.00562905,0.012509 -0.012509,0.012509l-0.00277967 0c-0.00687996,0 -0.012509,-0.00562905 -0.012509,-0.012509l0 -0.00539592c0,-0.00687996 0.00562905,-0.012509 0.012509,-0.012509z"/>
      <ellipse id="_118754640" class="fil6 str2" cx="0.0206651" cy="0.0247985" rx="0.000632163" ry="0.00190304"/>
      <g>
       <path id="_118758384" class="fil5 str3" d="M0.0214885 0.0329863c0.00321381,0.00377906 0.00871533,0.00368363 0.0113573,0"/>
      </g>
      <circle id="_118758408" class="fil6" cx="0.0209709" cy="0.0244225" r="0.000447966"/>
      <circle id="_118758336" class="fil6" cx="0.020133" cy="0.0258262" r="0.000300304"/>
      <path id="_118720080" class="fil5 str4" d="M0.0285561 0.0293095c0,-0.000755791 -0.00173628,-0.0019814 -0.00263506,2.04268e-005"/>
      <path id="_118720512" class="fil7" d="M0.0179619 0.0434575l0.0161847 0c0.00909033,0 0.0165278,0.00808179 0.0165278,0.0179596l0 0.00399105c0,0.000764632 -4.49186e-005,0.00151809 -0.000131402,0.00225823l-0.0489775 0c-8.64836e-005,-0.000740141 -0.000131402,-0.00149359 -0.000131402,-0.00225823l0 -0.00399105c0,-0.00987782 0.00743748,-0.0179596 0.0165278,-0.0179596z"/>
      <g style="clip-path:url(#id1)">
       <g>
        <ellipse id="_118683424" class="fil1" cx="0.0260541" cy="0.0410694" rx="0.0100673" ry="0.00686767"/>
       </g>
      </g>
      <path class="fil5 str5" d="M0.0179619 0.0434575l0.0161847 0c0.00909033,0 0.0165278,0.00808179 0.0165278,0.0179596l0 0.00399105c0,0.000764632 -4.49186e-005,0.00151809 -0.000131402,0.00225823l-0.0489775 0c-8.64836e-005,-0.000740141 -0.000131402,-0.00149359 -0.000131402,-0.00225823l0 -0.00399105c0,-0.00987782 0.00743748,-0.0179596 0.0165278,-0.0179596z"/>
      <g>
       <path id="_118720272" class="fil5 str6" d="M0.015682 0.0556223c0,0 -0.00359735,0.000541869 -0.00261625,0.0120441"/>
      </g>
      <g>
       <path id="_118720200" class="fil5 str6" d="M0.0375085 0.0556223c0,0 0.00359735,0.000541869 0.00261625,0.0120441"/>
      </g>
      <ellipse id="_118720152" class="fil6 str2" cx="0.0338877" cy="0.0247985" rx="0.000632163" ry="0.00190304"/>
      <circle id="_118720440" class="fil6" cx="0.0345198" cy="0.0244225" r="0.000447966"/>
      <circle id="_118720008" class="fil6" cx="0.0336819" cy="0.0258262" r="0.000300304"/>
     </g>
     <ellipse class="fil1" cx="0.0246904" cy="0.0133111" rx="0.0113599" ry="0.00556462"/>
    </g>
   </g>
   <ellipse class="fil8" cx="0.027723" cy="0.0829941" rx="0.0268249" ry="0.00474344"/>
  </g>
 </g>
</svg>
