<?xml version="1.0" encoding="UTF-8"?>
<!DOCTYPE svg PUBLIC "-//W3C//DTD SVG 1.1//EN" "http://www.w3.org/Graphics/SVG/1.1/DTD/svg11.dtd">
<!-- Creator: CorelDRAW -->
<svg xmlns="http://www.w3.org/2000/svg" xml:space="preserve" width="1.02386in" height="0.752681in" style="shape-rendering:geometricPrecision; text-rendering:geometricPrecision; image-rendering:optimizeQuality; fill-rule:evenodd; clip-rule:evenodd"
viewBox="0 0 0.0189814 0.013954"
 xmlns:xlink="http://www.w3.org/1999/xlink">
 <defs>
  <style type="text/css">
   <![CDATA[
    .str0 {stroke:#00CE8D;stroke-width:0.000128678}
    .fil5 {fill:#009062}
    .fil4 {fill:#00CE8D}
    .fil3 {fill:#00ECC0}
    .fil10 {fill:url(#id0)}
    .fil11 {fill:url(#id1)}
    .fil8 {fill:url(#id2)}
    .fil7 {fill:url(#id3)}
    .fil6 {fill:url(#id4)}
    .fil9 {fill:url(#id5)}
    .fil1 {fill:url(#id6)}
    .fil0 {fill:url(#id7)}
    .fil2 {fill:url(#id8)}
    .fil12 {fill:url(#id9)}
   ]]>
  </style>
  <linearGradient id="id0" gradientUnits="userSpaceOnUse" x1="0.000352315" y1="0.0133821" x2="0.00851679" y2="0.000562302">
   <stop offset="0" style="stop-color:#00CE8D"/>
   <stop offset="1" style="stop-color:#1C3130"/>
  </linearGradient>
  <linearGradient id="id1" gradientUnits="userSpaceOnUse" xlink:href="#id0" x1="9.62716e-005" y1="0.0132447" x2="0.00826089" y2="0.000424646">
  </linearGradient>
  <linearGradient id="id2" gradientUnits="userSpaceOnUse" xlink:href="#id0" x1="0.0008644" y1="0.0136571" x2="0.00902902" y2="0.000836957">
  </linearGradient>
  <linearGradient id="id3" gradientUnits="userSpaceOnUse" xlink:href="#id0" x1="0.00112052" y1="0.0137944" x2="0.00928499" y2="0.000974467">
  </linearGradient>
  <linearGradient id="id4" gradientUnits="userSpaceOnUse" xlink:href="#id0" x1="0.00137663" y1="0.0139319" x2="0.0095411" y2="0.00111183">
  </linearGradient>
  <linearGradient id="id5" gradientUnits="userSpaceOnUse" xlink:href="#id0" x1="0.00060843" y1="0.0135196" x2="0.0087729" y2="0.00069952">
  </linearGradient>
  <linearGradient id="id6" gradientUnits="userSpaceOnUse" xlink:href="#id0" x1="0.0108477" y1="0.00800302" x2="7.4594e-005" y2="0.00719949">
  </linearGradient>
  <linearGradient id="id7" gradientUnits="userSpaceOnUse" xlink:href="#id0" x1="0.0108477" y1="0.00829359" x2="7.4594e-005" y2="0.00749006">
  </linearGradient>
  <linearGradient id="id8" gradientUnits="userSpaceOnUse" xlink:href="#id0" x1="0.0104509" y1="0.00606825" x2="0.000471431" y2="0.00622816">
  </linearGradient>
  <linearGradient id="id9" gradientUnits="userSpaceOnUse" xlink:href="#id0" x1="0.000667186" y1="0.0114928" x2="0.0102815" y2="-0.0071284">
  </linearGradient>
 </defs>
 <g id="Layer_x0020_1">
  <metadata id="CorelCorpID_0Corel-Layer"/>
  <g id="_159737440">
   <g>
    <ellipse id="_122294016" class="fil0" cx="0.00546117" cy="0.00789185" rx="0.00539703" ry="0.00174366"/>
    <g>
     <path id="_159740272" class="fil1" d="M0.00546113 0.00934491c-0.00298026,0 -0.00539705,-0.000780829 -0.00539705,-0.00174369 0,-0.000962862 0.00241679,-0.00174362 0.00539705,-0.00174362 0.00298019,0 0.00539705,0.000780756 0.00539705,0.00174362 0,0.000962862 -0.00241686,0.00174369 -0.00539705,0.00174369z"/>
     <path id="_159740368" class="fil1" d="M0.00546113 0.00905427c-0.00298026,0 -0.00539705,-0.000780756 -0.00539705,-0.00174362 0,-0.000962862 0.00241679,-0.00174369 0.00539705,-0.00174369 0.00298019,0 0.00539705,0.000780829 0.00539705,0.00174369 0,0.000962862 -0.00241686,0.00174362 -0.00539705,0.00174362z"/>
     <path id="_159740536" class="fil1" d="M0.00546113 0.00876371c-0.00298026,0 -0.00539705,-0.000780829 -0.00539705,-0.00174369 0,-0.000962862 0.00241679,-0.00174362 0.00539705,-0.00174362 0.00298019,0 0.00539705,0.000780756 0.00539705,0.00174362 0,0.000962862 -0.00241686,0.00174369 -0.00539705,0.00174369z"/>
     <path id="_159739960" class="fil1" d="M0.00546113 0.00847307c-0.00298026,0 -0.00539705,-0.000780829 -0.00539705,-0.00174362 0,-0.000962862 0.00241679,-0.00174369 0.00539705,-0.00174369 0.00298019,0 0.00539705,0.000780829 0.00539705,0.00174369 0,0.000962789 -0.00241686,0.00174362 -0.00539705,0.00174362z"/>
     <path id="_159740440" class="fil1" d="M0.00546113 0.00818243c-0.00298026,0 -0.00539705,-0.000780756 -0.00539705,-0.00174362 0,-0.000962862 0.00241679,-0.00174369 0.00539705,-0.00174369 0.00298019,0 0.00539705,0.000780829 0.00539705,0.00174369 0,0.000962862 -0.00241686,0.00174362 -0.00539705,0.00174362z"/>
    </g>
    <ellipse id="_159756208" class="fil2 str0" cx="0.00546117" cy="0.00614819" rx="0.00539703" ry="0.00174366"/>
    <path id="_159759424" class="fil3" d="M0.00546113 0.00737328c-0.000984685,0 -0.00188164,-0.000121307 -0.00255569,-0.000320273 0.000642516,0.000161742 0.00144999,0.000257941 0.00232738,0.000257941 0.0020936,0 0.00379138,-0.000548726 0.00379138,-0.00122504 0,-0.000358008 -0.000476103,-0.000680251 -0.00123467,-0.000904252 0.000890165,0.00022422 0.00146298,0.000573761 0.00146298,0.000966511 0,0.00067631 -0.00169778,0.00122511 -0.00379138,0.00122511z"/>
    <ellipse id="_160541672" class="fil4" cx="0.00523283" cy="0.00608592" rx="0.00379147" ry="0.00122494"/>
    <g>
     <path id="_159739360" class="fil5" d="M0.00396297 0.00581892c2.5108e-005,1.2481e-005 0.00104943,0.000305894 0.00106278,0.000306405 5.83177e-005,1.97068e-006 0.000733751,-0.000335527 0.000869656,-0.000374503l-0.000297792 -0.00060989c-4.83912e-005,7.44481e-006 -0.000343848,0.000138313 -0.000406253,0.000165173 -0.000134298,5.79527e-005 -0.000272538,0.000112475 -0.000410559,0.000170574 -0.000130649,5.49602e-005 -0.000714482,0.000290274 -0.000817834,0.000342242z"/>
     <path id="_159739744" class="fil5" d="M0.0064737 0.00696965l-0.000286406 -0.000611131c-0.000160282,-1.77362e-005 -0.00110439,-0.000223344 -0.00115322,-0.000213783 -1.06563e-005,2.04367e-006 -0.000676893,0.000419537 -0.000701855,0.000446031l0.00214148 0.000378882z"/>
    </g>
    <g>
     <path id="_159750352" class="fil3" d="M0.00396297 0.00573666c2.5108e-005,1.2554e-005 0.00104943,0.000305894 0.00106278,0.000306405 5.83177e-005,2.04367e-006 0.000733751,-0.000335454 0.000869656,-0.000374503l-0.000297792 -0.00060989c-4.83912e-005,7.44481e-006 -0.000343848,0.000138313 -0.000406253,0.000165246 -0.000134298,5.78797e-005 -0.000272538,0.000112402 -0.000410559,0.000170501 -0.000130649,5.49602e-005 -0.000714482,0.000290347 -0.000817834,0.000342242z"/>
     <path id="_159738232" class="fil3" d="M0.0064737 0.00688739l-0.000286406 -0.000611131c-0.000160282,-1.76632e-005 -0.00110439,-0.000223344 -0.00115322,-0.000213783 -1.06563e-005,2.04367e-006 -0.000676893,0.000419537 -0.000701855,0.000446031l0.00214148 0.000378882z"/>
    </g>
   </g>
   <g>
    <ellipse id="_159754912" class="fil0" cx="0.00721917" cy="0.00567149" rx="0.00539703" ry="0.00174366"/>
    <g>
     <path id="_159739000" class="fil1" d="M0.00721913 0.00712453c-0.00298026,0 -0.00539705,-0.000780829 -0.00539705,-0.00174369 0,-0.000962789 0.00241679,-0.00174362 0.00539705,-0.00174362 0.00298019,0 0.00539705,0.000780829 0.00539705,0.00174362 0,0.000962862 -0.00241686,0.00174369 -0.00539705,0.00174369z"/>
     <path id="_159738664" class="fil1" d="M0.00721913 0.00683389c-0.00298026,0 -0.00539705,-0.000780756 -0.00539705,-0.00174362 0,-0.000962862 0.00241679,-0.00174369 0.00539705,-0.00174369 0.00298019,0 0.00539705,0.000780829 0.00539705,0.00174369 0,0.000962862 -0.00241686,0.00174362 -0.00539705,0.00174362z"/>
     <path id="_159738400" class="fil1" d="M0.00721913 0.00654333c-0.00298026,0 -0.00539705,-0.000780829 -0.00539705,-0.00174369 0,-0.000962862 0.00241679,-0.00174362 0.00539705,-0.00174362 0.00298019,0 0.00539705,0.000780756 0.00539705,0.00174362 0,0.000962862 -0.00241686,0.00174369 -0.00539705,0.00174369z"/>
     <path id="_159737800" class="fil1" d="M0.00721913 0.00625269c-0.00298026,0 -0.00539705,-0.000780756 -0.00539705,-0.00174362 0,-0.000962862 0.00241679,-0.00174369 0.00539705,-0.00174369 0.00298019,0 0.00539705,0.000780829 0.00539705,0.00174369 0,0.000962862 -0.00241686,0.00174362 -0.00539705,0.00174362z"/>
     <path id="_159737848" class="fil1" d="M0.00721913 0.00596212c-0.00298026,0 -0.00539705,-0.000780829 -0.00539705,-0.00174369 0,-0.000962862 0.00241679,-0.00174362 0.00539705,-0.00174362 0.00298019,0 0.00539705,0.000780756 0.00539705,0.00174362 0,0.000962862 -0.00241686,0.00174369 -0.00539705,0.00174369z"/>
    </g>
    <ellipse id="_159738472" class="fil2 str0" cx="0.00721917" cy="0.00392783" rx="0.00539703" ry="0.00174366"/>
    <path id="_159737152" class="fil3" d="M0.0072192 0.0051529c-0.000984758,0 -0.00188164,-0.000121307 -0.00255576,-0.0003202 0.000642516,0.000161669 0.00144999,0.000257941 0.00232738,0.000257941 0.0020936,0 0.00379138,-0.000548799 0.00379138,-0.00122511 0,-0.000358008 -0.00047603,-0.000680251 -0.0012346,-0.000904252 0.000890092,0.000224293 0.0014629,0.000573761 0.0014629,0.000966584 0,0.000676237 -0.00169771,0.00122504 -0.0037913,0.00122504z"/>
    <ellipse id="_159764680" class="fil4" cx="0.00699084" cy="0.00386556" rx="0.00379147" ry="0.00122494"/>
    <g>
     <path id="_159737104" class="fil5" d="M0.00572097 0.00359854c2.5181e-005,1.2554e-005 0.00104943,0.000305894 0.00106278,0.000306405 5.83177e-005,2.04367e-006 0.000733751,-0.000335454 0.000869656,-0.000374503l-0.000297792 -0.00060989c-4.83912e-005,7.44481e-006 -0.000343848,0.000138313 -0.000406253,0.000165246 -0.000134298,5.78797e-005 -0.000272538,0.000112402 -0.000410559,0.000170501 -0.000130649,5.49602e-005 -0.000714482,0.000290347 -0.000817834,0.000342242z"/>
     <path id="_159750064" class="fil5" d="M0.00823169 0.00474928l-0.000286406 -0.000611131c-0.000160209,-1.77362e-005 -0.00110439,-0.000223344 -0.00115322,-0.000213783 -1.06563e-005,2.04367e-006 -0.000676893,0.000419537 -0.000701855,0.000446031l0.00214148 0.000378882z"/>
    </g>
    <g>
     <path id="_159736696" class="fil3" d="M0.00572097 0.00351628c2.5181e-005,1.2554e-005 0.00104943,0.000305967 0.00106278,0.000306405 5.83177e-005,2.04367e-006 0.000733751,-0.000335454 0.000869656,-0.000374503l-0.000297792 -0.000609817c-4.83912e-005,7.44481e-006 -0.000343848,0.00013824 -0.000406253,0.000165173 -0.000134298,5.78797e-005 -0.000272538,0.000112475 -0.000410559,0.000170501 -0.000130649,5.49602e-005 -0.000714482,0.000290347 -0.000817834,0.000342242z"/>
     <path id="_159736216" class="fil3" d="M0.00823169 0.00466702l-0.000286406 -0.000611131c-0.000160209,-1.76632e-005 -0.00110439,-0.000223344 -0.00115322,-0.000213783 -1.06563e-005,2.11666e-006 -0.000676893,0.000419537 -0.000701855,0.000446104l0.00214148 0.000378809z"/>
    </g>
   </g>
   <g>
    <ellipse id="_159736432" class="fil0" cx="0.00851062" cy="0.00384338" rx="0.00539703" ry="0.00174366"/>
    <g>
     <path id="_159736120" class="fil1" d="M0.00851058 0.0052964c-0.00298026,0 -0.00539705,-0.000780756 -0.00539705,-0.00174362 0,-0.000962862 0.00241679,-0.00174369 0.00539705,-0.00174369 0.00298019,0 0.00539705,0.000780829 0.00539705,0.00174369 0,0.000962862 -0.00241686,0.00174362 -0.00539705,0.00174362z"/>
     <path id="_159736384" class="fil1" d="M0.00851058 0.00500583c-0.00298026,0 -0.00539705,-0.000780829 -0.00539705,-0.00174369 0,-0.000962862 0.00241679,-0.00174362 0.00539705,-0.00174362 0.00298019,0 0.00539705,0.000780756 0.00539705,0.00174362 0,0.000962862 -0.00241686,0.00174369 -0.00539705,0.00174369z"/>
     <path id="_159750040" class="fil1" d="M0.00851058 0.00471519c-0.00298026,0 -0.00539705,-0.000780756 -0.00539705,-0.00174362 0,-0.000962862 0.00241679,-0.00174369 0.00539705,-0.00174369 0.00298019,0 0.00539705,0.000780829 0.00539705,0.00174369 0,0.000962862 -0.00241686,0.00174362 -0.00539705,0.00174362z"/>
     <path id="_160541408" class="fil1" d="M0.00851058 0.00442462c-0.00298026,0 -0.00539705,-0.000780829 -0.00539705,-0.00174369 0,-0.000962862 0.00241679,-0.00174362 0.00539705,-0.00174362 0.00298019,0 0.00539705,0.000780756 0.00539705,0.00174362 0,0.000962862 -0.00241686,0.00174369 -0.00539705,0.00174369z"/>
     <path id="_160540352" class="fil1" d="M0.00851058 0.00413398c-0.00298026,0 -0.00539705,-0.000780829 -0.00539705,-0.00174362 0,-0.000962862 0.00241679,-0.00174369 0.00539705,-0.00174369 0.00298019,0 0.00539705,0.000780829 0.00539705,0.00174369 0,0.000962789 -0.00241686,0.00174362 -0.00539705,0.00174362z"/>
    </g>
    <ellipse id="_159736768" class="fil2 str0" cx="0.00851062" cy="0.00209972" rx="0.00539703" ry="0.00174366"/>
    <path id="_160541504" class="fil3" d="M0.00851065 0.00332476c-0.000984758,0 -0.00188171,-0.000121234 -0.00255576,-0.0003202 0.000642516,0.000161669 0.00144999,0.000257941 0.00232738,0.000257941 0.0020936,0 0.00379138,-0.000548799 0.00379138,-0.00122504 0,-0.000358081 -0.000476103,-0.000680251 -0.00123467,-0.000904252 0.000890165,0.00022422 0.00146298,0.000573761 0.00146298,0.000966511 0,0.000676237 -0.00169778,0.00122504 -0.0037913,0.00122504z"/>
    <ellipse id="_159757048" class="fil4" cx="0.00828228" cy="0.00203745" rx="0.00379147" ry="0.00122494"/>
    <g>
     <path id="_160539392" class="fil5" d="M0.00701242 0.0017704c2.5108e-005,1.2554e-005 0.00104943,0.000305967 0.00106278,0.000306405 5.83177e-005,2.04367e-006 0.000733751,-0.000335454 0.000869656,-0.000374503l-0.000297792 -0.000609817c-4.83912e-005,7.44481e-006 -0.000343848,0.00013824 -0.000406253,0.000165173 -0.000134298,5.79527e-005 -0.000272538,0.000112475 -0.000410559,0.000170501 -0.000130649,5.49602e-005 -0.000714482,0.000290347 -0.000817834,0.000342242z"/>
     <path id="_160541048" class="fil5" d="M0.00952315 0.00292114l-0.000286406 -0.000611058c-0.000160209,-1.77362e-005 -0.00110439,-0.000223417 -0.00115322,-0.000213856 -1.06563e-005,2.11666e-006 -0.000676893,0.000419537 -0.000701855,0.000446104l0.00214148 0.000378809z"/>
    </g>
    <g>
     <path id="_160541192" class="fil3" d="M0.00701242 0.00168822c2.5108e-005,1.2481e-005 0.00104943,0.000305894 0.00106278,0.000306332 5.83177e-005,2.04367e-006 0.000733751,-0.000335454 0.000869656,-0.00037443l-0.000297792 -0.00060989c-4.83912e-005,7.44481e-006 -0.000343848,0.00013824 -0.000406253,0.000165173 -0.000134298,5.79527e-005 -0.000272538,0.000112475 -0.000410559,0.000170501 -0.000130649,5.49602e-005 -0.000714482,0.000290347 -0.000817834,0.000342315z"/>
     <path id="_160539656" class="fil3" d="M0.00952315 0.00283895l-0.000286406 -0.000611131c-0.000160209,-1.77362e-005 -0.00110439,-0.000223344 -0.00115322,-0.000213783 -1.06563e-005,2.04367e-006 -0.000676893,0.000419537 -0.000701855,0.000446031l0.00214148 0.000378882z"/>
    </g>
   </g>
   <g>
    <ellipse id="_160542320" class="fil0" cx="0.0135202" cy="0.0103397" rx="0.00539703" ry="0.00174366"/>
    <g>
     <path id="_160541792" class="fil1" d="M0.0135202 0.0117927c-0.00298026,0 -0.00539705,-0.000780829 -0.00539705,-0.00174369 0,-0.000962789 0.00241679,-0.00174362 0.00539705,-0.00174362 0.00298019,0 0.00539697,0.000780829 0.00539697,0.00174362 0,0.000962862 -0.00241679,0.00174369 -0.00539697,0.00174369z"/>
     <path id="_159750208" class="fil1" d="M0.0135202 0.0115021c-0.00298026,0 -0.00539705,-0.000780756 -0.00539705,-0.00174362 0,-0.000962862 0.00241679,-0.00174369 0.00539705,-0.00174369 0.00298019,0 0.00539697,0.000780829 0.00539697,0.00174369 0,0.000962862 -0.00241679,0.00174362 -0.00539697,0.00174362z"/>
     <path id="_159768136" class="fil1" d="M0.0135202 0.0112115c-0.00298026,0 -0.00539705,-0.000780829 -0.00539705,-0.00174369 0,-0.000962862 0.00241679,-0.00174362 0.00539705,-0.00174362 0.00298019,0 0.00539697,0.000780756 0.00539697,0.00174362 0,0.000962862 -0.00241679,0.00174369 -0.00539697,0.00174369z"/>
     <path id="_159767776" class="fil1" d="M0.0135202 0.0109209c-0.00298026,0 -0.00539705,-0.000780756 -0.00539705,-0.00174362 0,-0.000962862 0.00241679,-0.00174369 0.00539705,-0.00174369 0.00298019,0 0.00539697,0.000780829 0.00539697,0.00174369 0,0.000962862 -0.00241679,0.00174362 -0.00539697,0.00174362z"/>
     <path id="_159767896" class="fil1" d="M0.0135202 0.0106303c-0.00298026,0 -0.00539705,-0.000780829 -0.00539705,-0.00174369 0,-0.000962862 0.00241679,-0.00174362 0.00539705,-0.00174362 0.00298019,0 0.00539697,0.000780756 0.00539697,0.00174362 0,0.000962862 -0.00241679,0.00174369 -0.00539697,0.00174369z"/>
    </g>
    <ellipse id="_160541984" class="fil2 str0" cx="0.0135202" cy="0.00859602" rx="0.00539703" ry="0.00174366"/>
    <path id="_159767656" class="fil3" d="M0.0135202 0.00982109c-0.000984758,0 -0.00188164,-0.000121307 -0.00255569,-0.0003202 0.000642443,0.000161669 0.00144999,0.000257941 0.00232738,0.000257941 0.0020936,0 0.00379138,-0.000548799 0.00379138,-0.00122511 0,-0.000358008 -0.000476103,-0.000680251 -0.00123467,-0.000904252 0.000890165,0.000224293 0.00146298,0.000573761 0.00146298,0.000966584 0,0.000676237 -0.00169778,0.00122504 -0.00379138,0.00122504z"/>
    <ellipse id="_159767944" class="fil4" cx="0.0132919" cy="0.00853374" rx="0.00379147" ry="0.00122494"/>
    <g>
     <path id="_159766144" class="fil5" d="M0.012022 0.00826673c2.5108e-005,1.2554e-005 0.00104943,0.000305894 0.00106278,0.000306405 5.82447e-005,2.04367e-006 0.000733751,-0.000335454 0.000869583,-0.000374503l-0.000297792 -0.00060989c-4.83183e-005,7.44481e-006 -0.000343775,0.000138313 -0.000406253,0.000165246 -0.000134225,5.78797e-005 -0.000272465,0.000112402 -0.000410486,0.000170501 -0.000130722,5.49602e-005 -0.000714482,0.000290347 -0.000817834,0.000342242z"/>
     <path id="_159766384" class="fil5" d="M0.0145328 0.00941746l-0.000286479 -0.000611131c-0.000160209,-1.77362e-005 -0.00110439,-0.000223344 -0.00115322,-0.000213783 -1.05833e-005,2.04367e-006 -0.000676821,0.000419537 -0.000701783,0.000446031l0.00214148 0.000378882z"/>
    </g>
    <g>
     <path id="_159766432" class="fil3" d="M0.012022 0.00818447c2.5108e-005,1.2554e-005 0.00104943,0.000305967 0.00106278,0.000306405 5.82447e-005,2.04367e-006 0.000733751,-0.000335454 0.000869583,-0.000374503l-0.000297792 -0.000609817c-4.83183e-005,7.37182e-006 -0.000343775,0.00013824 -0.000406253,0.000165173 -0.000134225,5.78797e-005 -0.000272465,0.000112475 -0.000410486,0.000170501 -0.000130722,5.49602e-005 -0.000714482,0.000290347 -0.000817834,0.000342242z"/>
     <path id="_159766888" class="fil3" d="M0.0145328 0.0093352l-0.000286479 -0.000611131c-0.000160209,-1.76632e-005 -0.00110439,-0.000223344 -0.00115322,-0.000213783 -1.05833e-005,2.11666e-006 -0.000676821,0.000419537 -0.000701783,0.000446104l0.00214148 0.000378809z"/>
    </g>
   </g>
   <g>
    <ellipse id="_159767488" class="fil0" cx="0.0119304" cy="0.0082962" rx="0.00539703" ry="0.00174366"/>
    <g>
     <path id="_159767056" class="fil1" d="M0.0119303 0.00974927c-0.00298019,0 -0.00539705,-0.000780829 -0.00539705,-0.00174369 0,-0.000962862 0.00241686,-0.00174362 0.00539705,-0.00174362 0.00298026,0 0.00539705,0.000780756 0.00539705,0.00174362 0,0.000962862 -0.00241679,0.00174369 -0.00539705,0.00174369z"/>
     <path id="_159767224" class="fil1" d="M0.0119303 0.00945863c-0.00298019,0 -0.00539705,-0.000780756 -0.00539705,-0.00174362 0,-0.000962862 0.00241686,-0.00174369 0.00539705,-0.00174369 0.00298026,0 0.00539705,0.000780829 0.00539705,0.00174369 0,0.000962862 -0.00241679,0.00174362 -0.00539705,0.00174362z"/>
     <path id="_159766816" class="fil1" d="M0.0119303 0.00916806c-0.00298019,0 -0.00539705,-0.000780829 -0.00539705,-0.00174369 0,-0.000962862 0.00241686,-0.00174362 0.00539705,-0.00174362 0.00298026,0 0.00539705,0.000780756 0.00539705,0.00174362 0,0.000962862 -0.00241679,0.00174369 -0.00539705,0.00174369z"/>
     <path id="_159765664" class="fil1" d="M0.0119303 0.00887742c-0.00298019,0 -0.00539705,-0.000780829 -0.00539705,-0.00174369 0,-0.000962789 0.00241686,-0.00174362 0.00539705,-0.00174362 0.00298026,0 0.00539705,0.000780829 0.00539705,0.00174362 0,0.000962862 -0.00241679,0.00174369 -0.00539705,0.00174369z"/>
     <path id="_159765328" class="fil1" d="M0.0119303 0.00858678c-0.00298019,0 -0.00539705,-0.000780756 -0.00539705,-0.00174362 0,-0.000962862 0.00241686,-0.00174369 0.00539705,-0.00174369 0.00298026,0 0.00539705,0.000780829 0.00539705,0.00174369 0,0.000962862 -0.00241679,0.00174362 -0.00539705,0.00174362z"/>
    </g>
    <ellipse id="_159767440" class="fil2 str0" cx="0.0119304" cy="0.00655255" rx="0.00539703" ry="0.00174366"/>
    <path id="_159765424" class="fil3" d="M0.0119304 0.00777763c-0.000984758,0 -0.00188164,-0.000121307 -0.00255569,-0.000320273 0.000642443,0.000161742 0.00144999,0.000257941 0.0023273,0.000257941 0.0020936,0 0.00379138,-0.000548726 0.00379138,-0.00122504 0,-0.000358008 -0.00047603,-0.000680251 -0.0012346,-0.000904252 0.000890165,0.00022422 0.00146298,0.000573761 0.00146298,0.000966511 0,0.00067631 -0.00169778,0.00122511 -0.00379138,0.00122511z"/>
    <ellipse id="_159765472" class="fil4" cx="0.011702" cy="0.00649027" rx="0.00379147" ry="0.00122494"/>
    <g>
     <path id="_159766528" class="fil5" d="M0.0104321 0.00622327c2.5181e-005,1.2481e-005 0.00104943,0.000305894 0.00106278,0.000306405 5.83177e-005,1.97068e-006 0.000733824,-0.000335527 0.000869656,-0.000374503l-0.000297792 -0.00060989c-4.83912e-005,7.44481e-006 -0.000343848,0.000138313 -0.000406253,0.000165173 -0.000134298,5.79527e-005 -0.000272465,0.000112475 -0.000410559,0.000170574 -0.000130649,5.49602e-005 -0.000714482,0.000290274 -0.000817834,0.000342242z"/>
     <path id="_159766000" class="fil5" d="M0.0129429 0.00737401l-0.000286406 -0.000611131c-0.000160209,-1.77362e-005 -0.00110439,-0.000223344 -0.00115322,-0.000213783 -1.06563e-005,2.04367e-006 -0.000676893,0.000419537 -0.000701855,0.000446031l0.00214148 0.000378882z"/>
    </g>
    <g>
     <path id="_159766600" class="fil3" d="M0.0104321 0.00614102c2.5181e-005,1.2554e-005 0.00104943,0.000305894 0.00106278,0.000306405 5.83177e-005,2.04367e-006 0.000733824,-0.000335454 0.000869656,-0.000374503l-0.000297792 -0.00060989c-4.83912e-005,7.44481e-006 -0.000343848,0.000138313 -0.000406253,0.000165246 -0.000134298,5.78797e-005 -0.000272465,0.000112402 -0.000410559,0.000170501 -0.000130649,5.49602e-005 -0.000714482,0.000290347 -0.000817834,0.000342242z"/>
     <path id="_159766360" class="fil3" d="M0.0129429 0.00729175l-0.000286406 -0.000611131c-0.000160209,-1.76632e-005 -0.00110439,-0.000223344 -0.00115322,-0.000213783 -1.06563e-005,2.04367e-006 -0.000676893,0.000419537 -0.000701855,0.000446031l0.00214148 0.000378882z"/>
    </g>
   </g>
   <g>
    <ellipse id="_159764704" class="fil0" cx="0.0103402" cy="0.00669852" rx="0.00539703" ry="0.00174366"/>
    <g>
     <path id="_159764776" class="fil1" d="M0.0103402 0.00815155c-0.00298019,0 -0.00539705,-0.000780756 -0.00539705,-0.00174362 0,-0.000962862 0.00241686,-0.00174369 0.00539705,-0.00174369 0.00298026,0 0.00539705,0.000780829 0.00539705,0.00174369 0,0.000962862 -0.00241679,0.00174362 -0.00539705,0.00174362z"/>
     <path id="_159764872" class="fil1" d="M0.0103402 0.00786099c-0.00298019,0 -0.00539705,-0.000780829 -0.00539705,-0.00174369 0,-0.000962862 0.00241686,-0.00174369 0.00539705,-0.00174369 0.00298026,0 0.00539705,0.000780829 0.00539705,0.00174369 0,0.000962862 -0.00241679,0.00174369 -0.00539705,0.00174369z"/>
     <path id="_159765112" class="fil1" d="M0.0103402 0.00757035c-0.00298019,0 -0.00539705,-0.000780829 -0.00539705,-0.00174369 0,-0.000962789 0.00241686,-0.00174362 0.00539705,-0.00174362 0.00298026,0 0.00539705,0.000780829 0.00539705,0.00174362 0,0.000962862 -0.00241679,0.00174369 -0.00539705,0.00174369z"/>
     <path id="_159765568" class="fil1" d="M0.0103402 0.00727971c-0.00298019,0 -0.00539705,-0.000780756 -0.00539705,-0.00174362 0,-0.000962862 0.00241686,-0.00174369 0.00539705,-0.00174369 0.00298026,0 0.00539705,0.000780829 0.00539705,0.00174369 0,0.000962862 -0.00241679,0.00174362 -0.00539705,0.00174362z"/>
     <path id="_159765304" class="fil1" d="M0.0103402 0.00698914c-0.00298019,0 -0.00539705,-0.000780829 -0.00539705,-0.00174369 0,-0.000962862 0.00241686,-0.00174362 0.00539705,-0.00174362 0.00298026,0 0.00539705,0.000780756 0.00539705,0.00174362 0,0.000962862 -0.00241679,0.00174369 -0.00539705,0.00174369z"/>
    </g>
    <ellipse id="_159764824" class="fil2 str0" cx="0.0103402" cy="0.00495486" rx="0.00539703" ry="0.00174366"/>
    <path id="_159765256" class="fil3" d="M0.0103403 0.00617992c-0.000984758,0 -0.00188164,-0.000121234 -0.00255569,-0.0003202 0.000642443,0.000161669 0.00144999,0.000257941 0.0023273,0.000257941 0.0020936,0 0.00379138,-0.000548799 0.00379138,-0.00122511 0,-0.000358008 -0.00047603,-0.000680178 -0.0012346,-0.000904252 0.000890092,0.000224293 0.00146298,0.000573834 0.00146298,0.000966584 0,0.000676237 -0.00169778,0.00122504 -0.00379138,0.00122504z"/>
    <ellipse id="_159765232" class="fil4" cx="0.0101119" cy="0.00489259" rx="0.00379147" ry="0.00122494"/>
    <g>
     <path id="_159753136" class="fil5" d="M0.00884202 0.00462556c2.5181e-005,1.2554e-005 0.00104943,0.000305967 0.00106278,0.000306405 5.83177e-005,2.04367e-006 0.000733824,-0.000335454 0.000869656,-0.000374503l-0.000297792 -0.00060989c-4.83912e-005,7.44481e-006 -0.000343848,0.000138313 -0.000406253,0.000165246 -0.000134298,5.78797e-005 -0.000272465,0.000112402 -0.000410559,0.000170501 -0.000130649,5.49602e-005 -0.000714482,0.000290347 -0.000817834,0.000342242z"/>
     <path id="_122292672" class="fil5" d="M0.0113527 0.00577629l-0.000286406 -0.000611131c-0.000160209,-1.76632e-005 -0.00110439,-0.000223344 -0.00115322,-0.000213783 -1.06563e-005,2.11666e-006 -0.000676893,0.000419537 -0.000701855,0.000446104l0.00214148 0.000378809z"/>
    </g>
    <g>
     <path id="_159753472" class="fil3" d="M0.00884202 0.0045433c2.5181e-005,1.2554e-005 0.00104943,0.000305967 0.00106278,0.000306405 5.83177e-005,2.04367e-006 0.000733824,-0.000335454 0.000869656,-0.000374503l-0.000297792 -0.000609817c-4.83912e-005,7.44481e-006 -0.000343848,0.00013824 -0.000406253,0.000165173 -0.000134298,5.79527e-005 -0.000272465,0.000112475 -0.000410559,0.000170501 -0.000130649,5.49602e-005 -0.000714482,0.000290347 -0.000817834,0.000342242z"/>
     <path id="_159752224" class="fil3" d="M0.0113527 0.00569404l-0.000286406 -0.000611058c-0.000160209,-1.77362e-005 -0.00110439,-0.000223417 -0.00115322,-0.000213856 -1.06563e-005,2.11666e-006 -0.000676893,0.000419537 -0.000701855,0.000446104l0.00214148 0.000378809z"/>
    </g>
   </g>
   <g>
    <ellipse id="_159752656" class="fil0" cx="0.00976412" cy="0.00355187" rx="0.00539703" ry="0.00174366"/>
    <g>
     <path id="_159760432" class="fil1" d="M0.00976408 0.00500488c-0.00298026,0 -0.00539705,-0.000780756 -0.00539705,-0.00174362 0,-0.000962862 0.00241679,-0.00174369 0.00539705,-0.00174369 0.00298019,0 0.00539705,0.000780829 0.00539705,0.00174369 0,0.000962862 -0.00241686,0.00174362 -0.00539705,0.00174362z"/>
     <path id="_159760456" class="fil1" d="M0.00976408 0.00471431c-0.00298026,0 -0.00539705,-0.000780829 -0.00539705,-0.00174369 0,-0.000962862 0.00241679,-0.00174362 0.00539705,-0.00174362 0.00298019,0 0.00539705,0.000780756 0.00539705,0.00174362 0,0.000962862 -0.00241686,0.00174369 -0.00539705,0.00174369z"/>
     <path id="_159764224" class="fil1" d="M0.00976408 0.00442367c-0.00298026,0 -0.00539705,-0.000780756 -0.00539705,-0.00174362 0,-0.000962862 0.00241679,-0.00174369 0.00539705,-0.00174369 0.00298019,0 0.00539705,0.000780829 0.00539705,0.00174369 0,0.000962862 -0.00241686,0.00174362 -0.00539705,0.00174362z"/>
     <path id="_159764344" class="fil1" d="M0.00976408 0.00413311c-0.00298026,0 -0.00539705,-0.000780829 -0.00539705,-0.00174369 0,-0.000962862 0.00241679,-0.00174362 0.00539705,-0.00174362 0.00298019,0 0.00539705,0.000780756 0.00539705,0.00174362 0,0.000962862 -0.00241686,0.00174369 -0.00539705,0.00174369z"/>
     <path id="_159763768" class="fil1" d="M0.00976408 0.00384247c-0.00298026,0 -0.00539705,-0.000780756 -0.00539705,-0.00174362 0,-0.000962862 0.00241679,-0.00174369 0.00539705,-0.00174369 0.00298019,0 0.00539705,0.000780829 0.00539705,0.00174369 0,0.000962862 -0.00241686,0.00174362 -0.00539705,0.00174362z"/>
    </g>
    <ellipse id="_159759136" class="fil2 str0" cx="0.00976412" cy="0.00180821" rx="0.00539703" ry="0.00174366"/>
    <path id="_159763744" class="fil3" d="M0.00976416 0.00303325c-0.000984758,0 -0.00188171,-0.000121234 -0.00255576,-0.0003202 0.000642516,0.000161669 0.00144999,0.000257941 0.00232738,0.000257941 0.0020936,0 0.00379138,-0.000548799 0.00379138,-0.00122504 0,-0.000358081 -0.000476103,-0.000680251 -0.00123467,-0.000904252 0.000890165,0.00022422 0.00146298,0.000573761 0.00146298,0.000966511 0,0.00067631 -0.00169778,0.00122504 -0.0037913,0.00122504z"/>
    <ellipse id="_159753520" class="fil4" cx="0.00953579" cy="0.00174594" rx="0.00379147" ry="0.00122494"/>
    <g>
     <path id="_159753424" class="fil5" d="M0.00826592 0.00147889c2.5108e-005,1.2554e-005 0.00104943,0.000305967 0.00106278,0.000306405 5.83177e-005,2.04367e-006 0.000733751,-0.000335454 0.000869656,-0.000374503l-0.000297792 -0.000609817c-4.83912e-005,7.44481e-006 -0.000343848,0.00013824 -0.000406253,0.000165173 -0.000134298,5.79527e-005 -0.000272538,0.000112475 -0.000410559,0.000170501 -0.000130649,5.49602e-005 -0.000714482,0.000290347 -0.000817834,0.000342242z"/>
     <path id="_159750400" class="fil5" d="M0.0107766 0.0026297l-0.000286406 -0.000611131c-0.000160209,-1.77362e-005 -0.00110439,-0.000223417 -0.00115322,-0.000213856 -1.06563e-005,2.11666e-006 -0.000676893,0.000419537 -0.000701855,0.000446104l0.00214148 0.000378882z"/>
    </g>
    <g>
     <path id="_159754696" class="fil3" d="M0.00826592 0.0013967c2.5108e-005,1.2481e-005 0.00104943,0.000305894 0.00106278,0.000306405 5.83177e-005,1.97068e-006 0.000733751,-0.000335527 0.000869656,-0.000374503l-0.000297792 -0.00060989c-4.83912e-005,7.44481e-006 -0.000343848,0.000138313 -0.000406253,0.000165173 -0.000134298,5.79527e-005 -0.000272538,0.000112475 -0.000410559,0.000170574 -0.000130649,5.48872e-005 -0.000714482,0.000290274 -0.000817834,0.000342242z"/>
     <path id="_159754840" class="fil3" d="M0.0107766 0.00254744l-0.000286406 -0.000611131c-0.000160209,-1.77362e-005 -0.00110439,-0.000223344 -0.00115322,-0.000213783 -1.06563e-005,2.04367e-006 -0.000676893,0.000419537 -0.000701855,0.000446031l0.00214148 0.000378882z"/>
    </g>
   </g>
   <g>
    <path id="_159755416" class="fil6" d="M0.00761728 0.00995247c-0.0014094,0.00262568 -0.00324046,0.00438616 -0.00408866,0.00393071 -0.000848562,-0.000455301 -0.00039348,-0.00295406 0.001016,-0.00558003 0.00140948,-0.00262583 0.00324039,-0.00438601 0.00408873,-0.00393049 0.000848416,0.000455301 0.000393407,0.00295398 -0.00101607,0.00557981z"/>
    <g>
     <path id="_159756424" class="fil7" d="M0.00736138 0.00981503c-0.00140955,0.00262605 -0.00324075,0.00438609 -0.00408888,0.00393064 -0.000848489,-0.000455301 -0.000393407,-0.00295391 0.00101622,-0.00557974 0.00140933,-0.00262605 0.00324046,-0.00438616 0.00408859,-0.00393057 0.000848489,0.000455155 0.000393407,0.00295406 -0.00101592,0.00557966z"/>
     <path id="_159757072" class="fil8" d="M0.00710505 0.00967752c-0.00140955,0.00262583 -0.00324032,0.00438616 -0.0040888,0.00393086 -0.000848124,-0.000455374 -0.000393115,-0.00295427 0.00101607,-0.00558025 0.00140962,-0.00262554 0.00324061,-0.00438572 0.00408902,-0.00393035 0.000848489,0.000455301 0.000393407,0.00295413 -0.00101629,0.00557974z"/>
     <path id="_159757096" class="fil9" d="M0.00684944 0.00954037c-0.00140984,0.00262583 -0.00324105,0.00438587 -0.00408917,0.00393042 -0.000848416,-0.000455301 -0.000393261,-0.00295391 0.00101636,-0.00557988 0.00140933,-0.00262568 0.00324046,-0.00438587 0.00408851,-0.00393057 0.000848562,0.00045552 0.000393553,0.00295427 -0.00101571,0.00558003z"/>
     <path id="_159757120" class="fil10" d="M0.00659311 0.00940294c-0.00140977,0.00262583 -0.00324053,0.00438572 -0.0040888,0.00393035 -0.000848416,-0.000455155 -0.000393334,-0.00295398 0.00101607,-0.00557974 0.00140955,-0.0026259 0.00324053,-0.00438601 0.00408895,-0.00393078 0.00084827,0.00045552 0.000393261,0.00295435 -0.00101622,0.00558017z"/>
     <path id="_159756856" class="fil11" d="M0.00633706 0.00926535c-0.00140948,0.00262597 -0.00324046,0.00438609 -0.00408902,0.00393071 -0.000848197,-0.000455447 -0.000393115,-0.0029542 0.00101629,-0.00558032 0.00140948,-0.00262568 0.00324061,-0.00438572 0.0040888,-0.00393035 0.000848489,0.00045552 0.000393407,0.00295427 -0.00101607,0.00557996z"/>
    </g>
    <path id="_159756304" class="fil12 str0" d="M0.00608124 0.00912814c-0.0014097,0.00262605 -0.0032409,0.00438543 -0.00408888,0.00393013 -0.000848416,-0.000455228 -0.000393699,-0.00295369 0.00101585,-0.00557966 0.00140926,-0.00262575 0.00324075,-0.00438587 0.00408888,-0.00393057 0.000848124,0.00045552 0.000393699,0.00295413 -0.00101585,0.0055801z"/>
    <path id="_159758200" class="fil3" d="M0.00562404 0.0088826c-0.000465738,0.000867685 -0.000996801,0.00160056 -0.00149086,0.00210038 0.000446323,-0.000489606 0.000913011,-0.00115562 0.00132802,-0.00192864 0.000990159,-0.00184463 0.00130956,-0.00360007 0.00071368,-0.00391991 -0.000315455,-0.000169333 -0.000824476,9.77313e-005 -0.00138065,0.000660106 0.000618576,-0.000678207 0.00119752,-0.0010176 0.00154356,-0.000831848 0.000595803,0.000319835 0.000276407,0.00207528 -0.000713753,0.00391991z"/>
    <ellipse id="_159758560" class="fil4" transform="matrix(-0.258175 0.480973 -0.480973 -0.258175 0.00438179 0.00847495)" rx="0.00694557" ry="0.00224395"/>
    <g>
     <path id="_159752248" class="fil5" d="M0.00354592 0.00946753c2.29913e-005,-1.62034e-005 0.000765866,-0.000779953 0.000772654,-0.000791485 2.93413e-005,-5.04349e-005 5.14568e-005,-0.000805207 8.1309e-005,-0.000943374l-0.000678207 -2.60568e-005c-1.62764e-005,4.62016e-005 -4.08005e-005,0.000368372 -4.65665e-005,0.000436105 -1.2481e-005,0.000145685 -2.97792e-005,0.000293267 -4.3939e-005,0.000442382 -1.33569e-005,0.000141086 -8.21118e-005,0.000766815 -8.52503e-005,0.000882429z"/>
     <path id="_159752704" class="fil5" d="M0.00574732 0.0077996l-0.000673974 -3.66401e-005c-9.13814e-005,0.000132766 -0.000719081,0.000867393 -0.000733751,0.000914908 -3.21149e-006,1.03643e-005 4.94861e-005,0.000794843 6.10912e-005,0.000829366l0.00134663 -0.00170763z"/>
    </g>
    <g>
     <path id="_159752272" class="fil3" d="M0.00347351 0.00942863c2.29183e-005,-1.62034e-005 0.000765866,-0.000779953 0.000772581,-0.000791485 2.93413e-005,-5.04349e-005 5.14568e-005,-0.000805207 8.1309e-005,-0.000943374l-0.000678207 -2.59838e-005c-1.62764e-005,4.61286e-005 -4.07275e-005,0.000368299 -4.65665e-005,0.000436032 -1.2481e-005,0.000145685 -2.97792e-005,0.000293267 -4.3939e-005,0.000442382 -1.33569e-005,0.000141086 -8.20388e-005,0.000766815 -8.51773e-005,0.000882429z"/>
     <path id="_159752344" class="fil3" d="M0.00567484 0.0077607l-0.000673901 -3.66401e-005c-9.13814e-005,0.000132766 -0.000719154,0.000867393 -0.000733824,0.000914981 -3.21149e-006,1.02914e-005 4.95591e-005,0.00079477 6.10912e-005,0.000829293l0.00134663 -0.00170763z"/>
    </g>
   </g>
  </g>
 </g>
</svg>
