<?xml version="1.0" encoding="UTF-8"?>
<!DOCTYPE svg PUBLIC "-//W3C//DTD SVG 1.1//EN" "http://www.w3.org/Graphics/SVG/1.1/DTD/svg11.dtd">
<!-- Creator: CorelDRAW -->
<svg xmlns="http://www.w3.org/2000/svg" xml:space="preserve" width="0.922906in" height="0.898543in" style="shape-rendering:geometricPrecision; text-rendering:geometricPrecision; image-rendering:optimizeQuality; fill-rule:evenodd; clip-rule:evenodd"
viewBox="0 0 0.0140436 0.0136729"
 xmlns:xlink="http://www.w3.org/1999/xlink">
 <defs>
  <style type="text/css">
   <![CDATA[
    .str1 {stroke:#1C3130;stroke-width:0.000422593}
    .str0 {stroke:#1C3130;stroke-width:0.000422653}
    .fil3 {fill:#00CE8D}
    .fil1 {fill:#0E9E2D}
    .fil2 {fill:#13DE40}
    .fil0 {fill:#2AD2BE}
   ]]>
  </style>
 </defs>
 <g id="Layer_x0020_1">
  <metadata id="CorelCorpID_0Corel-Layer"/>
  <g id="_160541336">
   <g>
    <circle id="_159758512" class="fil0 str0" cx="0.0107018" cy="0.00400223" r="0.00303849"/>
    <circle id="_159759448" class="fil0 str0" cx="0.0107019" cy="0.00400226" r="0.00137639"/>
   </g>
   <g>
    <circle id="_159758152" class="fil1 str0" cx="0.00426007" cy="0.00324894" r="0.00303849"/>
    <circle id="_159752200" class="fil1 str0" cx="0.00426011" cy="0.00324898" r="0.00137639"/>
   </g>
   <g>
    <circle id="_159759808" class="fil2 str0" cx="0.00753376" cy="0.00503433" r="0.00303849"/>
    <circle id="_159759616" class="fil2 str0" cx="0.00753379" cy="0.00503436" r="0.00137639"/>
   </g>
   <g>
    <path id="_122293776" class="fil3 str0" d="M0.000211356 0.00412312l0.0109413 0c0.00077048,0 0.00140077,0.000630295 0.00140077,0.00140077l0 0.00653683c0,0.00077048 -0.000630295,0.00140077 -0.00140077,0.00140077l-0.0109413 0 0 -0.00933838z"/>
    <path id="_159755200" class="fil3 str0" d="M0.00942668 0.00720145l0.00440553 0 0 0.00331574 -0.00440553 0c-0.000547142,0 -0.000994716,-0.000447574 -0.000994716,-0.000994716l0 -0.00132631c0,-0.000547142 0.000447574,-0.000994716 0.000994716,-0.000994716z"/>
    <circle id="_159757336" class="fil3 str1" cx="0.010323" cy="0.00901529" r="0.000546423"/>
   </g>
  </g>
 </g>
</svg>
