<?xml version="1.0" encoding="UTF-8"?>
<!DOCTYPE svg PUBLIC "-//W3C//DTD SVG 1.1//EN" "http://www.w3.org/Graphics/SVG/1.1/DTD/svg11.dtd">
<!-- Creator: CorelDRAW -->
<svg xmlns="http://www.w3.org/2000/svg" xml:space="preserve" width="0.790583in" height="0.938268in" style="shape-rendering:geometricPrecision; text-rendering:geometricPrecision; image-rendering:optimizeQuality; fill-rule:evenodd; clip-rule:evenodd"
viewBox="0 0 0.0107992 0.0128165"
 xmlns:xlink="http://www.w3.org/1999/xlink">
 <defs>
  <style type="text/css">
   <![CDATA[
    .str0 {stroke:#1C3130;stroke-width:0.000379409}
    .str1 {stroke:#1C3130;stroke-width:0.000327405;stroke-linejoin:round}
    .str2 {stroke:#1C3130;stroke-width:0.000327512;stroke-linejoin:round}
    .fil1 {fill:none}
    .fil0 {fill:#00CE8D}
    .fil2 {fill:#2AD2BE}
    .fil3 {fill:#91FF00}
   ]]>
  </style>
    <clipPath id="id0">
     <path d="M0.00561971 0.00262139c0.00276966,0 0.00501572,0.00224607 0.00501572,0.00501567 0,0.00276966 -0.00224607,0.00501572 -0.00501572,0.00501572 -0.0027696,0 -0.00501567,-0.00224607 -0.00501567,-0.00501572 0,-0.0027696 0.00224607,-0.00501567 0.00501567,-0.00501567z"/>
    </clipPath>
 </defs>
 <g id="Layer_x0020_1">
  <metadata id="CorelCorpID_0Corel-Layer"/>
  <g id="_122298192">
   <path id="_159754576" class="fil0" d="M0.00561971 0.00262139c0.00276966,0 0.00501572,0.00224607 0.00501572,0.00501567 0,0.00276966 -0.00224607,0.00501572 -0.00501572,0.00501572 -0.0027696,0 -0.00501567,-0.00224607 -0.00501567,-0.00501572 0,-0.0027696 0.00224607,-0.00501567 0.00501567,-0.00501567z"/>
   <g style="clip-path:url(#id0)">
    <g>
     <circle id="_159759400" class="fil1 str0" cx="0.00760644" cy="0.00822671" r="0.0050157"/>
     <circle id="_159759208" class="fil1 str0" cx="0.00393247" cy="0.00822671" r="0.0050157"/>
     <circle id="_159759232" class="fil1 str0" cx="0.00553165" cy="0.00706517" r="0.0050157"/>
     <circle id="_159759496" class="fil1 str0" cx="0.00566871" cy="0.00511439" r="0.0050157"/>
     <circle id="_159759688" class="fil1 str0" cx="0.00566871" cy="0.00204951" r="0.0050157"/>
     <circle id="_159757984" class="fil1 str0" cx="0.00566871" cy="-0.000561342" r="0.0050157"/>
    </g>
   </g>
   <path class="fil1 str1" d="M0.00561971 0.00262139c0.00276966,0 0.00501572,0.00224607 0.00501572,0.00501567 0,0.00276966 -0.00224607,0.00501572 -0.00501572,0.00501572 -0.0027696,0 -0.00501567,-0.00224607 -0.00501567,-0.00501572 0,-0.0027696 0.00224607,-0.00501567 0.00501567,-0.00501567z"/>
   <path id="_159754720" class="fil2 str2" d="M0.00746147 0.000163433c0.000336601,0.00147515 0.00013692,0.00334944 -0.00164434,0.00328862 -0.000579788,-0.000973286 -1.23691e-006,-0.00278073 0.00164434,-0.00328862z"/>
   <path id="_159757864" class="fil3 str2" d="M0.000163541 0.00119598c0.00234394,-0.000705845 0.00539131,-0.000590113 0.0054894,0.00229178 -0.00150709,0.00104304 -0.00448831,0.000308421 -0.0054894,-0.00229178z"/>
  </g>
 </g>
</svg>
