<?xml version="1.0" encoding="UTF-8"?>
<!DOCTYPE svg PUBLIC "-//W3C//DTD SVG 1.1//EN" "http://www.w3.org/Graphics/SVG/1.1/DTD/svg11.dtd">
<!-- Creator: CorelDRAW -->
<svg xmlns="http://www.w3.org/2000/svg" xml:space="preserve" width="1.10142in" height="0.856594in" style="shape-rendering:geometricPrecision; text-rendering:geometricPrecision; image-rendering:optimizeQuality; fill-rule:evenodd; clip-rule:evenodd"
viewBox="0 0 0.0219659 0.0170833"
 xmlns:xlink="http://www.w3.org/1999/xlink">
 <defs>
  <style type="text/css">
   <![CDATA[
    .str0 {stroke:#00CE8D;stroke-width:0.000138425}
    .fil6 {fill:#00705B}
    .fil5 {fill:#009062}
    .fil4 {fill:#00CE8D}
    .fil3 {fill:#00ECC0}
    .fil11 {fill:url(#id0)}
    .fil12 {fill:url(#id1)}
    .fil9 {fill:url(#id2)}
    .fil8 {fill:url(#id3)}
    .fil7 {fill:url(#id4)}
    .fil10 {fill:url(#id5)}
    .fil1 {fill:url(#id6)}
    .fil0 {fill:url(#id7)}
    .fil2 {fill:url(#id8)}
    .fil13 {fill:url(#id9)}
   ]]>
  </style>
  <linearGradient id="id0" gradientUnits="userSpaceOnUse" x1="0.000379002" y1="0.0164682" x2="0.00916191" y2="0.00267727">
   <stop offset="0" style="stop-color:#00CE8D"/>
   <stop offset="1" style="stop-color:#1C3130"/>
  </linearGradient>
  <linearGradient id="id1" gradientUnits="userSpaceOnUse" xlink:href="#id0" x1="0.000103564" y1="0.0163204" x2="0.00888663" y2="0.00252919">
  </linearGradient>
  <linearGradient id="id2" gradientUnits="userSpaceOnUse" xlink:href="#id0" x1="0.000929877" y1="0.0167639" x2="0.00971294" y2="0.00297273">
  </linearGradient>
  <linearGradient id="id3" gradientUnits="userSpaceOnUse" xlink:href="#id0" x1="0.00120539" y1="0.0169117" x2="0.0099883" y2="0.00312066">
  </linearGradient>
  <linearGradient id="id4" gradientUnits="userSpaceOnUse" xlink:href="#id0" x1="0.00148091" y1="0.0170596" x2="0.0102638" y2="0.00326843">
  </linearGradient>
  <linearGradient id="id5" gradientUnits="userSpaceOnUse" xlink:href="#id0" x1="0.000654518" y1="0.0166161" x2="0.00943743" y2="0.00282488">
  </linearGradient>
  <linearGradient id="id6" gradientUnits="userSpaceOnUse" xlink:href="#id0" x1="0.0116694" y1="0.0106816" x2="8.02444e-005" y2="0.00981721">
  </linearGradient>
  <linearGradient id="id7" gradientUnits="userSpaceOnUse" xlink:href="#id0" x1="0.0116694" y1="0.0109942" x2="8.02444e-005" y2="0.0101298">
  </linearGradient>
  <linearGradient id="id8" gradientUnits="userSpaceOnUse" xlink:href="#id0" x1="0.0112425" y1="0.00860028" x2="0.000507141" y2="0.00877231">
  </linearGradient>
  <linearGradient id="id9" gradientUnits="userSpaceOnUse" xlink:href="#id0" x1="0.000717724" y1="0.0144357" x2="0.0110603" y2="-0.00559598">
  </linearGradient>
 </defs>
 <g id="Layer_x0020_1">
  <metadata id="CorelCorpID_0Corel-Layer"/>
  <g id="_159737680">
   <ellipse id="_122294016" class="fil0" cx="0.00587484" cy="0.010562" rx="0.00580584" ry="0.00187573"/>
   <g>
    <path id="_159740272" class="fil1" d="M0.0058748 0.0121251c-0.00320601,0 -0.00580586,-0.000839975 -0.00580586,-0.00187577 0,-0.0010358 0.00259985,-0.00187569 0.00580586,-0.00187569 0.00320593,0 0.00580586,0.000839896 0.00580586,0.00187569 0,0.0010358 -0.00259993,0.00187577 -0.00580586,0.00187577z"/>
    <path id="_159740368" class="fil1" d="M0.0058748 0.0118125c-0.00320601,0 -0.00580586,-0.000839896 -0.00580586,-0.00187569 0,-0.0010358 0.00259985,-0.00187577 0.00580586,-0.00187577 0.00320593,0 0.00580586,0.000839975 0.00580586,0.00187577 0,0.0010358 -0.00259993,0.00187569 -0.00580586,0.00187569z"/>
    <path id="_159740536" class="fil1" d="M0.0058748 0.0114999c-0.00320601,0 -0.00580586,-0.000839975 -0.00580586,-0.00187577 0,-0.0010358 0.00259985,-0.00187569 0.00580586,-0.00187569 0.00320593,0 0.00580586,0.000839896 0.00580586,0.00187569 0,0.0010358 -0.00259993,0.00187577 -0.00580586,0.00187577z"/>
    <path id="_159739960" class="fil1" d="M0.0058748 0.0111873c-0.00320601,0 -0.00580586,-0.000839975 -0.00580586,-0.00187569 0,-0.0010358 0.00259985,-0.00187577 0.00580586,-0.00187577 0.00320593,0 0.00580586,0.000839975 0.00580586,0.00187577 0,0.00103572 -0.00259993,0.00187569 -0.00580586,0.00187569z"/>
    <path id="_159740440" class="fil1" d="M0.0058748 0.0108746c-0.00320601,0 -0.00580586,-0.000839896 -0.00580586,-0.00187569 0,-0.0010358 0.00259985,-0.00187577 0.00580586,-0.00187577 0.00320593,0 0.00580586,0.000839975 0.00580586,0.00187577 0,0.0010358 -0.00259993,0.00187569 -0.00580586,0.00187569z"/>
   </g>
   <ellipse id="_159756208" class="fil2 str0" cx="0.00587484" cy="0.00868628" rx="0.00580584" ry="0.00187573"/>
   <path id="_159759424" class="fil3" d="M0.0058748 0.0100042c-0.00105927,0 -0.00202417,-0.000130495 -0.00274927,-0.000344533 0.000691185,0.000173994 0.00155982,0.000277479 0.00250367,0.000277479 0.00225218,0 0.00407857,-0.000590291 0.00407857,-0.00131783 0,-0.000385126 -0.000512166,-0.000731778 -0.00132819,-0.000972747 0.000957593,0.000241204 0.00157379,0.000617222 0.00157379,0.00103972 0,0.000727538 -0.00182638,0.00131791 -0.00407857,0.00131791z"/>
   <ellipse id="_160541672" class="fil4" cx="0.0056292" cy="0.00861929" rx="0.00407867" ry="0.00131772"/>
   <g>
    <path id="_159739360" class="fil5" d="M0.00426316 0.00833207c2.70098e-005,1.34264e-005 0.00112892,0.000329065 0.00114329,0.000329614 6.27351e-005,2.11996e-006 0.000789331,-0.000360943 0.00093553,-0.000402871l-0.000320349 -0.000656088c-5.20568e-005,8.00873e-006 -0.000369894,0.00014879 -0.000437026,0.000177684 -0.000144471,6.23425e-005 -0.000293182,0.000120995 -0.000441658,0.000183494 -0.000140545,5.91233e-005 -0.000768603,0.000312262 -0.000879783,0.000368166z"/>
    <path id="_159739744" class="fil5" d="M0.00696406 0.00956996l-0.000308101 -0.000657423c-0.000172423,-1.90796e-005 -0.00118804,-0.000240262 -0.00124057,-0.000229976 -1.14635e-005,2.19848e-006 -0.000728167,0.000451316 -0.000755019,0.000479817l0.00230369 0.000407582z"/>
   </g>
   <g>
    <path id="_159750352" class="fil3" d="M0.00426316 0.00824358c2.70098e-005,1.35049e-005 0.00112892,0.000329065 0.00114329,0.000329614 6.27351e-005,2.19848e-006 0.000789331,-0.000360864 0.00093553,-0.000402871l-0.000320349 -0.000656088c-5.20568e-005,8.00873e-006 -0.000369894,0.00014879 -0.000437026,0.000177762 -0.000144471,6.2264e-005 -0.000293182,0.000120916 -0.000441658,0.000183416 -0.000140545,5.91233e-005 -0.000768603,0.000312341 -0.000879783,0.000368166z"/>
    <path id="_159738232" class="fil3" d="M0.00696406 0.00948148l-0.000308101 -0.000657423c-0.000172423,-1.90011e-005 -0.00118804,-0.000240262 -0.00124057,-0.000229976 -1.14635e-005,2.19848e-006 -0.000728167,0.000451316 -0.000755019,0.000479817l0.00230369 0.000407582z"/>
   </g>
  </g>
  <g id="_159749920">
   <ellipse id="_159754912" class="fil0" cx="0.00776601" cy="0.00817347" rx="0.00580584" ry="0.00187573"/>
   <g>
    <path id="_159739000" class="fil1" d="M0.00776596 0.00973658c-0.00320601,0 -0.00580586,-0.000839975 -0.00580586,-0.00187577 0,-0.00103572 0.00259985,-0.00187569 0.00580586,-0.00187569 0.00320593,0 0.00580586,0.000839975 0.00580586,0.00187569 0,0.0010358 -0.00259993,0.00187577 -0.00580586,0.00187577z"/>
    <path id="_159738664" class="fil1" d="M0.00776596 0.00942392c-0.00320601,0 -0.00580586,-0.000839896 -0.00580586,-0.00187569 0,-0.0010358 0.00259985,-0.00187577 0.00580586,-0.00187577 0.00320593,0 0.00580586,0.000839975 0.00580586,0.00187577 0,0.0010358 -0.00259993,0.00187569 -0.00580586,0.00187569z"/>
    <path id="_159738400" class="fil1" d="M0.00776596 0.00911135c-0.00320601,0 -0.00580586,-0.000839975 -0.00580586,-0.00187577 0,-0.0010358 0.00259985,-0.00187569 0.00580586,-0.00187569 0.00320593,0 0.00580586,0.000839896 0.00580586,0.00187569 0,0.0010358 -0.00259993,0.00187577 -0.00580586,0.00187577z"/>
    <path id="_159737800" class="fil1" d="M0.00776596 0.00879869c-0.00320601,0 -0.00580586,-0.000839896 -0.00580586,-0.00187569 0,-0.0010358 0.00259985,-0.00187577 0.00580586,-0.00187577 0.00320593,0 0.00580586,0.000839975 0.00580586,0.00187577 0,0.0010358 -0.00259993,0.00187569 -0.00580586,0.00187569z"/>
    <path id="_159737848" class="fil1" d="M0.00776596 0.00848612c-0.00320601,0 -0.00580586,-0.000839975 -0.00580586,-0.00187577 0,-0.0010358 0.00259985,-0.00187569 0.00580586,-0.00187569 0.00320593,0 0.00580586,0.000839896 0.00580586,0.00187569 0,0.0010358 -0.00259993,0.00187577 -0.00580586,0.00187577z"/>
   </g>
   <ellipse id="_159738472" class="fil2 str0" cx="0.00776601" cy="0.00629773" rx="0.00580584" ry="0.00187573"/>
   <path id="_159737152" class="fil3" d="M0.00776604 0.0076156c-0.00105935,0 -0.00202417,-0.000130495 -0.00274935,-0.000344454 0.000691185,0.000173915 0.00155982,0.000277479 0.00250367,0.000277479 0.00225218,0 0.00407857,-0.000590369 0.00407857,-0.00131791 0,-0.000385126 -0.000512088,-0.000731778 -0.00132811,-0.000972747 0.000957515,0.000241283 0.00157372,0.000617222 0.00157372,0.0010398 0,0.00072746 -0.00182631,0.00131783 -0.00407849,0.00131783z"/>
   <ellipse id="_159764680" class="fil4" cx="0.00752038" cy="0.00623074" rx="0.00407867" ry="0.00131772"/>
   <g>
    <path id="_159737104" class="fil5" d="M0.00615432 0.0059435c2.70884e-005,1.35049e-005 0.00112892,0.000329065 0.00114329,0.000329614 6.27351e-005,2.19848e-006 0.000789331,-0.000360864 0.00093553,-0.000402871l-0.000320349 -0.000656088c-5.20568e-005,8.00873e-006 -0.000369894,0.00014879 -0.000437026,0.000177762 -0.000144471,6.2264e-005 -0.000293182,0.000120916 -0.000441658,0.000183416 -0.000140545,5.91233e-005 -0.000768603,0.000312341 -0.000879783,0.000368166z"/>
    <path id="_159750064" class="fil5" d="M0.00885522 0.0071814l-0.000308101 -0.000657423c-0.000172345,-1.90796e-005 -0.00118804,-0.000240262 -0.00124057,-0.000229976 -1.14635e-005,2.19848e-006 -0.000728167,0.000451316 -0.000755019,0.000479817l0.00230369 0.000407582z"/>
   </g>
   <g>
    <path id="_159736696" class="fil3" d="M0.00615432 0.00585501c2.70884e-005,1.35049e-005 0.00112892,0.000329143 0.00114329,0.000329614 6.27351e-005,2.19848e-006 0.000789331,-0.000360864 0.00093553,-0.000402871l-0.000320349 -0.000656009c-5.20568e-005,8.00873e-006 -0.000369894,0.000148711 -0.000437026,0.000177684 -0.000144471,6.2264e-005 -0.000293182,0.000120995 -0.000441658,0.000183416 -0.000140545,5.91233e-005 -0.000768603,0.000312341 -0.000879783,0.000368166z"/>
    <path id="_159736216" class="fil3" d="M0.00885522 0.00709291l-0.000308101 -0.000657423c-0.000172345,-1.90011e-005 -0.00118804,-0.000240262 -0.00124057,-0.000229976 -1.14635e-005,2.27699e-006 -0.000728167,0.000451316 -0.000755019,0.000479896l0.00230369 0.000407503z"/>
   </g>
  </g>
  <g id="_159736336">
   <ellipse id="_159736432" class="fil0" cx="0.00867609" cy="0.00549631" rx="0.00580584" ry="0.00187573"/>
   <g>
    <path id="_159736120" class="fil1" d="M0.00867605 0.00705938c-0.00320601,0 -0.00580586,-0.000839896 -0.00580586,-0.00187569 0,-0.0010358 0.00259985,-0.00187577 0.00580586,-0.00187577 0.00320593,0 0.00580586,0.000839975 0.00580586,0.00187577 0,0.0010358 -0.00259993,0.00187569 -0.00580586,0.00187569z"/>
    <path id="_159736384" class="fil1" d="M0.00867605 0.00674681c-0.00320601,0 -0.00580586,-0.000839975 -0.00580586,-0.00187577 0,-0.0010358 0.00259985,-0.00187569 0.00580586,-0.00187569 0.00320593,0 0.00580586,0.000839896 0.00580586,0.00187569 0,0.0010358 -0.00259993,0.00187577 -0.00580586,0.00187577z"/>
    <path id="_159750040" class="fil1" d="M0.00867605 0.00643415c-0.00320601,0 -0.00580586,-0.000839896 -0.00580586,-0.00187569 0,-0.0010358 0.00259985,-0.00187577 0.00580586,-0.00187577 0.00320593,0 0.00580586,0.000839975 0.00580586,0.00187577 0,0.0010358 -0.00259993,0.00187569 -0.00580586,0.00187569z"/>
    <path id="_160541408" class="fil1" d="M0.00867605 0.00612158c-0.00320601,0 -0.00580586,-0.000839975 -0.00580586,-0.00187577 0,-0.0010358 0.00259985,-0.00187569 0.00580586,-0.00187569 0.00320593,0 0.00580586,0.000839896 0.00580586,0.00187569 0,0.0010358 -0.00259993,0.00187577 -0.00580586,0.00187577z"/>
    <path id="_160540352" class="fil1" d="M0.00867605 0.00580892c-0.00320601,0 -0.00580586,-0.000839975 -0.00580586,-0.00187569 0,-0.0010358 0.00259985,-0.00187577 0.00580586,-0.00187577 0.00320593,0 0.00580586,0.000839975 0.00580586,0.00187577 0,0.00103572 -0.00259993,0.00187569 -0.00580586,0.00187569z"/>
   </g>
   <ellipse id="_159736768" class="fil2 str0" cx="0.00867609" cy="0.00362057" rx="0.00580584" ry="0.00187573"/>
   <path id="_160541504" class="fil3" d="M0.00867613 0.0049384c-0.00105935,0 -0.00202425,-0.000130417 -0.00274935,-0.000344454 0.000691185,0.000173915 0.00155982,0.000277479 0.00250367,0.000277479 0.00225218,0 0.00407857,-0.000590369 0.00407857,-0.00131783 0,-0.000385204 -0.000512166,-0.000731778 -0.00132819,-0.000972747 0.000957593,0.000241204 0.00157379,0.000617222 0.00157379,0.00103972 0,0.00072746 -0.00182638,0.00131783 -0.00407849,0.00131783z"/>
   <ellipse id="_159757048" class="fil4" cx="0.00843046" cy="0.00355358" rx="0.00407867" ry="0.00131772"/>
   <g>
    <path id="_160539392" class="fil5" d="M0.00706441 0.00326631c2.70098e-005,1.35049e-005 0.00112892,0.000329143 0.00114329,0.000329614 6.27351e-005,2.19848e-006 0.000789331,-0.000360864 0.00093553,-0.000402871l-0.000320349 -0.000656009c-5.20568e-005,8.00873e-006 -0.000369894,0.000148711 -0.000437026,0.000177684 -0.000144471,6.23425e-005 -0.000293182,0.000120995 -0.000441658,0.000183416 -0.000140545,5.91233e-005 -0.000768603,0.000312341 -0.000879783,0.000368166z"/>
    <path id="_160541048" class="fil5" d="M0.00976531 0.00450421l-0.000308101 -0.000657344c-0.000172345,-1.90796e-005 -0.00118804,-0.000240341 -0.00124057,-0.000230055 -1.14635e-005,2.27699e-006 -0.000728167,0.000451316 -0.000755019,0.000479896l0.00230369 0.000407503z"/>
   </g>
   <g>
    <path id="_160541192" class="fil3" d="M0.00706441 0.0031779c2.70098e-005,1.34264e-005 0.00112892,0.000329065 0.00114329,0.000329536 6.27351e-005,2.19848e-006 0.000789331,-0.000360864 0.00093553,-0.000402792l-0.000320349 -0.000656088c-5.20568e-005,8.00873e-006 -0.000369894,0.000148711 -0.000437026,0.000177684 -0.000144471,6.23425e-005 -0.000293182,0.000120995 -0.000441658,0.000183416 -0.000140545,5.91233e-005 -0.000768603,0.000312341 -0.000879783,0.000368245z"/>
    <path id="_160539656" class="fil3" d="M0.00976531 0.0044158l-0.000308101 -0.000657423c-0.000172345,-1.90796e-005 -0.00118804,-0.000240262 -0.00124057,-0.000229976 -1.14635e-005,2.19848e-006 -0.000728167,0.000451316 -0.000755019,0.000479817l0.00230369 0.000407582z"/>
   </g>
  </g>
  <g id="_159749992">
   <ellipse id="_160542320" class="fil0" cx="0.0145444" cy="0.0131953" rx="0.00580584" ry="0.00187573"/>
   <g>
    <path id="_160541792" class="fil1" d="M0.0145443 0.0147584c-0.00320601,0 -0.00580586,-0.000839975 -0.00580586,-0.00187577 0,-0.00103572 0.00259985,-0.00187569 0.00580586,-0.00187569 0.00320593,0 0.00580578,0.000839975 0.00580578,0.00187569 0,0.0010358 -0.00259985,0.00187577 -0.00580578,0.00187577z"/>
    <path id="_159750208" class="fil1" d="M0.0145443 0.0144457c-0.00320601,0 -0.00580586,-0.000839896 -0.00580586,-0.00187569 0,-0.0010358 0.00259985,-0.00187577 0.00580586,-0.00187577 0.00320593,0 0.00580578,0.000839975 0.00580578,0.00187577 0,0.0010358 -0.00259985,0.00187569 -0.00580578,0.00187569z"/>
    <path id="_159768136" class="fil1" d="M0.0145443 0.0141331c-0.00320601,0 -0.00580586,-0.000839975 -0.00580586,-0.00187577 0,-0.0010358 0.00259985,-0.00187569 0.00580586,-0.00187569 0.00320593,0 0.00580578,0.000839896 0.00580578,0.00187569 0,0.0010358 -0.00259985,0.00187577 -0.00580578,0.00187577z"/>
    <path id="_159767776" class="fil1" d="M0.0145443 0.0138205c-0.00320601,0 -0.00580586,-0.000839896 -0.00580586,-0.00187569 0,-0.0010358 0.00259985,-0.00187577 0.00580586,-0.00187577 0.00320593,0 0.00580578,0.000839975 0.00580578,0.00187577 0,0.0010358 -0.00259985,0.00187569 -0.00580578,0.00187569z"/>
    <path id="_159767896" class="fil1" d="M0.0145443 0.0135079c-0.00320601,0 -0.00580586,-0.000839975 -0.00580586,-0.00187577 0,-0.0010358 0.00259985,-0.00187569 0.00580586,-0.00187569 0.00320593,0 0.00580578,0.000839896 0.00580578,0.00187569 0,0.0010358 -0.00259985,0.00187577 -0.00580578,0.00187577z"/>
   </g>
   <ellipse id="_160541984" class="fil2 str0" cx="0.0145444" cy="0.0113195" rx="0.00580584" ry="0.00187573"/>
   <path id="_159767656" class="fil3" d="M0.0145443 0.0126374c-0.00105935,0 -0.00202417,-0.000130495 -0.00274927,-0.000344454 0.000691107,0.000173915 0.00155982,0.000277479 0.00250367,0.000277479 0.00225218,0 0.00407857,-0.000590369 0.00407857,-0.00131791 0,-0.000385126 -0.000512166,-0.000731778 -0.00132819,-0.000972747 0.000957593,0.000241283 0.00157379,0.000617222 0.00157379,0.0010398 0,0.00072746 -0.00182638,0.00131783 -0.00407857,0.00131783z"/>
   <ellipse id="_159767944" class="fil4" cx="0.0142987" cy="0.0112525" rx="0.00407867" ry="0.00131772"/>
   <g>
    <path id="_159766144" class="fil5" d="M0.0129327 0.0109653c2.70098e-005,1.35049e-005 0.00112892,0.000329065 0.00114329,0.000329614 6.26566e-005,2.19848e-006 0.000789331,-0.000360864 0.000935451,-0.000402871l-0.000320349 -0.000656088c-5.19782e-005,8.00873e-006 -0.000369815,0.00014879 -0.000437026,0.000177762 -0.000144393,6.2264e-005 -0.000293104,0.000120916 -0.00044158,0.000183416 -0.000140624,5.91233e-005 -0.000768603,0.000312341 -0.000879783,0.000368166z"/>
    <path id="_159766384" class="fil5" d="M0.0156336 0.0122032l-0.000308179 -0.000657423c-0.000172345,-1.90796e-005 -0.00118804,-0.000240262 -0.00124057,-0.000229976 -1.1385e-005,2.19848e-006 -0.000728088,0.000451316 -0.000754941,0.000479817l0.00230369 0.000407582z"/>
   </g>
   <g>
    <path id="_159766432" class="fil3" d="M0.0129327 0.0108768c2.70098e-005,1.35049e-005 0.00112892,0.000329143 0.00114329,0.000329614 6.26566e-005,2.19848e-006 0.000789331,-0.000360864 0.000935451,-0.000402871l-0.000320349 -0.000656009c-5.19782e-005,7.93022e-006 -0.000369815,0.000148711 -0.000437026,0.000177684 -0.000144393,6.2264e-005 -0.000293104,0.000120995 -0.00044158,0.000183416 -0.000140624,5.91233e-005 -0.000768603,0.000312341 -0.000879783,0.000368166z"/>
    <path id="_159766888" class="fil3" d="M0.0156336 0.0121147l-0.000308179 -0.000657423c-0.000172345,-1.90011e-005 -0.00118804,-0.000240262 -0.00124057,-0.000229976 -1.1385e-005,2.27699e-006 -0.000728088,0.000451316 -0.000754941,0.000479896l0.00230369 0.000407503z"/>
   </g>
  </g>
  <g id="_159767176">
   <ellipse id="_159767488" class="fil6" cx="0.0128341" cy="0.010997" rx="0.00580584" ry="0.00187573"/>
   <g>
    <path id="_159767056" class="fil1" d="M0.012834 0.0125601c-0.00320593,0 -0.00580586,-0.000839975 -0.00580586,-0.00187577 0,-0.0010358 0.00259993,-0.00187569 0.00580586,-0.00187569 0.00320601,0 0.00580586,0.000839896 0.00580586,0.00187569 0,0.0010358 -0.00259985,0.00187577 -0.00580586,0.00187577z"/>
    <path id="_159767224" class="fil1" d="M0.012834 0.0122475c-0.00320593,0 -0.00580586,-0.000839896 -0.00580586,-0.00187569 0,-0.0010358 0.00259993,-0.00187577 0.00580586,-0.00187577 0.00320601,0 0.00580586,0.000839975 0.00580586,0.00187577 0,0.0010358 -0.00259985,0.00187569 -0.00580586,0.00187569z"/>
    <path id="_159766816" class="fil1" d="M0.012834 0.0119349c-0.00320593,0 -0.00580586,-0.000839975 -0.00580586,-0.00187577 0,-0.0010358 0.00259993,-0.00187569 0.00580586,-0.00187569 0.00320601,0 0.00580586,0.000839896 0.00580586,0.00187569 0,0.0010358 -0.00259985,0.00187577 -0.00580586,0.00187577z"/>
    <path id="_159765664" class="fil1" d="M0.012834 0.0116222c-0.00320593,0 -0.00580586,-0.000839975 -0.00580586,-0.00187577 0,-0.00103572 0.00259993,-0.00187569 0.00580586,-0.00187569 0.00320601,0 0.00580586,0.000839975 0.00580586,0.00187569 0,0.0010358 -0.00259985,0.00187577 -0.00580586,0.00187577z"/>
    <path id="_159765328" class="fil1" d="M0.012834 0.0113096c-0.00320593,0 -0.00580586,-0.000839896 -0.00580586,-0.00187569 0,-0.0010358 0.00259993,-0.00187577 0.00580586,-0.00187577 0.00320601,0 0.00580586,0.000839975 0.00580586,0.00187577 0,0.0010358 -0.00259985,0.00187569 -0.00580586,0.00187569z"/>
   </g>
   <ellipse id="_159767440" class="fil2 str0" cx="0.0128341" cy="0.00912126" rx="0.00580584" ry="0.00187573"/>
   <path id="_159765424" class="fil3" d="M0.0128341 0.0104391c-0.00105935,0 -0.00202417,-0.000130495 -0.00274927,-0.000344533 0.000691107,0.000173994 0.00155982,0.000277479 0.00250359,0.000277479 0.00225218,0 0.00407857,-0.000590291 0.00407857,-0.00131783 0,-0.000385126 -0.000512088,-0.000731778 -0.00132811,-0.000972747 0.000957593,0.000241204 0.00157379,0.000617222 0.00157379,0.00103972 0,0.000727538 -0.00182638,0.00131791 -0.00407857,0.00131791z"/>
   <ellipse id="_159765472" class="fil4" cx="0.0125884" cy="0.00905427" rx="0.00407867" ry="0.00131772"/>
   <g>
    <path id="_159766528" class="fil5" d="M0.0112224 0.00876705c2.70884e-005,1.34264e-005 0.00112892,0.000329065 0.00114329,0.000329614 6.27351e-005,2.11996e-006 0.00078941,-0.000360943 0.00093553,-0.000402871l-0.000320349 -0.000656088c-5.20568e-005,8.00873e-006 -0.000369894,0.00014879 -0.000437026,0.000177684 -0.000144471,6.23425e-005 -0.000293104,0.000120995 -0.000441658,0.000183494 -0.000140545,5.91233e-005 -0.000768603,0.000312262 -0.000879783,0.000368166z"/>
    <path id="_159766000" class="fil5" d="M0.0139233 0.0100049l-0.000308101 -0.000657423c-0.000172345,-1.90796e-005 -0.00118804,-0.000240262 -0.00124057,-0.000229976 -1.14635e-005,2.19848e-006 -0.000728167,0.000451316 -0.000755019,0.000479817l0.00230369 0.000407582z"/>
   </g>
   <g>
    <path id="_159766600" class="fil3" d="M0.0112224 0.00867856c2.70884e-005,1.35049e-005 0.00112892,0.000329065 0.00114329,0.000329614 6.27351e-005,2.19848e-006 0.00078941,-0.000360864 0.00093553,-0.000402871l-0.000320349 -0.000656088c-5.20568e-005,8.00873e-006 -0.000369894,0.00014879 -0.000437026,0.000177762 -0.000144471,6.2264e-005 -0.000293104,0.000120916 -0.000441658,0.000183416 -0.000140545,5.91233e-005 -0.000768603,0.000312341 -0.000879783,0.000368166z"/>
    <path id="_159766360" class="fil3" d="M0.0139233 0.00991646l-0.000308101 -0.000657423c-0.000172345,-1.90011e-005 -0.00118804,-0.000240262 -0.00124057,-0.000229976 -1.14635e-005,2.19848e-006 -0.000728167,0.000451316 -0.000755019,0.000479817l0.00230369 0.000407582z"/>
   </g>
  </g>
  <g id="_159765040">
   <ellipse id="_159764704" class="fil6" cx="0.0160909" cy="0.00882509" rx="0.00580584" ry="0.00187573"/>
   <g>
    <path id="_159764776" class="fil1" d="M0.0160909 0.0103882c-0.00320593,0 -0.00580586,-0.000839896 -0.00580586,-0.00187569 0,-0.0010358 0.00259993,-0.00187577 0.00580586,-0.00187577 0.00320601,0 0.00580586,0.000839975 0.00580586,0.00187577 0,0.0010358 -0.00259985,0.00187569 -0.00580586,0.00187569z"/>
    <path id="_159764872" class="fil1" d="M0.0160909 0.0100756c-0.00320593,0 -0.00580586,-0.000839975 -0.00580586,-0.00187577 0,-0.0010358 0.00259993,-0.00187577 0.00580586,-0.00187577 0.00320601,0 0.00580586,0.000839975 0.00580586,0.00187577 0,0.0010358 -0.00259985,0.00187577 -0.00580586,0.00187577z"/>
    <path id="_159765112" class="fil1" d="M0.0160909 0.00976296c-0.00320593,0 -0.00580586,-0.000839975 -0.00580586,-0.00187577 0,-0.00103572 0.00259993,-0.00187569 0.00580586,-0.00187569 0.00320601,0 0.00580586,0.000839975 0.00580586,0.00187569 0,0.0010358 -0.00259985,0.00187577 -0.00580586,0.00187577z"/>
    <path id="_159765568" class="fil1" d="M0.0160909 0.0094503c-0.00320593,0 -0.00580586,-0.000839896 -0.00580586,-0.00187569 0,-0.0010358 0.00259993,-0.00187577 0.00580586,-0.00187577 0.00320601,0 0.00580586,0.000839975 0.00580586,0.00187577 0,0.0010358 -0.00259985,0.00187569 -0.00580586,0.00187569z"/>
    <path id="_159765304" class="fil1" d="M0.0160909 0.00913773c-0.00320593,0 -0.00580586,-0.000839975 -0.00580586,-0.00187577 0,-0.0010358 0.00259993,-0.00187569 0.00580586,-0.00187569 0.00320601,0 0.00580586,0.000839896 0.00580586,0.00187569 0,0.0010358 -0.00259985,0.00187577 -0.00580586,0.00187577z"/>
   </g>
   <ellipse id="_159764824" class="fil2 str0" cx="0.0160909" cy="0.00694936" rx="0.00580584" ry="0.00187573"/>
   <path id="_159765256" class="fil3" d="M0.016091 0.00826721c-0.00105935,0 -0.00202417,-0.000130417 -0.00274927,-0.000344454 0.000691107,0.000173915 0.00155982,0.000277479 0.00250359,0.000277479 0.00225218,0 0.00407857,-0.000590369 0.00407857,-0.00131791 0,-0.000385126 -0.000512088,-0.0007317 -0.00132811,-0.000972747 0.000957515,0.000241283 0.00157379,0.000617301 0.00157379,0.0010398 0,0.00072746 -0.00182638,0.00131783 -0.00407857,0.00131783z"/>
   <ellipse id="_159765232" class="fil4" cx="0.0158453" cy="0.00688237" rx="0.00407867" ry="0.00131772"/>
   <g>
    <path id="_159753136" class="fil5" d="M0.0144792 0.00659511c2.70884e-005,1.35049e-005 0.00112892,0.000329143 0.00114329,0.000329614 6.27351e-005,2.19848e-006 0.00078941,-0.000360864 0.00093553,-0.000402871l-0.000320349 -0.000656088c-5.20568e-005,8.00873e-006 -0.000369894,0.00014879 -0.000437026,0.000177762 -0.000144471,6.2264e-005 -0.000293104,0.000120916 -0.000441658,0.000183416 -0.000140545,5.91233e-005 -0.000768603,0.000312341 -0.000879783,0.000368166z"/>
    <path id="_122292672" class="fil5" d="M0.0171801 0.00783301l-0.000308101 -0.000657423c-0.000172345,-1.90011e-005 -0.00118804,-0.000240262 -0.00124057,-0.000229976 -1.14635e-005,2.27699e-006 -0.000728167,0.000451316 -0.000755019,0.000479896l0.00230369 0.000407503z"/>
   </g>
   <g>
    <path id="_159753472" class="fil3" d="M0.0144792 0.00650662c2.70884e-005,1.35049e-005 0.00112892,0.000329143 0.00114329,0.000329614 6.27351e-005,2.19848e-006 0.00078941,-0.000360864 0.00093553,-0.000402871l-0.000320349 -0.000656009c-5.20568e-005,8.00873e-006 -0.000369894,0.000148711 -0.000437026,0.000177684 -0.000144471,6.23425e-005 -0.000293104,0.000120995 -0.000441658,0.000183416 -0.000140545,5.91233e-005 -0.000768603,0.000312341 -0.000879783,0.000368166z"/>
    <path id="_159752224" class="fil3" d="M0.0171801 0.00774452l-0.000308101 -0.000657344c-0.000172345,-1.90796e-005 -0.00118804,-0.000240341 -0.00124057,-0.000230055 -1.14635e-005,2.27699e-006 -0.000728167,0.000451316 -0.000755019,0.000479896l0.00230369 0.000407503z"/>
   </g>
  </g>
  <g id="_159758800">
   <ellipse id="_159752656" class="fil0" cx="0.012968" cy="0.00382091" rx="0.00580584" ry="0.00187573"/>
   <g>
    <path id="_159760432" class="fil1" d="M0.0129679 0.00538399c-0.00320601,0 -0.00580586,-0.000839896 -0.00580586,-0.00187569 0,-0.0010358 0.00259985,-0.00187577 0.00580586,-0.00187577 0.00320593,0 0.00580586,0.000839975 0.00580586,0.00187577 0,0.0010358 -0.00259993,0.00187569 -0.00580586,0.00187569z"/>
    <path id="_159760456" class="fil1" d="M0.0129679 0.00507141c-0.00320601,0 -0.00580586,-0.000839975 -0.00580586,-0.00187577 0,-0.0010358 0.00259985,-0.00187569 0.00580586,-0.00187569 0.00320593,0 0.00580586,0.000839896 0.00580586,0.00187569 0,0.0010358 -0.00259993,0.00187577 -0.00580586,0.00187577z"/>
    <path id="_159764224" class="fil1" d="M0.0129679 0.00475876c-0.00320601,0 -0.00580586,-0.000839896 -0.00580586,-0.00187569 0,-0.0010358 0.00259985,-0.00187577 0.00580586,-0.00187577 0.00320593,0 0.00580586,0.000839975 0.00580586,0.00187577 0,0.0010358 -0.00259993,0.00187569 -0.00580586,0.00187569z"/>
    <path id="_159764344" class="fil1" d="M0.0129679 0.00444618c-0.00320601,0 -0.00580586,-0.000839975 -0.00580586,-0.00187577 0,-0.0010358 0.00259985,-0.00187569 0.00580586,-0.00187569 0.00320593,0 0.00580586,0.000839896 0.00580586,0.00187569 0,0.0010358 -0.00259993,0.00187577 -0.00580586,0.00187577z"/>
    <path id="_159763768" class="fil1" d="M0.0129679 0.00413353c-0.00320601,0 -0.00580586,-0.000839896 -0.00580586,-0.00187569 0,-0.0010358 0.00259985,-0.00187577 0.00580586,-0.00187577 0.00320593,0 0.00580586,0.000839975 0.00580586,0.00187577 0,0.0010358 -0.00259993,0.00187569 -0.00580586,0.00187569z"/>
   </g>
   <ellipse id="_159759136" class="fil2 str0" cx="0.012968" cy="0.00194518" rx="0.00580584" ry="0.00187573"/>
   <path id="_159763744" class="fil3" d="M0.012968 0.00326301c-0.00105935,0 -0.00202425,-0.000130417 -0.00274935,-0.000344454 0.000691185,0.000173915 0.00155982,0.000277479 0.00250367,0.000277479 0.00225218,0 0.00407857,-0.000590369 0.00407857,-0.00131783 0,-0.000385204 -0.000512166,-0.000731778 -0.00132819,-0.000972747 0.000957593,0.000241204 0.00157379,0.000617222 0.00157379,0.00103972 0,0.000727538 -0.00182638,0.00131783 -0.00407849,0.00131783z"/>
   <ellipse id="_159753520" class="fil4" cx="0.0127224" cy="0.00187819" rx="0.00407867" ry="0.00131772"/>
   <g>
    <path id="_159753424" class="fil5" d="M0.0113563 0.00159091c2.70098e-005,1.35049e-005 0.00112892,0.000329143 0.00114329,0.000329614 6.27351e-005,2.19848e-006 0.000789331,-0.000360864 0.00093553,-0.000402871l-0.000320349 -0.000656009c-5.20568e-005,8.00873e-006 -0.000369894,0.000148711 -0.000437026,0.000177684 -0.000144471,6.23425e-005 -0.000293182,0.000120995 -0.000441658,0.000183416 -0.000140545,5.91233e-005 -0.000768603,0.000312341 -0.000879783,0.000368166z"/>
    <path id="_159750400" class="fil5" d="M0.0140572 0.00282889l-0.000308101 -0.000657423c-0.000172345,-1.90796e-005 -0.00118804,-0.000240341 -0.00124057,-0.000230055 -1.14635e-005,2.27699e-006 -0.000728167,0.000451316 -0.000755019,0.000479896l0.00230369 0.000407582z"/>
   </g>
   <g>
    <path id="_159754696" class="fil3" d="M0.0113563 0.0015025c2.70098e-005,1.34264e-005 0.00112892,0.000329065 0.00114329,0.000329614 6.27351e-005,2.11996e-006 0.000789331,-0.000360943 0.00093553,-0.000402871l-0.000320349 -0.000656088c-5.20568e-005,8.00873e-006 -0.000369894,0.00014879 -0.000437026,0.000177684 -0.000144471,6.23425e-005 -0.000293182,0.000120995 -0.000441658,0.000183494 -0.000140545,5.90448e-005 -0.000768603,0.000312262 -0.000879783,0.000368166z"/>
    <path id="_159754840" class="fil3" d="M0.0140572 0.0027404l-0.000308101 -0.000657423c-0.000172345,-1.90796e-005 -0.00118804,-0.000240262 -0.00124057,-0.000229976 -1.14635e-005,2.19848e-006 -0.000728167,0.000451316 -0.000755019,0.000479817l0.00230369 0.000407582z"/>
   </g>
  </g>
  <g id="_159738280">
   <path id="_159755416" class="fil7" d="M0.00819427 0.0127787c-0.00151616,0.00282457 -0.00348592,0.0047184 -0.00439836,0.00422845 -0.000912839,-0.000489789 -0.000423285,-0.00317782 0.00109296,-0.0060027 0.00151624,-0.00282473 0.00348584,-0.00471824 0.00439844,-0.00422822 0.000912681,0.000489789 0.000423207,0.00317774 -0.00109304,0.00600247z"/>
   <g>
    <path id="_159756424" class="fil8" d="M0.00791899 0.0126309c-0.00151632,0.00282496 -0.00348623,0.00471832 -0.0043986,0.00422838 -0.00091276,-0.000489789 -0.000423207,-0.00317766 0.00109319,-0.00600239 0.00151608,-0.00282496 0.00348592,-0.0047184 0.00439829,-0.0042283 0.00091276,0.000489632 0.000423207,0.00317782 -0.00109288,0.00600231z"/>
    <path id="_159757072" class="fil9" d="M0.00764324 0.0124829c-0.00151632,0.00282473 -0.00348576,0.0047184 -0.00439852,0.00422861 -0.000912367,-0.000489867 -0.000422893,-0.00317805 0.00109304,-0.00600294 0.0015164,-0.00282441 0.00348608,-0.00471793 0.00439876,-0.00422806 0.00091276,0.000489789 0.000423207,0.0031779 -0.00109327,0.00600239z"/>
    <path id="_159757096" class="fil10" d="M0.00736827 0.0123354c-0.00151663,0.00282473 -0.00348655,0.00471809 -0.00439891,0.00422814 -0.000912681,-0.000489789 -0.00042305,-0.00317766 0.00109335,-0.00600255 0.00151608,-0.00282457 0.00348592,-0.00471809 0.00439821,-0.0042283 0.000912839,0.000490025 0.000423364,0.00317805 -0.00109264,0.0060027z"/>
    <path id="_159757120" class="fil11" d="M0.00709252 0.0121876c-0.00151656,0.00282473 -0.003486,0.00471793 -0.00439852,0.00422806 -0.000912681,-0.000489632 -0.000423128,-0.00317774 0.00109304,-0.00600239 0.00151632,-0.00282481 0.003486,-0.00471824 0.00439868,-0.00422853 0.000912524,0.000490025 0.00042305,0.00317813 -0.00109319,0.00600286z"/>
    <path id="_159756856" class="fil12" d="M0.00681708 0.0120396c-0.00151624,0.00282488 -0.00348592,0.00471832 -0.00439876,0.00422845 -0.000912446,-0.000489946 -0.000422893,-0.00317798 0.00109327,-0.00600302 0.00151624,-0.00282457 0.00348608,-0.00471793 0.00439852,-0.00422806 0.00091276,0.000490025 0.000423207,0.00317805 -0.00109304,0.00600262z"/>
   </g>
   <path id="_159756304" class="fil13 str0" d="M0.00654188 0.0118919c-0.00151648,0.00282496 -0.00348639,0.00471761 -0.0043986,0.00422783 -0.000912681,-0.00048971 -0.000423521,-0.00317743 0.0010928,-0.00600231 0.00151601,-0.00282465 0.00348623,-0.00471809 0.0043986,-0.0042283 0.000912367,0.000490025 0.000423521,0.0031779 -0.0010928,0.00600278z"/>
   <path id="_159758200" class="fil3" d="M0.00605005 0.0116278c-0.000501017,0.00093341 -0.00107231,0.0017218 -0.00160379,0.00225948 0.000480131,-0.000526692 0.000982169,-0.00124316 0.00142862,-0.00207473 0.00106516,-0.00198436 0.00140875,-0.00387277 0.000767739,-0.00421683 -0.00033935,-0.000182159 -0.000886928,0.000105134 -0.00148523,0.000710108 0.000665431,-0.00072958 0.00128823,-0.00109468 0.00166048,-0.000894858 0.000640934,0.000344061 0.000297344,0.00223247 -0.000767818,0.00421683z"/>
   <ellipse id="_159758560" class="fil4" transform="matrix(-0.258175 0.480973 -0.480973 -0.258175 0.0047137 0.0111893)" rx="0.00747168" ry="0.00241393"/>
   <g>
    <path id="_159752248" class="fil5" d="M0.00381451 0.0122571c2.47329e-005,-1.74308e-005 0.000823879,-0.000839033 0.000831181,-0.000851438 3.15638e-005,-5.42552e-005 5.53545e-005,-0.000866199 8.74679e-005,-0.00101483l-0.00072958 -2.80306e-005c-1.75093e-005,4.97013e-005 -4.3891e-005,0.000396275 -5.00938e-005,0.000469139 -1.34264e-005,0.00015672 -3.20349e-005,0.000315481 -4.72672e-005,0.000475891 -1.43686e-005,0.000151773 -8.83316e-005,0.000824899 -9.17078e-005,0.00094927z"/>
    <path id="_159752704" class="fil5" d="M0.00618266 0.0104628l-0.000725026 -3.94155e-005c-9.83033e-005,0.000142822 -0.000773549,0.000933096 -0.000789331,0.00098421 -3.45475e-006,1.11494e-005 5.32345e-005,0.00085505 6.57187e-005,0.000892189l0.00144864 -0.00183698z"/>
   </g>
   <g>
    <path id="_159752272" class="fil3" d="M0.00373662 0.0122152c2.46543e-005,-1.74308e-005 0.000823879,-0.000839033 0.000831102,-0.000851438 3.15638e-005,-5.42552e-005 5.53545e-005,-0.000866199 8.74679e-005,-0.00101483l-0.00072958 -2.7952e-005c-1.75093e-005,4.96227e-005 -4.38125e-005,0.000396197 -5.00938e-005,0.00046906 -1.34264e-005,0.00015672 -3.20349e-005,0.000315481 -4.72672e-005,0.000475891 -1.43686e-005,0.000151773 -8.82531e-005,0.000824899 -9.16293e-005,0.00094927z"/>
    <path id="_159752344" class="fil3" d="M0.0061047 0.0104209l-0.000724947 -3.94155e-005c-9.83033e-005,0.000142822 -0.000773628,0.000933096 -0.00078941,0.000984289 -3.45475e-006,1.10709e-005 5.3313e-005,0.000854971 6.57187e-005,0.00089211l0.00144864 -0.00183698z"/>
   </g>
  </g>
 </g>
</svg>
