<?xml version="1.0" encoding="UTF-8"?>
<!DOCTYPE svg PUBLIC "-//W3C//DTD SVG 1.1//EN" "http://www.w3.org/Graphics/SVG/1.1/DTD/svg11.dtd">
<!-- Creator: CorelDRAW -->
<svg xmlns="http://www.w3.org/2000/svg" xml:space="preserve" width="0.898579in" height="0.792394in" style="shape-rendering:geometricPrecision; text-rendering:geometricPrecision; image-rendering:optimizeQuality; fill-rule:evenodd; clip-rule:evenodd"
viewBox="0 0 0.11226 0.0989943"
 xmlns:xlink="http://www.w3.org/1999/xlink">
 <defs>
  <style type="text/css">
   <![CDATA[
    .fil1 {fill:#42C0B0}
    .fil0 {fill:#67D9CA}
    .fil2 {fill:#6DD7E8}
    .fil3 {fill:#8DE0ED}
   ]]>
  </style>
 </defs>
 <g id="Layer_x0020_1">
  <metadata id="CorelCorpID_0Corel-Layer"/>
  <g id="_138008368">
   <path id="_137992600" class="fil0" d="M0.0411893 0.000376268c0.000365447,0.000179035 0.000297571,0.000115094 0.00062367,0.000641869 0.00172985,0.00279717 0.00247353,0.00411534 0.00455997,0.00696858 0.000287734,0.000392991 0.000603996,0.000802213 0.000917798,0.00119619 0.000925668,0.00116176 0.000752044,0.000784506 0.000688103,0.00124636 0.0005917,0.000252321 0.000949769,0.000486443 0.000924192,0.00119717 0.000480541,-4.27912e-005 5.50876e-005,-0.000245927 0.000583338,0.000225269l0.00494903 0.00529677c0.000388072,0.000372825 0.000599569,0.00057055 0.000975345,0.000975837 0.000684168,0.000736796 0.000689087,0.000533661 0.000646787,0.000989117 0.000920258,0.000141654 0.00172345,0.00131325 0.00311933,0.00239237 0.00349954,0.00270716 0.00510593,0.0041842 0.00922274,0.00686381 0.00288275,0.00187642 0.0104288,0.00656034 0.0140946,0.00754405 -0.000425945,-0.00830003 -0.00394122,-0.0202309 -0.00728878,-0.0278379 -0.000788933,-0.00179379 -0.00287587,-0.00655936 -0.00389892,-0.007758l-0.0139627 -0.000158377c0.00034233,0.000840577 0.000988625,0.00150261 0.001479,0.00220252l0.0224723 0.0317831c-0.00107372,-0.000947801 -0.0152912,-0.0197902 -0.0160634,-0.0208059l-0.00993396 -0.0131182c-0.000473655,-0.000212481 -0.012948,-0.000240024 -0.0138649,-0.000211497l-0.000243467 0.000366923z"/>
   <path id="_137993296" class="fil0" d="M0.0141949 0.0984651l0.00287783 -0.00525742c0.000476114,-0.000907961 0.000883369,-0.00177756 0.00132702,-0.00273274 0.000239533,-0.000516938 0.00044857,-0.000941899 0.000659575,-0.00145392 0.000608423,-0.00147408 0.000279373,-0.00106044 0.000864186,-0.00138211 -0.000171657,-0.000281832 -0.000192807,-0.000149523 -5.95143e-005,-0.000568583 0.000200676,-0.000628589 0.000210021,-0.000474639 0.000556778,-0.000687119 -0.000172149,-0.000820411 0.000375776,-0.0016846 0.000659084,-0.00249025 0.000293636,-0.000835659 0.000545957,-0.00155868 0.000822871,-0.00243566 0.000491853,-0.00156016 0.000956655,-0.0038276 0.00150802,-0.00521315 0.000221826,-0.00200775 0.00101322,-0.00478672 0.00139195,-0.00701334 0.000893206,-0.00525053 0.00208743,-0.0203972 0.000827789,-0.02406 -0.0016118,0.000875007 -0.00586388,0.00428109 -0.00750667,0.00570697 -0.00287341,0.00249468 -0.00436471,0.00415567 -0.00689283,0.0065928 -0.00278487,0.00268306 -0.0080482,0.009177 -0.00998413,0.0122767 -0.0017869,0.00286111 -0.0020766,0.00112782 0.00198217,0.00867974 0.000550384,0.00102502 0.00102502,0.00193938 0.00158967,0.00296194 0.000291177,0.000527267 0.000546449,0.00100289 0.000788933,0.00148491l0.000574485 0.00106044c0.000317245,0.000406271 2.85275e-005,0.000123947 0.000405287,0.000398401 0.000358561,-0.00111356 0.00366824,-0.0077821 0.00447291,-0.00948588 0.00147359,-0.00312032 0.00302096,-0.00649246 0.00461211,-0.0095213l0.00924979 -0.0186585c-0.000212481,0.0010506 -0.00211251,0.00504887 -0.00274995,0.00646984l-0.0147118 0.0329148c-1.328e-005,0.000598586 0.00472179,0.0090683 0.00567894,0.0109054 0.000311835,0.000598586 0.000430864,0.00120799 0.00105552,0.00150802z"/>
   <path id="_137992744" class="fil0" d="M0.100305 0.0733737c-0.000147064,0.000385613 0.000234122,0.000449554 -0.000688595,0.000539563 -0.000480049,4.67261e-005 -0.000452013,-4.62342e-005 -0.000722533,-0.000213464 -2.75438e-005,0.000365939 3.54134e-005,0.00015395 -0.000102306,0.000352659 -0.00175001,0.000316262 -0.00357331,0.000787949 -0.00524611,0.0012134 -0.000828773,0.000211005 -0.00170575,0.000468244 -0.00252616,0.000717614 -0.000457915,0.000139195 -0.00080664,0.000266093 -0.00124931,0.000416108l-0.000696956 0.000103289c-3.00031e-005,-7.86965e-006 -8.80418e-005,-4.27912e-005 -0.000112634,-5.16446e-005 -2.65601e-005,-8.85336e-006 -9.44358e-005,-1.77067e-005 -0.000113618,-7.08269e-005 -2.0166e-005,-5.50876e-005 -8.16477e-005,-4.77098e-005 -0.000113618,-8.21395e-005 -0.000164771,0.00073778 -0.00023363,0.000507593 -0.00187199,0.00107322 -0.00422059,0.00145785 -0.00884057,0.00362201 -0.0126883,0.00567009 -0.00394909,0.00210218 -0.00631146,0.00363381 -0.00986658,0.00605373l-0.00262404 0.00193348c-0.000362004,0.00036102 -8.90255e-005,-3.59053e-005 -0.00032364,0.000439717 0.000963049,0.000261666 0.00288226,0.00112536 0.00408681,0.00159705 0.00785588,0.00307654 0.0189698,0.00531595 0.0274921,0.00574239 0.00123308,6.19735e-005 0.0042865,-1.62312e-005 0.00520381,0.000186412 0.000335444,-0.000292161 0.00634442,-0.0115315 0.00662084,-0.012315l-0.00995413 0.00109782c-0.00549695,0.000608423 -0.0259202,0.00305785 -0.0298693,0.00315278 0.0013344,-0.000656132 0.0174155,-0.0027411 0.020317,-0.00314737 0.00340412,-0.000476606 0.00681364,-0.000976821 0.0102502,-0.00143129 0.00171362,-0.000226744 0.00342527,-0.000468736 0.00516397,-0.000703842 0.0044252,-0.000598094 0.00471786,-4.91853e-005 0.0055004,-0.00148687l0.0044498 -0.00838118c0.000553827,-0.00107913 0.00123554,-0.00209972 0.00163984,-0.0032182 -0.0010383,0.000289702 -0.00462736,0.000298063 -0.00600061,0.000421518 -0.00187249,0.000168706 -0.00370759,0.000401352 -0.0055181,0.000713679l-0.000436274 -0.000322656z"/>
   <path id="_137993104" class="fil1" d="M0.0560575 0.0191134c4.22994e-005,-0.000455456 3.73809e-005,-0.000252321 -0.000646787,-0.000989117 -0.000375776,-0.000405287 -0.000587273,-0.000603012 -0.000975345,-0.000975837l-0.00494903 -0.00529677c-0.000528251,-0.000471196 -0.000102797,-0.00026806 -0.000583338,-0.000225269 -0.000385613,0.000181002 -0.0118532,0.0156449 -0.0126155,0.0166296 -0.00137325,0.00177412 -0.00283406,0.00390827 -0.00425207,0.00545318 0.000439225,-0.000879434 0.00136342,-0.00213268 0.00198315,-0.00301063 0.000685152,-0.000968951 0.00130636,-0.00190396 0.00199545,-0.0028798 0.00137325,-0.00194528 0.00261961,-0.0038399 0.00398254,-0.005766 0.000943867,-0.00133391 0.00782834,-0.0110637 0.00798229,-0.0116235 6.39409e-005,-0.00046185 0.000237565,-8.45988e-005 -0.000688103,-0.00124636 -0.000313802,-0.000393975 -0.000630064,-0.000803197 -0.000917798,-0.00119619 -0.00208644,-0.00285324 -0.00283012,-0.00417141 -0.00455997,-0.00696858 -0.000326099,-0.000526775 -0.000258223,-0.000462834 -0.00062367,-0.000641869 -0.00335837,0.00661248 -0.00453194,0.00906584 -0.00693021,0.0162676 -0.00160836,0.00482754 -0.0038399,0.0139224 -0.00397713,0.0193918 0.00185576,-0.000444635 0.00552007,-0.00257584 0.00722139,-0.00347642 0.00229597,-0.00121537 0.00470113,-0.00267913 0.00667297,-0.00405189 0.00255272,-0.00177707 0.00697792,-0.00485656 0.00920602,-0.00688005 0.000577436,-0.000524316 0.000774177,-0.000649738 0.00137227,-0.00122668 0.000417584,-0.000402336 0.00122275,-0.000791884 0.00130292,-0.00128718z"/>
   <path id="_137993128" class="fil1" d="M0.0887328 0.0762983c3.19705e-005,3.44297e-005 9.34521e-005,2.70519e-005 0.000113618,8.21395e-005 1.91823e-005,5.31202e-005 8.7058e-005,6.19735e-005 0.000113618,7.08269e-005 2.45927e-005,8.85336e-006 8.26314e-005,4.3775e-005 0.000112634,5.16446e-005l0.000696956 -0.000103289c0.000442668,-0.000150015 0.000791392,-0.000276913 0.00124931,-0.000416108 0.000820411,-0.00024937 0.00169739,-0.000506609 0.00252616,-0.000717614 0.00167279,-0.000425453 0.00349609,-0.000897141 0.00524611,-0.0012134 0.000137719,-0.000198709 7.47617e-005,1.328e-005 0.000102306,-0.000352659 -9.19766e-005,-0.000970427 -0.00476901,-0.0108582 -0.00557713,-0.0127262 -0.000961573,-0.00222269 -0.00518168,-0.0113294 -0.00554958,-0.0127665 0.00181592,0.00297916 0.012072,0.0246792 0.0125378,0.0251667l0.000436274 0.000322656c0.00181051,-0.000312327 0.00364562,-0.000544974 0.0055181,-0.000713679 0.00137325,-0.000123455 0.00496231,-0.000131817 0.00600061,-0.000421518 5.0169e-005,-0.000801721 -0.0046008,-0.00686283 -0.00534104,-0.00780276 -0.00501936,-0.00636901 -0.00756421,-0.008483 -0.0129116,-0.0134133 -0.000955671,-0.000880909 -0.00637688,-0.00530808 -0.00755438,-0.00565336 -0.000408238,0.00563861 -0.000500707,0.0106609 -3.00031e-005,0.0163153 0.0003079,0.00369677 0.00116176,0.0111808 0.00231024,0.0142913z"/>
   <path id="_138008728" class="fil1" d="M0.0204208 0.0863832c0.00301654,0.000301506 0.0258656,0.00351085 0.0268965,0.00413403l-0.0273938 -0.00287833c-0.000584814,0.000321672 -0.000255764,-9.19766e-005 -0.000864186,0.00138211 -0.000211005,0.000512019 -0.000420043,0.000936981 -0.000659575,0.00145392 -0.000443652,0.000955179 -0.000850906,0.00182478 -0.00132702,0.00273274l-0.00287783 0.00525742c0.00360774,-0.000195266 0.00684758,-0.000187888 0.0104607,-0.000600553 0.00588748,-0.000672364 0.0126042,-0.00213759 0.0181523,-0.00393434l0.00801082 -0.00293489c-0.000935505,-0.00165459 -0.0105065,-0.00717467 -0.0127528,-0.00840528 -0.00232942,-0.00127587 -0.00460424,-0.00235352 -0.00710581,-0.00345724 -0.00209234,-0.000922717 -0.00533415,-0.00234909 -0.00754946,-0.00288865 -0.000551368,0.00138555 -0.00101617,0.003653 -0.00150802,0.00521315 -0.000276913,0.000876975 -0.000529234,0.0016 -0.000822871,0.00243566 -0.000283308,0.000805656 -0.000831232,0.00166984 -0.000659084,0.00249025z"/>
   <path id="_138008704" class="fil2" d="M0.0469784 0.0715391c0.00033446,-0.000305441 0.0089719,-0.0144074 0.00900731,-0.0146169 0.000152966,-0.000914847 -0.00640246,-0.0142741 -0.00705514,-0.0167402l-0.0146149 8.95173e-005c8.36151e-005,0.000828773 0.00256354,0.00654362 0.00307113,0.00774571 0.00109142,0.00258518 0.00209775,0.00520824 0.00318573,0.00785441 0.00102994,0.0025055 0.00539612,0.0136209 0.0064059,0.0156675z"/>
   <path id="_138008800" class="fil3" d="M0.0781078 0.040272l-0.0146228 -0.000101322c-0.000700891,0.0024209 -0.00716778,0.0159154 -0.00703596,0.0167673 2.85275e-005,0.000185921 0.00844561,0.014009 0.00901223,0.01461l0.0126465 -0.031276z"/>
  </g>
 </g>
</svg>
