<?xml version="1.0" encoding="UTF-8"?>
<!DOCTYPE svg PUBLIC "-//W3C//DTD SVG 1.1//EN" "http://www.w3.org/Graphics/SVG/1.1/DTD/svg11.dtd">
<!-- Creator: CorelDRAW -->
<svg xmlns="http://www.w3.org/2000/svg" xml:space="preserve" width="4.00646in" height="3.67974in" style="shape-rendering:geometricPrecision; text-rendering:geometricPrecision; image-rendering:optimizeQuality; fill-rule:evenodd; clip-rule:evenodd"
viewBox="0 0 0.108358 0.0995216"
 xmlns:xlink="http://www.w3.org/1999/xlink">
 <defs>
  <style type="text/css">
   <![CDATA[
    .fil3 {fill:none}
    .fil8 {fill:#62B67D}
    .fil6 {fill:#7BC4A0}
    .fil9 {fill:#B6DDC7}
    .fil2 {fill:#C2C1C1}
    .fil5 {fill:#DEDEDD}
    .fil7 {fill:white}
    .fil0 {fill:#314F59}
    .fil1 {fill:#368F5F}
    .fil4 {fill:#67BC8F}
   ]]>
  </style>
       <clipPath id="id0">
        <path d="M0.101513 0.0338221c0.000401428,0.012773 0.00264719,0.0166776 0.00431444,0.0257343l-0.0576403 0.00371209 -0.000419103 -0.0259476 0.053745 -0.00349881z"/>
       </clipPath>
       <clipPath id="id1">
        <path d="M0.102914 0.0318759c0.000401534,0.0127729 0.00264719,0.0166776 0.00431444,0.0257343l-0.0576403 0.00371198 -0.000419103 -0.0259476 0.053745 -0.0034987z"/>
       </clipPath>
       <clipPath id="id2">
        <path d="M0.102986 0.0299387c0.000401428,0.012773 0.00264708,0.0166777 0.00431434,0.0257344l-0.0576403 0.00371198 -0.000419103 -0.0259476 0.0537451 -0.00349881z"/>
       </clipPath>
       <clipPath id="id3">
        <path d="M0.103306 0.0284162c0.000401428,0.0127729 0.00264719,0.0166776 0.00431444,0.0257343l-0.0576404 0.00371198 -0.000418997 -0.0259476 0.053745 -0.0034987z"/>
       </clipPath>
       <clipPath id="id4">
        <path d="M0.103763 0.0258228c0.000401428,0.012773 0.00264719,0.0166777 0.00431434,0.0257343l-0.0576403 0.00371209 -0.000419103 -0.0259476 0.0537451 -0.00349881z"/>
       </clipPath>
       <clipPath id="id5">
        <path d="M0.104043 0.0247396c0.000401428,0.012773 0.00264719,0.0166777 0.00431444,0.0257343l-0.0576404 0.00371209 -0.000418997 -0.0259476 0.053745 -0.00349881z"/>
       </clipPath>
       <clipPath id="id6">
        <path d="M0.098399 0.0273474c0.000401428,0.012773 0.00264719,0.0166777 0.00431434,0.0257343l-0.0576403 0.00371209 -0.000419103 -0.0259476 0.0537451 -0.00349881z"/>
       </clipPath>
       <clipPath id="id7">
        <path d="M0.0998002 0.0254012c0.000401428,0.012773 0.00264719,0.0166776 0.00431444,0.0257343l-0.0576404 0.00371209 -0.000419103 -0.0259476 0.0537451 -0.00349881z"/>
       </clipPath>
       <clipPath id="id8">
        <path d="M0.099872 0.0234641c0.000401428,0.0127729 0.00264719,0.0166776 0.00431444,0.0257343l-0.0576404 0.00371198 -0.000418997 -0.0259476 0.053745 -0.0034987z"/>
       </clipPath>
       <clipPath id="id9">
        <path d="M0.100192 0.0219415c0.000401428,0.0127729 0.00264708,0.0166776 0.00431434,0.0257343l-0.0576403 0.00371198 -0.000419103 -0.0259475 0.0537451 -0.00349881z"/>
       </clipPath>
       <clipPath id="id10">
        <path d="M0.100649 0.0193481c0.000401428,0.012773 0.00264719,0.0166777 0.00431444,0.0257344l-0.0576404 0.00371198 -0.000418997 -0.0259476 0.053745 -0.00349881z"/>
       </clipPath>
       <clipPath id="id11">
        <path d="M0.10093 0.0182649c0.000401428,0.012773 0.00264708,0.0166777 0.00431434,0.0257344l-0.0576403 0.00371198 -0.000419103 -0.0259476 0.0537451 -0.00349881z"/>
       </clipPath>
      <clipPath id="id12">
       <path d="M0.05104 0.0122435c0.00783242,0.0100976 0.0119444,0.0119366 0.0186166,0.0182836l-0.0444503 0.0368831 -0.0155905 -0.0207457 0.0414242 -0.034421z"/>
      </clipPath>
      <clipPath id="id13">
       <path d="M0.0510297 0.00984531c0.00783242,0.0100976 0.0119444,0.0119366 0.0186166,0.0182836l-0.0444503 0.0368831 -0.0155905 -0.0207457 0.0414242 -0.034421z"/>
      </clipPath>
      <clipPath id="id14">
       <path d="M0.0499491 0.00823598c0.00783252,0.0100976 0.0119444,0.0119366 0.0186167,0.0182836l-0.0444503 0.0368831 -0.0155906 -0.0207457 0.0414242 -0.034421z"/>
      </clipPath>
      <clipPath id="id15">
       <path d="M0.0493131 0.00681597c0.00783252,0.0100976 0.0119444,0.0119366 0.0186167,0.0182836l-0.0444503 0.0368831 -0.0155906 -0.0207457 0.0414242 -0.034421z"/>
      </clipPath>
      <clipPath id="id16">
       <path d="M0.0481585 0.00444925c0.00783242,0.0100976 0.0119443,0.0119366 0.0186166,0.0182837l-0.0444503 0.036883 -0.0155905 -0.0207457 0.0414242 -0.034421z"/>
      </clipPath>
      <clipPath id="id17">
       <path d="M0.0477489 0.00340798c0.00783252,0.0100976 0.0119444,0.0119365 0.0186167,0.0182836l-0.0444504 0.0368831 -0.0155905 -0.0207457 0.0414242 -0.034421z"/>
      </clipPath>
      <clipPath id="id18">
       <path d="M0.0447153 0.00883556c0.00783242,0.0100976 0.0119443,0.0119366 0.0186166,0.0182836l-0.0444503 0.0368831 -0.0155905 -0.0207457 0.0414242 -0.034421z"/>
      </clipPath>
      <clipPath id="id19">
       <path d="M0.044705 0.00643732c0.00783242,0.0100976 0.0119444,0.0119366 0.0186166,0.0182836l-0.0444503 0.0368831 -0.0155905 -0.0207457 0.0414242 -0.034421z"/>
      </clipPath>
      <clipPath id="id20">
       <path d="M0.0436244 0.00482799c0.00783252,0.0100976 0.0119444,0.0119366 0.0186167,0.0182836l-0.0444503 0.0368831 -0.0155906 -0.0207457 0.0414242 -0.034421z"/>
      </clipPath>
      <clipPath id="id21">
       <path d="M0.0429884 0.00340798c0.00783252,0.0100976 0.0119444,0.0119366 0.0186167,0.0182836l-0.0444503 0.0368831 -0.0155906 -0.0207457 0.0414242 -0.034421z"/>
      </clipPath>
      <clipPath id="id22">
       <path d="M0.0418338 0.00104126c0.00783252,0.0100976 0.0119444,0.0119366 0.0186167,0.0182836l-0.0444503 0.0368831 -0.0155905 -0.0207457 0.0414241 -0.034421z"/>
      </clipPath>
      <clipPath id="id23">
       <path d="M0.0414242 0c0.00783242,0.0100976 0.0119444,0.0119365 0.0186166,0.0182836l-0.0444503 0.0368831 -0.0155905 -0.0207457 0.0414242 -0.034421z"/>
      </clipPath>
 </defs>
 <g id="Layer_x0020_1">
  <metadata id="CorelCorpID_0Corel-Layer"/>
  <g id="_118842520">
   <!-- <ellipse id="_118844152" class="fil0" cx="0.0584248" cy="0.0882929" rx="0.0356477" ry="0.0112287"/> -->
   <g>
    <g>
     <g>
      <path id="_118844008" class="fil1" d="M0.101513 0.0338221c0.000401428,0.012773 0.00264719,0.0166776 0.00431444,0.0257343l-0.0576403 0.00371209 -0.000419103 -0.0259476 0.053745 -0.00349881z"/>
      <g style="clip-path:url(#id0)">
       <g>
        <polygon id="_1186226241" class="fil2" points="0.0662149,0.0329078 0.0690915,0.065431 0.0837675,0.0660274 0.0768515,0.0298669 "/>
       </g>
      </g>
      <path class="fil3" d="M0.101513 0.0338221c0.000401428,0.012773 0.00264719,0.0166776 0.00431444,0.0257343l-0.0576403 0.00371209 -0.000419103 -0.0259476 0.053745 -0.00349881z"/>
      <path id="_118844632" class="fil4" d="M0.102914 0.0318759c0.000401534,0.0127729 0.00264719,0.0166776 0.00431444,0.0257343l-0.0576403 0.00371198 -0.000419103 -0.0259476 0.053745 -0.0034987z"/>
      <g style="clip-path:url(#id1)">
       <g>
        <polygon id="_1186225521" class="fil5" points="0.0676162,0.0309616 0.0704928,0.0634848 0.0851689,0.0640811 0.0782527,0.0279206 "/>
       </g>
      </g>
      <path class="fil3" d="M0.102914 0.0318759c0.000401534,0.0127729 0.00264719,0.0166776 0.00431444,0.0257343l-0.0576403 0.00371198 -0.000419103 -0.0259476 0.053745 -0.0034987z"/>
      <path id="_118844512" class="fil6" d="M0.102986 0.0299387c0.000401428,0.012773 0.00264708,0.0166777 0.00431434,0.0257344l-0.0576403 0.00371198 -0.000419103 -0.0259476 0.0537451 -0.00349881z"/>
      <g style="clip-path:url(#id2)">
       <g>
        <polygon id="_1186213281" class="fil5" points="0.0676881,0.0290244 0.0705646,0.0615477 0.0852407,0.062144 0.0783245,0.0259836 "/>
       </g>
      </g>
      <path class="fil3" d="M0.102986 0.0299387c0.000401428,0.012773 0.00264708,0.0166777 0.00431434,0.0257344l-0.0576403 0.00371198 -0.000419103 -0.0259476 0.0537451 -0.00349881z"/>
      <path id="_118844128" class="fil4" d="M0.103306 0.0284162c0.000401428,0.0127729 0.00264719,0.0166776 0.00431444,0.0257343l-0.0576404 0.00371198 -0.000418997 -0.0259476 0.053745 -0.0034987z"/>
      <g style="clip-path:url(#id3)">
       <g>
        <polygon id="_1186211601" class="fil7" points="0.0680081,0.0275018 0.0708847,0.060025 0.0855607,0.0606213 0.0786447,0.0244609 "/>
       </g>
      </g>
      <path class="fil3" d="M0.103306 0.0284162c0.000401428,0.0127729 0.00264719,0.0166776 0.00431444,0.0257343l-0.0576404 0.00371198 -0.000418997 -0.0259476 0.053745 -0.0034987z"/>
      <path id="_118844272" class="fil8" d="M0.103763 0.0258228c0.000401428,0.012773 0.00264719,0.0166777 0.00431434,0.0257343l-0.0576403 0.00371209 -0.000419103 -0.0259476 0.0537451 -0.00349881z"/>
      <g style="clip-path:url(#id4)">
       <g>
        <polygon id="_1186243281" class="fil9" points="0.0684651,0.0249084 0.0713417,0.0574317 0.0860178,0.058028 0.0791016,0.0218676 "/>
       </g>
      </g>
      <path class="fil3" d="M0.103763 0.0258228c0.000401428,0.012773 0.00264719,0.0166777 0.00431434,0.0257343l-0.0576403 0.00371209 -0.000419103 -0.0259476 0.0537451 -0.00349881z"/>
      <path id="_118844536" class="fil4" d="M0.104043 0.0247396c0.000401428,0.012773 0.00264719,0.0166777 0.00431444,0.0257343l-0.0576404 0.00371209 -0.000418997 -0.0259476 0.053745 -0.00349881z"/>
      <g style="clip-path:url(#id5)">
       <g>
        <polygon id="_1186239441" class="fil7" points="0.0687458,0.0238252 0.0716224,0.0563485 0.0862984,0.0569448 0.0793824,0.0207844 "/>
       </g>
      </g>
      <path class="fil3" d="M0.104043 0.0247396c0.000401428,0.012773 0.00264719,0.0166777 0.00431444,0.0257343l-0.0576404 0.00371209 -0.000418997 -0.0259476 0.053745 -0.00349881z"/>
     </g>
     <g>
      <path id="_118844248" class="fil1" d="M0.098399 0.0273474c0.000401428,0.012773 0.00264719,0.0166777 0.00431434,0.0257343l-0.0576403 0.00371209 -0.000419103 -0.0259476 0.0537451 -0.00349881z"/>
      <g style="clip-path:url(#id6)">
       <g>
        <polygon id="_1186224321" class="fil2" points="0.0631013,0.0264331 0.0659779,0.0589564 0.080654,0.0595527 0.0737378,0.0233923 "/>
       </g>
      </g>
      <path class="fil3" d="M0.098399 0.0273474c0.000401428,0.012773 0.00264719,0.0166777 0.00431434,0.0257343l-0.0576403 0.00371209 -0.000419103 -0.0259476 0.0537451 -0.00349881z"/>
      <path id="_118844224" class="fil4" d="M0.0998002 0.0254012c0.000401428,0.012773 0.00264719,0.0166776 0.00431444,0.0257343l-0.0576404 0.00371209 -0.000419103 -0.0259476 0.0537451 -0.00349881z"/>
      <g style="clip-path:url(#id7)">
       <g>
        <polygon id="_1186217121" class="fil5" points="0.0645026,0.0244869 0.0673792,0.0570101 0.0820552,0.0576065 0.0751391,0.0214459 "/>
       </g>
      </g>
      <path class="fil3" d="M0.0998002 0.0254012c0.000401428,0.012773 0.00264719,0.0166776 0.00431444,0.0257343l-0.0576404 0.00371209 -0.000419103 -0.0259476 0.0537451 -0.00349881z"/>
      <path id="_118844200" class="fil6" d="M0.099872 0.0234641c0.000401428,0.0127729 0.00264719,0.0166776 0.00431444,0.0257343l-0.0576404 0.00371198 -0.000418997 -0.0259476 0.053745 -0.0034987z"/>
      <g style="clip-path:url(#id8)">
       <g>
        <polygon id="_1186208721" class="fil5" points="0.0645744,0.0225498 0.0674509,0.055073 0.082127,0.0556693 0.0752109,0.0195089 "/>
       </g>
      </g>
      <path class="fil3" d="M0.099872 0.0234641c0.000401428,0.0127729 0.00264719,0.0166776 0.00431444,0.0257343l-0.0576404 0.00371198 -0.000418997 -0.0259476 0.053745 -0.0034987z"/>
      <path id="_118844704" class="fil4" d="M0.100192 0.0219415c0.000401428,0.0127729 0.00264708,0.0166776 0.00431434,0.0257343l-0.0576403 0.00371198 -0.000419103 -0.0259475 0.0537451 -0.00349881z"/>
      <g style="clip-path:url(#id9)">
       <g>
        <polygon id="_1186210881" class="fil7" points="0.0648946,0.0210271 0.0677711,0.0535503 0.0824472,0.0541467 0.075531,0.0179862 "/>
       </g>
      </g>
      <path class="fil3" d="M0.100192 0.0219415c0.000401428,0.0127729 0.00264708,0.0166776 0.00431434,0.0257343l-0.0576403 0.00371198 -0.000419103 -0.0259475 0.0537451 -0.00349881z"/>
      <path id="_118843888" class="fil8" d="M0.100649 0.0193481c0.000401428,0.012773 0.00264719,0.0166777 0.00431444,0.0257344l-0.0576404 0.00371198 -0.000418997 -0.0259476 0.053745 -0.00349881z"/>
      <g style="clip-path:url(#id10)">
       <g>
        <polygon id="_1186239921" class="fil9" points="0.0653515,0.0184337 0.068228,0.050957 0.0829041,0.0515533 0.075988,0.0153929 "/>
       </g>
      </g>
      <path class="fil3" d="M0.100649 0.0193481c0.000401428,0.012773 0.00264719,0.0166777 0.00431444,0.0257344l-0.0576404 0.00371198 -0.000418997 -0.0259476 0.053745 -0.00349881z"/>
      <path id="_118843384" class="fil4" d="M0.10093 0.0182649c0.000401428,0.012773 0.00264708,0.0166777 0.00431434,0.0257344l-0.0576403 0.00371198 -0.000419103 -0.0259476 0.0537451 -0.00349881z"/>
      <g style="clip-path:url(#id11)">
       <g>
        <polygon id="_1186231281" class="fil7" points="0.0656321,0.0173505 0.0685088,0.0498738 0.0831849,0.0504701 0.0762687,0.0143097 "/>
       </g>
      </g>
      <path class="fil3" d="M0.10093 0.0182649c0.000401428,0.012773 0.00264708,0.0166777 0.00431434,0.0257344l-0.0576403 0.00371198 -0.000419103 -0.0259476 0.0537451 -0.00349881z"/>
     </g>
    </g>
    <g>
     <path id="_118843864" class="fil1" d="M0.05104 0.0122435c0.00783242,0.0100976 0.0119444,0.0119366 0.0186166,0.0182836l-0.0444503 0.0368831 -0.0155905 -0.0207457 0.0414242 -0.034421z"/>
     <g style="clip-path:url(#id12)">
      <g>
       <polygon id="_1186222401" class="fil2" points="0.0219461,0.0322511 0.0433899,0.0568723 0.0556136,0.0487284 0.0287638,0.0235391 "/>
      </g>
     </g>
     <path class="fil3" d="M0.05104 0.0122435c0.00783242,0.0100976 0.0119444,0.0119366 0.0186166,0.0182836l-0.0444503 0.0368831 -0.0155905 -0.0207457 0.0414242 -0.034421z"/>
     <path id="_118843816" class="fil4" d="M0.0510297 0.00984531c0.00783242,0.0100976 0.0119444,0.0119366 0.0186166,0.0182836l-0.0444503 0.0368831 -0.0155905 -0.0207457 0.0414242 -0.034421z"/>
     <g style="clip-path:url(#id13)">
      <g>
       <polygon id="_1186221921" class="fil5" points="0.0219357,0.0298529 0.0433795,0.0544741 0.0556033,0.0463302 0.0287535,0.0211409 "/>
      </g>
     </g>
     <path class="fil3" d="M0.0510297 0.00984531c0.00783242,0.0100976 0.0119444,0.0119366 0.0186166,0.0182836l-0.0444503 0.0368831 -0.0155905 -0.0207457 0.0414242 -0.034421z"/>
     <path id="_118843840" class="fil6" d="M0.0499491 0.00823598c0.00783252,0.0100976 0.0119444,0.0119366 0.0186167,0.0182836l-0.0444503 0.0368831 -0.0155906 -0.0207457 0.0414242 -0.034421z"/>
     <g style="clip-path:url(#id14)">
      <g>
       <polygon id="_1186213521" class="fil5" points="0.0208553,0.0282436 0.042299,0.0528647 0.0545227,0.0447209 0.027673,0.0195315 "/>
      </g>
     </g>
     <path class="fil3" d="M0.0499491 0.00823598c0.00783252,0.0100976 0.0119444,0.0119366 0.0186167,0.0182836l-0.0444503 0.0368831 -0.0155906 -0.0207457 0.0414242 -0.034421z"/>
     <path id="_118843936" class="fil4" d="M0.0493131 0.00681597c0.00783252,0.0100976 0.0119444,0.0119366 0.0186167,0.0182836l-0.0444503 0.0368831 -0.0155906 -0.0207457 0.0414242 -0.034421z"/>
     <g style="clip-path:url(#id15)">
      <g>
       <polygon id="_1186204161" class="fil7" points="0.0202193,0.0268236 0.0416631,0.0514447 0.0538867,0.0433008 0.027037,0.0181115 "/>
      </g>
     </g>
     <path class="fil3" d="M0.0493131 0.00681597c0.00783252,0.0100976 0.0119444,0.0119366 0.0186167,0.0182836l-0.0444503 0.0368831 -0.0155906 -0.0207457 0.0414242 -0.034421z"/>
     <path id="_118843768" class="fil8" d="M0.0481585 0.00444925c0.00783242,0.0100976 0.0119443,0.0119366 0.0186166,0.0182837l-0.0444503 0.036883 -0.0155905 -0.0207457 0.0414242 -0.034421z"/>
     <g style="clip-path:url(#id16)">
      <g>
       <polygon id="_1186243761" class="fil9" points="0.0190646,0.024457 0.0405084,0.049078 0.0527322,0.0409341 0.0258824,0.0157448 "/>
      </g>
     </g>
     <path class="fil3" d="M0.0481585 0.00444925c0.00783242,0.0100976 0.0119443,0.0119366 0.0186166,0.0182837l-0.0444503 0.036883 -0.0155905 -0.0207457 0.0414242 -0.034421z"/>
     <path id="_118843744" class="fil4" d="M0.0477489 0.00340798c0.00783252,0.0100976 0.0119444,0.0119365 0.0186167,0.0182836l-0.0444504 0.0368831 -0.0155905 -0.0207457 0.0414242 -0.034421z"/>
     <g style="clip-path:url(#id17)">
      <g>
       <polygon id="_1186237521" class="fil7" points="0.018655,0.0234156 0.0400988,0.0480367 0.0523225,0.0398928 0.0254728,0.0147034 "/>
      </g>
     </g>
     <path class="fil3" d="M0.0477489 0.00340798c0.00783252,0.0100976 0.0119444,0.0119365 0.0186167,0.0182836l-0.0444504 0.0368831 -0.0155905 -0.0207457 0.0414242 -0.034421z"/>
    </g>
    <g>
     <path id="_118843696" class="fil1" d="M0.0447153 0.00883556c0.00783242,0.0100976 0.0119443,0.0119366 0.0186166,0.0182836l-0.0444503 0.0368831 -0.0155905 -0.0207457 0.0414242 -0.034421z"/>
     <g style="clip-path:url(#id18)">
      <g>
       <polygon id="_1186226001" class="fil2" points="0.0156214,0.0288432 0.0370652,0.0534643 0.0492889,0.0453203 0.0224392,0.0201311 "/>
      </g>
     </g>
     <path class="fil3" d="M0.0447153 0.00883556c0.00783242,0.0100976 0.0119443,0.0119366 0.0186166,0.0182836l-0.0444503 0.0368831 -0.0155905 -0.0207457 0.0414242 -0.034421z"/>
     <path id="_118842712" class="fil4" d="M0.044705 0.00643732c0.00783242,0.0100976 0.0119444,0.0119366 0.0186166,0.0182836l-0.0444503 0.0368831 -0.0155905 -0.0207457 0.0414242 -0.034421z"/>
     <g style="clip-path:url(#id19)">
      <g>
       <polygon id="_1186214001" class="fil5" points="0.0156111,0.0264449 0.0370549,0.0510661 0.0492786,0.0429222 0.0224288,0.0177329 "/>
      </g>
     </g>
     <path class="fil3" d="M0.044705 0.00643732c0.00783242,0.0100976 0.0119444,0.0119366 0.0186166,0.0182836l-0.0444503 0.0368831 -0.0155905 -0.0207457 0.0414242 -0.034421z"/>
     <path id="_118842616" class="fil6" d="M0.0436244 0.00482799c0.00783252,0.0100976 0.0119444,0.0119366 0.0186167,0.0182836l-0.0444503 0.0368831 -0.0155906 -0.0207457 0.0414242 -0.034421z"/>
     <g style="clip-path:url(#id20)">
      <g>
       <polygon id="_1186218081" class="fil5" points="0.0145305,0.0248356 0.0359743,0.0494567 0.048198,0.0413129 0.0213483,0.0161236 "/>
      </g>
     </g>
     <path class="fil3" d="M0.0436244 0.00482799c0.00783252,0.0100976 0.0119444,0.0119366 0.0186167,0.0182836l-0.0444503 0.0368831 -0.0155906 -0.0207457 0.0414242 -0.034421z"/>
     <path id="_118842832" class="fil4" d="M0.0429884 0.00340798c0.00783252,0.0100976 0.0119444,0.0119366 0.0186167,0.0182836l-0.0444503 0.0368831 -0.0155906 -0.0207457 0.0414242 -0.034421z"/>
     <g style="clip-path:url(#id21)">
      <g>
       <polygon id="_1186210641" class="fil7" points="0.0138946,0.0234156 0.0353384,0.0480367 0.047562,0.0398929 0.0207123,0.0147035 "/>
      </g>
     </g>
     <path class="fil3" d="M0.0429884 0.00340798c0.00783252,0.0100976 0.0119444,0.0119366 0.0186167,0.0182836l-0.0444503 0.0368831 -0.0155906 -0.0207457 0.0414242 -0.034421z"/>
     <path id="_118842784" class="fil8" d="M0.0418338 0.00104126c0.00783252,0.0100976 0.0119444,0.0119366 0.0186167,0.0182836l-0.0444503 0.0368831 -0.0155905 -0.0207457 0.0414241 -0.034421z"/>
     <g style="clip-path:url(#id22)">
      <g>
       <polygon id="_1186237041" class="fil9" points="0.01274,0.0210489 0.0341838,0.04567 0.0464075,0.0375261 0.0195577,0.0123368 "/>
      </g>
     </g>
     <path class="fil3" d="M0.0418338 0.00104126c0.00783252,0.0100976 0.0119444,0.0119366 0.0186167,0.0182836l-0.0444503 0.0368831 -0.0155905 -0.0207457 0.0414241 -0.034421z"/>
     <path id="_118842424" class="fil4" d="M0.0414242 0c0.00783242,0.0100976 0.0119444,0.0119365 0.0186166,0.0182836l-0.0444503 0.0368831 -0.0155905 -0.0207457 0.0414242 -0.034421z"/>
     <g style="clip-path:url(#id23)">
      <g>
       <polygon id="_1186242081" class="fil7" points="0.0123303,0.0200076 0.0337741,0.0446287 0.0459979,0.0364848 0.0191481,0.0112955 "/>
      </g>
     </g>
     <path class="fil3" d="M0.0414242 0c0.00783242,0.0100976 0.0119444,0.0119365 0.0186166,0.0182836l-0.0444503 0.0368831 -0.0155905 -0.0207457 0.0414242 -0.034421z"/>
    </g>
   </g>
  </g>
 </g>
</svg>
