<?xml version="1.0" encoding="UTF-8"?>
<!DOCTYPE svg PUBLIC "-//W3C//DTD SVG 1.1//EN" "http://www.w3.org/Graphics/SVG/1.1/DTD/svg11.dtd">
<!-- Creator: CorelDRAW -->
<svg xmlns="http://www.w3.org/2000/svg" xml:space="preserve" width="2.88543in" height="5.19513in" style="shape-rendering:geometricPrecision; text-rendering:geometricPrecision; image-rendering:optimizeQuality; fill-rule:evenodd; clip-rule:evenodd"
viewBox="0 0 0.0726565 0.130816"
 xmlns:xlink="http://www.w3.org/1999/xlink">
 <defs>
  <style type="text/css">
   <![CDATA[
    .str0 {stroke:#1F1A17;stroke-width:7.55416e-005}
    .str3 {stroke:white;stroke-width:7.55416e-005}
    .str1 {stroke:#1C3130;stroke-width:0.00279781;stroke-linecap:round;stroke-linejoin:round}
    .str2 {stroke:#1C3130;stroke-width:0.00454082;stroke-linecap:round}
    .str4 {stroke:#1C3130;stroke-width:0.004543;stroke-linecap:round}
    .str5 {stroke:#1C3130;stroke-width:0.0045435;stroke-linecap:round}
    .fil3 {fill:none}
    .fil4 {fill:#2ED2BE}
    .fil0 {fill:#3AC8E8}
    .fil5 {fill:#83EBDF}
    .fil2 {fill:#1C3130}
    .fil1 {fill:#314F59}
   ]]>
  </style>
 </defs>
 <g id="Layer_x0020_1">
  <metadata id="CorelCorpID_0Corel-Layer"/>
  <g id="_118845472">
   <circle id="_118838944" class="fil0 str0" cx="0.0363283" cy="0.0707225" r="0.0329913"/>
   <g>
    <g>
     <path id="_118838968" class="fil2 str1" d="M0.0712576 0.0707409c0,0.00954689 -0.00343595,0.0176456 -0.0103077,0.0243087 -0.00685951,0.00666313 -0.0150811,0.00998864 -0.02464,0.00998864 -0.00955928,0 -0.0177685,-0.00332552 -0.0246279,-0.00998864 -0.00684722,-0.00666313 -0.0102831,-0.0147618 -0.0102831,-0.0243087 0,-0.0095346 0.00344825,-0.0176579 0.01032,-0.0243702 0.00683483,-0.00663854 0.0150318,-0.00996406 0.0245911,-0.00996406 0.00955899,0 0.017756,0.00332552 0.0245909,0.00996406 0.00689639,0.0067123 0.0103568,0.0148356 0.0103568,0.0243702zm-0.00234387 0.000257654l0 -0.00126398c-0.00620908,-0.000674719 -0.00931353,-0.00100603 -0.00933821,-0.00100603 -0.000147217,0 -0.00173022,0.000159411 -0.00474891,0.000466236l0.00179168 0.00344805 -0.00460159 0.00165656 -0.00262601 -0.00592684 -0.000822234 0.000503214c0.00148486,0.00272416 0.00230699,0.00536236 0.00244202,0.00790242 -0.00153383,0.00182836 -0.00306786,0.00368131 -0.00460169,0.00557094 2.44866e-005,0.0040618 -0.00040497,0.00773072 -0.00128847,0.0110439l-0.00460159 0.00395126 -0.00331312 -0.00215958c-0.00028224,-0.00462628 -0.0010553,-0.00927694 -0.0022946,-0.0139768l-0.00281011 -0.00396355 -0.00624586 -0.00147247 -0.00161978 -0.00376707 0.00107969 -0.005473c0.00181617,-0.000527602 0.0044176,-0.00149705 0.00779218,-0.00290825 0.000797549,0.000552187 0.00180388,0.000920378 0.00301869,0.00111677 0.0010553,0.000171703 0.00211051,0.00031892 0.00316581,0.000466236 2.45857e-005,0 0.00153393,0.000417263 0.00452794,0.00126398 0.00177939,0.000478529 0.00332552,0.000748576 0.00463847,0.000822134l0.00147247 -0.00359546 -0.00179149 0 -0.00104311 -0.00553417 -0.00449116 -0.000183996 0.000282339 0.00180378 0.00227011 0.00287147 -0.00180388 -0.000895892 0.000429457 0.00132525 -0.00315361 0.000760769 0.00121481 -0.000907986 -0.000895792 -0.00255245 -0.0021229 -0.00150925 -0.00165656 0.00150925 -0.00240504 -0.000429358 -0.00147247 0.00269967 -0.00273645 -0.00136213 0.0021228 -0.00255235 0.00316591 -0.000908085 0.00132525 -0.0019387 0.00467525 -0.002123 0.00104311 -0.00117803 0.00104291 -0.00435613 -0.00283459 0.00143569 0.00128847 0.00072399 -0.00201236 0.00186514 -0.000711796 -0.00201236 -0.00100613 0.0015829 -0.00303098 -0.00258923 0.00647913 -0.00560772 0.00531339 0 0.000576674 -0.00312913c-0.00359536,-0.00133754 -0.00731346,-0.00201256 -0.0111789,-0.00201256 -0.00429477,0 -0.00784116,0.000589066 -0.010639,0.0017671 0.000650332,0.000503214 0.00096945,0.0010554 0.00096945,0.00165656 0,0.000282339 -0.00028224,0.000503214 -0.000859013,0.000638138 -0.000417263,7.3658e-005 -0.000822134,0.000147217 -0.0012271,0.000220875 -0.00112886,0.000355799 -0.00227011,0.000981644 -0.00343575,0.00188973 -0.00115355,0.000895693 -0.00223343,0.00250328 -0.00321508,0.00483476 -0.000785355,0.00181607 -0.00164427,0.00272416 -0.00255245,0.00272416 -0.000576674,0 -0.00107969,-0.000478628 -0.00152144,-0.00144788 -0.000454142,-0.00096945 -0.00068731,-0.00146037 -0.000711796,-0.00146037 -0.0008835,0 -0.00166895,0.000233168 -0.00236826,0.00068731 -0.0019389,0.00128837 -0.00376717,0.00412297 -0.00546061,0.0084791 -0.00175471,0.00447886 -0.00262601,0.00874914 -0.00262601,0.0127986 0,0.009007 0.00320269,0.016615 0.00959586,0.0228117 0.00640547,0.00619689 0.014124,0.00928924 0.0231554,0.00928924 0.00903148,0 0.016799,-0.00314142 0.0232781,-0.00943645 0.00647893,-0.00628274 0.0097185,-0.0139398 0.0097185,-0.0229467zm-0.0313033 -0.0176579l-0.00161978 0.00165656 -0.00150925 -0.000147217 0.00136203 -0.00165656 -0.000895693 -0.000319019 -0.00096945 -0.0017549 0.000539894 -0.00137422 0.00309225 0.00359536zm-0.0070557 -0.00492061l-0.00117803 0.000895693 -0.00197558 0.000294533 0.000748377 -0.00256465 0.00197578 0 0.000429457 0.00137442zm0.00288367 0.00506783l-0.00104301 0.00119042 -0.000466336 -0.00133764 0.000748476 -0.00121481 0.000760868 0.00136203zm0.0060004 0.00901919l-0.000147217 0.00147257 -0.00136213 -0.00147257 0.00150934 0z"/>
     <g>
      <line id="_118839304" class="fil3 str2" x1="0.031298" y1="0.0367275" x2="0.031298" y2= "0.017992" />
      <circle id="_118839016" class="fil4 str3" cx="0.0397679" cy="0.0171288" r="0.00690539"/>
      <circle id="_118838728" class="fil4 str3" cx="0.0236769" cy="0.0230343" r="0.00763191"/>
      <circle id="_118839160" class="fil4 str3" cx="0.0299277" cy="0.0116044" r="0.00690539"/>
      <circle id="_118838704" class="fil5 str3" cx="0.0209149" cy="0.0147351" r="0.00345269"/>
      <circle id="_118838200" class="fil4 str3" cx="0.0322583" cy="0.00495801" r="0.00492009"/>
      <circle id="_118838176" class="fil4 str3" cx="0.0379195" cy="0.0104737" r="0.00345269"/>
      <circle id="_118838464" class="fil4 str3" cx="0.0359699" cy="0.0221352" r="0.00345269"/>
      <circle id="_118838416" class="fil4 str3" cx="0.0383868" cy="0.0238615" r="0.00690539"/>
      <circle id="_118837840" class="fil5 str3" cx="0.0312981" cy="0.0195456" r="0.0039706"/>
     </g>
     <g>
      <line id="_118838488" class="fil3 str4" x1="0.0586937" y1="0.0431318" x2="0.0586937" y2= "0.0295973" />
      <circle id="_118838224" class="fil4 str3" cx="0.0648123" cy="0.0289738" r="0.00498837"/>
      <circle id="_118837936" class="fil4 str3" cx="0.0531883" cy="0.0332399" r="0.00551321"/>
      <circle id="_118838344" class="fil4 str3" cx="0.0577038" cy="0.0249831" r="0.00498837"/>
      <circle id="_118838392" class="fil5 str3" cx="0.0511931" cy="0.0272446" r="0.00249419"/>
      <circle id="_118845904" class="fil4 str3" cx="0.0593874" cy="0.0201818" r="0.00355422"/>
      <circle id="_118845808" class="fil4 str3" cx="0.063477" cy="0.0241662" r="0.00249419"/>
      <circle id="_118845520" class="fil4 str3" cx="0.0620686" cy="0.0325904" r="0.00249419"/>
      <circle id="_118845760" class="fil4 str3" cx="0.0638146" cy="0.0338375" r="0.00498837"/>
      <circle id="_118845640" class="fil5 str3" cx="0.0586937" cy="0.0307197" r="0.00286832"/>
     </g>
     <g>
      <line id="_118845616" class="fil3 str5" x1="0.0118578" y1="0.0451585" x2="0.0118578" y2= "0.0368518" />
      <circle id="_118844848" class="fil4 str3" cx="0.0156131" cy="0.0364691" r="0.0030616"/>
      <circle id="_118844920" class="fil4 str3" cx="0.00847891" cy="0.0390874" r="0.00338372"/>
      <circle id="_118845160" class="fil4 str3" cx="0.0112503" cy="0.0340198" r="0.0030616"/>
      <circle id="_118844800" class="fil5 str3" cx="0.00725437" cy="0.0354079" r="0.0015308"/>
      <circle id="_118845352" class="fil4 str3" cx="0.0122836" cy="0.031073" r="0.00218139"/>
      <circle id="_118844776" class="fil4 str3" cx="0.0147936" cy="0.0335185" r="0.0015308"/>
      <circle id="_118845208" class="fil4 str3" cx="0.0139292" cy="0.0386888" r="0.0015308"/>
      <circle id="_118844752" class="fil4 str3" cx="0.0150008" cy="0.0394542" r="0.0030616"/>
      <circle id="_118844728" class="fil5 str3" cx="0.0118579" cy="0.0375407" r="0.00176042"/>
     </g>
    </g>
   </g>
  </g>
 </g>
</svg>
